<?xml version="1.0" encoding="UTF-8"?>
<svg width="35px" height="39px" viewBox="0 0 35 39" version="1.1" xmlns="http://www.w3.org/2000/svg" xmlns:xlink="http://www.w3.org/1999/xlink">
    <!-- Generator: Sketch 48.1 (47250) - http://www.bohemiancoding.com/sketch -->
    <title>50</title>
    <desc>Created with Sketch.</desc>
    <defs>
        <filter x="-12.8%" y="-19.2%" width="125.6%" height="138.4%" filterUnits="objectBoundingBox" id="filter-1">
            <feGaussianBlur stdDeviation="0.611049107" in="SourceGraphic"></feGaussianBlur>
        </filter>
    </defs>
    <g id="主界面-copy-4" stroke="none" stroke-width="1" fill="none" fill-rule="evenodd" transform="translate(-304.000000, -543.000000)" opacity="0.499547101">
        <g id="Group-9" transform="translate(23.000000, 539.000000)">
            <g id="50" transform="translate(273.000000, 0.000000)">
                <polygon id="Path-6" fill="#FCB116" points="25.7034221 3.95437262 25.7034221 8.40304183 38.5551331 16.8060837 43.0038023 13.8403042"></polygon>
                <polygon id="Path-6-Copy-5" fill="#FECE04" transform="translate(17.423954, 10.380228) scale(-1, 1) translate(-17.423954, -10.380228) " points="8.65019011 3.95437262 8.65019011 8.40304183 21.5019011 16.8060837 26.1977186 13.8403042"></polygon>
                <polygon id="Path-6-Copy" fill="#FB9200" transform="translate(41.525030, 24.544516) rotate(-300.000000) translate(-41.525030, -24.544516) " points="32.87484 18.1186608 32.87484 22.56733 45.7265511 30.9703718 50.1752203 28.0045924"></polygon>
                <polygon id="Path-6-Copy-4" fill="#FBA703" transform="translate(9.890049, 24.544516) scale(-1, 1) rotate(-300.000000) translate(-9.890049, -24.544516) " points="1.23985906 18.1186608 1.23985906 22.56733 14.0915701 30.9703718 18.5402393 28.0045924"></polygon>
                <polygon id="Path-6-Copy-2" fill="#FCB116" transform="translate(33.356404, 37.578490) rotate(-240.000000) translate(-33.356404, -37.578490) " points="24.99091 31.4391345 24.9867924 35.8806718 38.0286932 43.7178449 41.7260159 41.6419181"></polygon>
                <polygon id="Path-6-Copy-3" fill="#FDCD06" transform="translate(18.016397, 37.541388) scale(-1, 1) rotate(-240.000000) translate(-18.016397, -37.541388) " points="9.62717829 31.2867363 9.62306067 35.7282736 22.5570729 43.7960392 26.4097335 41.5717046"></polygon>
                <polygon id="Polygon" fill="#FED958" points="25.8417263 8.40304183 39.3260382 16.1882129 39.3260382 31.7585551 25.8417263 39.5437262 12.3574144 31.7585551 12.3574144 16.1882129"></polygon>
                <path d="M19.668289,19.6742205 L25.1945247,19.6742205 L25.1945247,20.9079848 L20.7992395,20.9079848 L20.5293536,23.5554373 L20.5679087,23.5554373 C20.8506464,23.2598479 21.1719392,23.0542205 21.5446388,22.9257034 C21.8787833,22.7843346 22.2643346,22.720076 22.6755894,22.720076 C23.536654,22.720076 24.2434981,23.0028137 24.78327,23.568289 C25.3230418,24.1337643 25.6057795,24.9048669 25.6057795,25.8944487 C25.6057795,26.8454753 25.2459316,27.6165779 24.5519392,28.2206084 C23.8965019,28.7603802 23.1125475,29.0302662 22.200076,29.0302662 C21.3775665,29.0302662 20.6707224,28.7989354 20.0795437,28.3491255 C19.4241065,27.8607605 19.0642586,27.1796198 19,26.3314068 L20.3751331,26.3314068 C20.4265399,26.8454753 20.6321673,27.2438783 20.9791635,27.5009125 C21.2876046,27.7322433 21.6988593,27.8479087 22.2129278,27.8479087 C22.778403,27.8479087 23.2539163,27.6679848 23.6394677,27.3209886 C24.025019,26.9611407 24.2177947,26.4984791 24.2177947,25.9073004 C24.2177947,25.2647148 24.0507224,24.7634981 23.7165779,24.4036502 C23.3824335,24.0438023 22.9197719,23.8638783 22.3028897,23.8638783 C21.891635,23.8638783 21.5446388,23.9281369 21.2361977,24.0823574 C20.9020532,24.2365779 20.6578707,24.4807605 20.4779468,24.8149049 L19.1670722,24.8149049 L19.668289,19.6742205 Z M30.0139163,19.4942966 C31.0934601,19.4942966 31.9288213,19.9441065 32.52,20.8565779 C33.0597719,21.7047909 33.3296578,22.8357414 33.3296578,24.2622814 C33.3296578,25.6759696 33.0597719,26.8197719 32.52,27.6679848 C31.9288213,28.5676046 31.0934601,29.0302662 30.0139163,29.0302662 C28.9343726,29.0302662 28.0990114,28.5676046 27.5078327,27.6679848 C26.9680608,26.8197719 26.6981749,25.6888213 26.6981749,24.2622814 C26.6981749,22.8228897 26.9680608,21.6919392 27.5078327,20.8565779 C28.0990114,19.9441065 28.9343726,19.4942966 30.0139163,19.4942966 Z M30.0139163,20.676654 C29.2556654,20.676654 28.7287452,21.0879087 28.4203042,21.92327 C28.1889734,22.4887452 28.0861597,23.2726996 28.0861597,24.2622814 C28.0861597,25.2390114 28.1889734,26.0229658 28.4203042,26.6012928 C28.7287452,27.4238023 29.2556654,27.8479087 30.0139163,27.8479087 C30.7593156,27.8479087 31.2990875,27.4238023 31.6075285,26.6012928 C31.8260076,26.0229658 31.941673,25.2390114 31.941673,24.2622814 C31.941673,23.2726996 31.8260076,22.4887452 31.6075285,21.92327 C31.2990875,21.0879087 30.7593156,20.676654 30.0139163,20.676654 Z" fill="#CB7703" filter="url(#filter-1)"></path>
                <path d="M19.168289,19.179924 L24.6945247,19.179924 L24.6945247,20.4136882 L20.2992395,20.4136882 L20.0293536,23.0611407 L20.0679087,23.0611407 C20.3506464,22.7655513 20.6719392,22.559924 21.0446388,22.4314068 C21.3787833,22.290038 21.7643346,22.2257795 22.1755894,22.2257795 C23.036654,22.2257795 23.7434981,22.5085171 24.28327,23.0739924 C24.8230418,23.6394677 25.1057795,24.4105703 25.1057795,25.4001521 C25.1057795,26.3511787 24.7459316,27.1222814 24.0519392,27.7263118 C23.3965019,28.2660837 22.6125475,28.5359696 21.700076,28.5359696 C20.8775665,28.5359696 20.1707224,28.3046388 19.5795437,27.8548289 C18.9241065,27.3664639 18.5642586,26.6853232 18.5,25.8371103 L19.8751331,25.8371103 C19.9265399,26.3511787 20.1321673,26.7495817 20.4791635,27.006616 C20.7876046,27.2379468 21.1988593,27.3536122 21.7129278,27.3536122 C22.278403,27.3536122 22.7539163,27.1736882 23.1394677,26.826692 C23.525019,26.4668441 23.7177947,26.0041825 23.7177947,25.4130038 C23.7177947,24.7704183 23.5507224,24.2692015 23.2165779,23.9093536 C22.8824335,23.5495057 22.4197719,23.3695817 21.8028897,23.3695817 C21.391635,23.3695817 21.0446388,23.4338403 20.7361977,23.5880608 C20.4020532,23.7422814 20.1578707,23.9864639 19.9779468,24.3206084 L18.6670722,24.3206084 L19.168289,19.179924 Z M29.5139163,19 C30.5934601,19 31.4288213,19.4498099 32.02,20.3622814 C32.5597719,21.2104943 32.8296578,22.3414449 32.8296578,23.7679848 C32.8296578,25.181673 32.5597719,26.3254753 32.02,27.1736882 C31.4288213,28.073308 30.5934601,28.5359696 29.5139163,28.5359696 C28.4343726,28.5359696 27.5990114,28.073308 27.0078327,27.1736882 C26.4680608,26.3254753 26.1981749,25.1945247 26.1981749,23.7679848 C26.1981749,22.3285932 26.4680608,21.1976426 27.0078327,20.3622814 C27.5990114,19.4498099 28.4343726,19 29.5139163,19 Z M29.5139163,20.1823574 C28.7556654,20.1823574 28.2287452,20.5936122 27.9203042,21.4289734 C27.6889734,21.9944487 27.5861597,22.778403 27.5861597,23.7679848 C27.5861597,24.7447148 27.6889734,25.5286692 27.9203042,26.1069962 C28.2287452,26.9295057 28.7556654,27.3536122 29.5139163,27.3536122 C30.2593156,27.3536122 30.7990875,26.9295057 31.1075285,26.1069962 C31.3260076,25.5286692 31.441673,24.7447148 31.441673,23.7679848 C31.441673,22.778403 31.3260076,21.9944487 31.1075285,21.4289734 C30.7990875,20.5936122 30.2593156,20.1823574 29.5139163,20.1823574 Z" fill="#FFFFFF"></path>
            </g>
        </g>
    </g>
</svg>