<?xml version="1.0" encoding="UTF-8"?>
<svg width="347px" height="323px" viewBox="0 0 347 323" version="1.1" xmlns="http://www.w3.org/2000/svg" xmlns:xlink="http://www.w3.org/1999/xlink">
    <!-- Generator: Sketch 48.1 (47250) - http://www.bohemiancoding.com/sketch -->
    <title>Group 4</title>
    <desc>Created with Sketch.</desc>
    <defs>
        <polygon id="path-1" points="0 14.5 14 0 150 0 164 14.5 164 29 0 29"></polygon>
        <linearGradient x1="0.25781251%" y1="49.7500002%" x2="101.257813%" y2="49.7500002%" id="linearGradient-3">
            <stop stop-color="#062443" offset="0%"></stop>
            <stop stop-color="#062948" offset="47.2576531%"></stop>
            <stop stop-color="#091729" offset="100%"></stop>
        </linearGradient>
    </defs>
    <g id="iPhone-8" stroke="none" stroke-width="1" fill="none" fill-rule="evenodd" transform="translate(-14.000000, -132.000000)">
        <g id="Group-4" transform="translate(15.000000, 132.000000)">
            <g id="Group-14" transform="translate(90.000000, 0.000000)">
                <mask id="mask-2" fill="white">
                    <use xlink:href="#path-1"></use>
                </mask>
                <g id="Path-4">
                    <use fill="#02192C" fill-rule="evenodd" xlink:href="#path-1"></use>
                    <path stroke="#17416B" stroke-width="0.5" d="M0.25,14.6009936 L0.25,28.75 L163.75,28.75 L163.75,14.6009936 L149.893868,0.25 L14.1061318,0.25 L0.25,14.6009936 Z"></path>
                </g>
                <rect id="Rectangle-8" fill="url(#linearGradient-3)" mask="url(#mask-2)" transform="translate(26.000000, 14.000000) rotate(-315.000000) translate(-26.000000, -14.000000) " x="6.90811691" y="9" width="38.1837662" height="10"></rect>
                <rect id="Rectangle-8" fill="url(#linearGradient-3)" mask="url(#mask-2)" transform="translate(43.500000, 11.500000) rotate(-315.000000) translate(-43.500000, -11.500000) " x="20.872583" y="6.5" width="45.254834" height="10"></rect>
                <rect id="Rectangle-8" fill="url(#linearGradient-3)" mask="url(#mask-2)" transform="translate(63.500000, 11.500000) rotate(-315.000000) translate(-63.500000, -11.500000) " x="40.872583" y="6.5" width="45.254834" height="10"></rect>
                <rect id="Rectangle-8" fill="url(#linearGradient-3)" mask="url(#mask-2)" transform="translate(83.500000, 11.500000) rotate(-315.000000) translate(-83.500000, -11.500000) " x="60.872583" y="6.5" width="45.254834" height="10"></rect>
                <rect id="Rectangle-8" fill="url(#linearGradient-3)" mask="url(#mask-2)" transform="translate(103.500000, 11.500000) rotate(-315.000000) translate(-103.500000, -11.500000) " x="80.872583" y="6.5" width="45.254834" height="10"></rect>
                <rect id="Rectangle-8" fill="url(#linearGradient-3)" mask="url(#mask-2)" transform="translate(123.500000, 11.500000) rotate(-315.000000) translate(-123.500000, -11.500000) " x="100.872583" y="6.5" width="45.254834" height="10"></rect>
                <rect id="Rectangle-8" fill="url(#linearGradient-3)" mask="url(#mask-2)" transform="translate(143.500000, 11.500000) rotate(-315.000000) translate(-143.500000, -11.500000) " x="120.872583" y="6.5" width="45.254834" height="10"></rect>
                <path d="M0.25,14.6009936 L0.25,28.75 L163.75,28.75 L163.75,14.6009936 L149.893868,0.25 L14.1061318,0.25 L0.25,14.6009936 Z" id="Path-4" stroke="#17416B" stroke-width="0.5" mask="url(#mask-2)"></path>
            </g>
            <polygon id="Path-3" stroke="#17416B" stroke-width="0.5" fill="#000000" points="10 14 107.005208 14 116 23 228 23 237 14 335 14 345 27 345 311 335 322 10 322 0 311 0 27"></polygon>
            <polygon id="Path-5" fill="#42EDF8" points="107 14 111 14 120 23 116 23"></polygon>
            <polygon id="Path-5-Copy" fill="#42EDF8" transform="translate(230.500000, 18.500000) scale(-1, 1) translate(-230.500000, -18.500000) " points="224 14 228 14 237 23 233 23"></polygon>
            <polygon id="Path-6-Copy" fill="#0A192C" points="90 19 92 21 97 21 95 19"></polygon>
            <polygon id="Path-6-Copy-4" fill="#0A192C" transform="translate(250.500000, 20.000000) scale(-1, 1) translate(-250.500000, -20.000000) " points="247 19 249 21 254 21 252 19"></polygon>
            <polygon id="Path-6-Copy-3" fill="#0A192C" points="80 19 82 21 87 21 85 19"></polygon>
            <polygon id="Path-6-Copy-5" fill="#0A192C" transform="translate(240.500000, 20.000000) scale(-1, 1) translate(-240.500000, -20.000000) " points="237 19 239 21 244 21 242 19"></polygon>
            <polygon id="Path-6-Copy-2" fill="#0A192C" points="100 19 102 21 107 21 105 19"></polygon>
            <polygon id="Path-6-Copy-6" fill="#0A192C" transform="translate(260.500000, 20.000000) scale(-1, 1) translate(-260.500000, -20.000000) " points="257 19 259 21 264 21 262 19"></polygon>
        </g>
    </g>
</svg>
