<?xml version="1.0" encoding="UTF-8"?>
<svg width="347px" height="335px" viewBox="0 0 347 335" version="1.1" xmlns="http://www.w3.org/2000/svg" xmlns:xlink="http://www.w3.org/1999/xlink">
    <!-- Generator: Sketch 48.1 (47250) - http://www.bohemiancoding.com/sketch -->
    <title>投注区域背景@3x</title>
    <desc>Created with Sketch.</desc>
    <defs></defs>
    <g id="主界面-copy-2" stroke="none" stroke-width="1" fill="none" fill-rule="evenodd" transform="translate(-14.000000, -131.000000)">
        <g id="投注区域背景" transform="translate(15.000000, 132.000000)">
            <polygon id="Path-4" stroke="#17416B" stroke-width="0.5" fill="#000000" points="90 14.5 104 0 240 0 254 14.5 254 29 90 29"></polygon>
            <polygon id="Path-3" stroke="#17416B" stroke-width="0.5" fill="#000000" points="10 14 107.005208 14 116 23 228 23 237 14 335 14 345 27 345 322 335 333 10 333 0 322 0 27"></polygon>
            <polygon id="Path-5" fill="#42EDF8" points="107 14 111 14 120 23 116 23"></polygon>
            <polygon id="Path-5-Copy" fill="#42EDF8" transform="translate(230.500000, 18.500000) scale(-1, 1) translate(-230.500000, -18.500000) " points="224 14 228 14 237 23 233 23"></polygon>
        </g>
    </g>
</svg>