<?xml version="1.0" encoding="UTF-8"?>
<svg width="124px" height="24px" viewBox="0 0 124 24" version="1.1" xmlns="http://www.w3.org/2000/svg" xmlns:xlink="http://www.w3.org/1999/xlink">
    <!-- Generator: Sketch 48.1 (47250) - http://www.bohemiancoding.com/sketch -->
    <title>Big Winner</title>
    <desc>Created with Sketch.</desc>
    <defs>
        <linearGradient x1="50%" y1="0%" x2="50%" y2="100%" id="linearGradient-1">
            <stop stop-color="#F6E542" offset="0%"></stop>
            <stop stop-color="#E5A025" offset="100%"></stop>
        </linearGradient>
    </defs>
    <g id="大赢家" stroke="none" stroke-width="1" fill="none" fill-rule="evenodd" transform="translate(-163.000000, -165.000000)">
        <g id="Group-15" transform="translate(38.000000, 165.000000)" fill="url(#linearGradient-1)">
            <path d="M125.68,0.864 L133.504,0.864 C135.184,0.864 136.48,1.248 137.44,2.064 C138.352,2.832 138.808,3.864 138.808,5.184 C138.808,6.144 138.568,6.96 138.088,7.632 C137.608,8.256 136.96,8.736 136.096,9.048 C137.224,9.264 138.088,9.72 138.664,10.416 C139.24,11.112 139.528,12.048 139.528,13.2 C139.528,14.928 138.928,16.176 137.752,16.992 C136.744,17.664 135.328,18 133.504,18 L125.68,18 L125.68,0.864 Z M128.296,3.024 L128.296,8.136 L132.808,8.136 C134.008,8.136 134.872,7.92 135.4,7.512 C135.928,7.08 136.192,6.408 136.192,5.496 C136.192,4.632 135.928,4.008 135.4,3.624 C134.872,3.216 134.008,3.024 132.856,3.024 L128.296,3.024 Z M128.296,10.272 L128.296,15.84 L133.144,15.84 C134.248,15.84 135.112,15.648 135.736,15.312 C136.504,14.856 136.912,14.136 136.912,13.152 C136.912,12.144 136.6,11.4 136,10.944 C135.4,10.488 134.464,10.272 133.216,10.272 L128.296,10.272 Z M143.728,0.624 C144.232,0.624 144.664,0.768 145,1.104 C145.336,1.416 145.504,1.824 145.504,2.328 C145.504,2.832 145.312,3.24 144.976,3.576 C144.64,3.888 144.208,4.056 143.728,4.056 C143.224,4.056 142.816,3.888 142.48,3.576 C142.144,3.24 141.976,2.808 141.976,2.328 C141.976,1.824 142.144,1.416 142.48,1.104 C142.816,0.768 143.224,0.624 143.728,0.624 Z M142.456,5.592 L145,5.592 L145,18 L142.456,18 L142.456,5.592 Z M153.592,5.256 C155.224,5.256 156.472,5.904 157.384,7.248 L157.384,5.592 L159.928,5.592 L159.928,17.184 C159.928,21.12 157.984,23.088 154.144,23.088 C152.416,23.088 151.096,22.752 150.184,22.104 C149.272,21.432 148.72,20.424 148.48,19.056 L151.024,19.056 C151.168,19.776 151.456,20.304 151.936,20.616 C152.392,20.904 153.136,21.072 154.144,21.072 C156.304,21.072 157.384,19.896 157.384,17.568 L157.384,15.648 C156.472,17.016 155.224,17.712 153.592,17.712 C151.912,17.712 150.544,17.136 149.512,16.008 C148.456,14.88 147.952,13.392 147.952,11.52 C147.952,9.648 148.456,8.16 149.512,7.008 C150.544,5.832 151.912,5.256 153.592,5.256 Z M153.976,7.32 C152.896,7.32 152.056,7.68 151.48,8.448 C150.856,9.168 150.568,10.2 150.568,11.52 C150.568,12.72 150.808,13.68 151.288,14.376 C151.84,15.192 152.728,15.624 153.976,15.624 C155.056,15.624 155.896,15.264 156.52,14.544 C157.096,13.8 157.408,12.792 157.408,11.52 C157.408,10.224 157.096,9.192 156.52,8.448 C155.896,7.68 155.056,7.32 153.976,7.32 Z M169.48,0.864 L172.432,0.864 L175.768,14.208 L175.864,14.208 L179.368,0.864 L182.104,0.864 L185.608,14.208 L185.704,14.208 L189.04,0.864 L191.992,0.864 L187.048,18 L184.264,18 L180.784,4.776 L180.688,4.776 L177.208,18 L174.4,18 L169.48,0.864 Z M195.352,0.624 C195.856,0.624 196.288,0.768 196.624,1.104 C196.96,1.416 197.128,1.824 197.128,2.328 C197.128,2.832 196.936,3.24 196.6,3.576 C196.264,3.888 195.832,4.056 195.352,4.056 C194.848,4.056 194.44,3.888 194.104,3.576 C193.768,3.24 193.6,2.808 193.6,2.328 C193.6,1.824 193.768,1.416 194.104,1.104 C194.44,0.768 194.848,0.624 195.352,0.624 Z M194.08,5.592 L196.624,5.592 L196.624,18 L194.08,18 L194.08,5.592 Z M206.344,5.256 C209.416,5.256 210.976,6.936 210.976,10.344 L210.976,18 L208.432,18 L208.432,10.56 C208.432,8.448 207.448,7.392 205.528,7.392 C204.808,7.392 204.16,7.632 203.632,8.16 C203.056,8.736 202.696,9.528 202.6,10.536 L202.6,18 L200.056,18 L200.056,5.592 L202.6,5.592 L202.6,7.128 C203.08,6.504 203.632,6.048 204.256,5.736 C204.88,5.4 205.576,5.256 206.344,5.256 Z M220.168,5.256 C223.24,5.256 224.8,6.936 224.8,10.344 L224.8,18 L222.256,18 L222.256,10.56 C222.256,8.448 221.272,7.392 219.352,7.392 C218.632,7.392 217.984,7.632 217.456,8.16 C216.88,8.736 216.52,9.528 216.424,10.536 L216.424,18 L213.88,18 L213.88,5.592 L216.424,5.592 L216.424,7.128 C216.904,6.504 217.456,6.048 218.08,5.736 C218.704,5.4 219.4,5.256 220.168,5.256 Z M232.96,5.256 C234.976,5.256 236.536,5.928 237.592,7.32 C238.552,8.568 239.056,10.296 239.08,12.504 L229.672,12.504 C229.768,13.704 230.08,14.64 230.656,15.288 C231.232,15.912 232.024,16.248 233.032,16.248 C233.92,16.248 234.64,16.032 235.192,15.624 C235.624,15.288 235.984,14.736 236.32,14.016 L238.864,14.016 C238.576,15.168 238.024,16.152 237.16,16.92 C236.08,17.856 234.712,18.336 233.056,18.336 C231.232,18.336 229.768,17.76 228.712,16.632 C227.56,15.432 226.984,13.824 226.984,11.784 C226.984,9.936 227.512,8.4 228.616,7.152 C229.672,5.88 231.136,5.256 232.96,5.256 Z M233.032,7.344 C232.072,7.344 231.328,7.608 230.752,8.184 C230.224,8.736 229.864,9.528 229.72,10.584 L236.416,10.584 C236.176,8.424 235.048,7.344 233.032,7.344 Z M247,5.256 C247.624,5.256 248.176,5.352 248.608,5.568 L248.608,8.112 C247.984,7.92 247.384,7.848 246.808,7.848 C246.04,7.848 245.344,8.16 244.744,8.784 C244.096,9.456 243.784,10.344 243.784,11.424 L243.784,18 L241.24,18 L241.24,5.592 L243.784,5.592 L243.784,7.464 C244.096,6.792 244.504,6.288 244.984,5.952 C245.56,5.472 246.232,5.256 247,5.256 Z" id="Big-Winner"></path>
        </g>
    </g>
</svg>