<?xml version="1.0" encoding="UTF-8"?>
<svg width="130px" height="33px" viewBox="0 0 130 33" version="1.1" xmlns="http://www.w3.org/2000/svg" xmlns:xlink="http://www.w3.org/1999/xlink">
    <!-- Generator: Sketch 48.1 (47250) - http://www.bohemiancoding.com/sketch -->
    <title>底部</title>
    <desc>Created with Sketch.</desc>
    <defs>
        <path d="M2.23554395,8.04123711 L25.0190491,30.8247423 L101.618185,30.8247423 L123.110733,8.06792664 L116.383013,1.34020619 L8.93657488,1.34020619 L2.23554395,8.04123711 Z M116.938144,0 L119.618557,0 L129,8.04123711 L103.536082,32.1649485 L102.195876,32.1649485 L24.4639175,32.1649485 L0.340206186,8.04123711 L8.3814433,0 L116.938144,0 Z" id="path-1"></path>
    </defs>
    <g id="大赢家-copy" stroke="none" stroke-width="1" fill="none" fill-rule="evenodd" transform="translate(-123.000000, -390.000000)">
        <g id="Group-4" transform="translate(89.000000, 244.000000)">
            <g id="底部" transform="translate(34.000000, 146.000000)">
                <polygon id="Combined-Shape" fill="#EFC836" fill-rule="nonzero" opacity="0.395776721" points="3.23554395 8.04123711 26.0190491 30.8247423 103.958391 30.8247423 125.450939 8.06792664 118.723219 1.34020619 9.93657488 1.34020619"></polygon>
                <g id="Group-14" transform="translate(1.000000, 0.000000)">
                    <mask id="mask-2" fill="white">
                        <use xlink:href="#path-1"></use>
                    </mask>
                    <use id="Combined-Shape" fill="#EFC836" fill-rule="nonzero" xlink:href="#path-1"></use>
                </g>
                <polygon id="Path-26" fill="#FFEE00" points="13.4020619 0 6.70103093 8.04123711 29.4845361 32.1649485 25.4639175 32.1649485 0 8.04123711 9.3814433 0"></polygon>
                <polygon id="Path-27" fill="#FFEE00" opacity="0.702558877" points="5.36082474 18.7628866 5.36082474 24.1237113 12.0618557 30.8247423 17.4226804 30.8247423"></polygon>
                <polygon id="Path-27-Copy" fill="#FFEE00" opacity="0.702558877" transform="translate(118.608247, 24.793814) scale(-1, 1) translate(-118.608247, -24.793814) " points="112.57732 18.7628866 112.57732 24.1237113 119.278351 30.8247423 124.639175 30.8247423"></polygon>
            </g>
        </g>
    </g>
</svg>
