<?xml version="1.0" encoding="UTF-8"?>
<svg width="30px" height="44px" viewBox="0 0 30 44" version="1.1" xmlns="http://www.w3.org/2000/svg" xmlns:xlink="http://www.w3.org/1999/xlink">
    <!-- Generator: Sketch 48.1 (47250) - http://www.bohemiancoding.com/sketch -->
    <title>蓝方-默认卡牌</title>
    <desc>Created with Sketch.</desc>
    <defs></defs>
    <g id="win" stroke="none" stroke-width="1" fill="none" fill-rule="evenodd" transform="translate(-210.000000, -67.000000)">
        <g id="蓝方-默认卡牌" transform="translate(210.000000, 67.000000)">
            <rect id="Rectangle" fill="#02192C" x="0" y="0" width="30" height="44" rx="3"></rect>
            <path d="M4.02985075,37.0765174 C5.24944673,37.2509669 6.24255724,38.1275088 6.58662149,39.2835821 L23.8611397,39.2835821 C24.162012,38.272636 24.9592032,37.4754448 25.9701493,37.1745725 L25.9701493,7.13886029 C24.9592032,6.83798803 24.162012,6.04079681 23.8611397,5.02985075 L6.13886029,5.02985075 C5.83798803,6.04079681 5.04079681,6.83798803 4.02985075,7.13886029 L4.02985075,37.0765174 Z M3.58208955,37.9402985 C3.42874664,37.9402985 3.27900445,37.955715 3.13432836,37.9850827 L3.13432836,6.37313433 C4.37078675,6.37313433 5.37313433,5.37078675 5.37313433,4.13432836 L24.6268657,4.13432836 C24.6268657,5.37078675 25.6292132,6.37313433 26.8656716,6.37313433 L26.8656716,37.9402985 C25.6292132,37.9402985 24.6268657,38.9426461 24.6268657,40.1791045 L5.82089552,40.1791045 C5.82089552,38.9426461 4.81854795,37.9402985 3.58208955,37.9402985 Z" id="Combined-Shape" fill="#42EDF8" fill-rule="nonzero"></path>
            <path d="M14.9922331,13.5373134 L15.3650438,13.5373134 C15.6135843,13.5373134 15.7378545,13.6615837 15.7378545,13.9101241 C15.7378545,14.1586646 15.7378545,16.1469884 15.7378545,19.8750955 L16.1106652,19.8750955 L16.1106652,14.2829348 C20.3358533,14.4072051 22.1999068,16.6440693 21.7028259,20.9935276 C18.3475295,19.5022848 16.8562867,20.6207169 16.2970706,21.3663383 C15.9589574,21.8171559 16.5656153,21.4327689 17.2290974,21.1799329 C17.6629691,21.0145956 18.1264266,20.9935276 18.3475295,20.9935276 C19.0931509,20.9935276 20.211583,20.6207169 21.3300151,22.6711758 C22.0756366,24.0381484 22.821258,25.4672561 23.5668794,26.9584989 C24.1882306,28.3254715 24.0639603,29.5060388 23.1940687,30.5002006 C22.2620419,29.7545792 22.2620419,29.1953632 20.3979884,28.4497418 C20.3979884,27.8283906 20.8329342,27.3313096 21.7028259,26.9584989 C20.8329342,23.6653377 19.7145021,22.018757 18.3475295,22.018757 C16.9805569,22.2051624 16.0485301,22.7333109 15.5514492,23.6032025 L14.9922331,23.6032025 L14.4485508,23.6032025 C13.9514699,22.7333109 13.0194431,22.2051624 11.6524705,22.018757 C10.2854979,22.018757 9.1670658,23.6653377 8.29717415,26.9584989 C9.1670658,27.3313096 9.60201162,27.8283906 9.60201162,28.4497418 C7.73795808,29.1953632 7.73795808,29.7545792 6.80593131,30.5002006 C5.93603966,29.5060388 5.81176943,28.3254715 6.43312061,26.9584989 C7.17874202,25.4672561 7.92436344,24.0381484 8.66998485,22.6711758 C9.78841698,20.6207169 10.9068491,20.9935276 11.6524705,20.9935276 C11.8735734,20.9935276 12.3370309,21.0145956 12.7709026,21.1799329 C13.4343847,21.4327689 14.0410426,21.8171559 13.7029294,21.3663383 C13.1437133,20.6207169 11.6524705,19.5022848 8.29717415,20.9935276 C7.8000932,16.6440693 9.66414674,14.4072051 13.8893348,14.2829348 L13.8893348,19.8750955 L14.2621455,19.8750955 C14.2621455,16.1469884 14.2621455,14.1586646 14.2621455,13.9101241 C14.2621455,13.6615837 14.3864157,13.5373134 14.6349562,13.5373134 L14.9922331,13.5373134 Z M14.9922331,27.3313096 L15.9242599,27.3313096 L18.1611241,29.9409846 C18.2853944,29.9409846 18.4096646,29.9409846 18.5339348,29.9409846 C18.6582051,29.9409846 18.7203402,30.0031197 18.7203402,30.1273899 C18.7203402,30.2516602 18.7203402,30.3759304 18.7203402,30.5002006 C18.7203402,30.6244709 18.6582051,30.686606 18.5339348,30.686606 L14.9922331,30.686606 L11.4505314,30.686606 C11.3262611,30.686606 11.264126,30.6244709 11.264126,30.5002006 C11.264126,30.3759304 11.264126,30.2516602 11.264126,30.1273899 C11.264126,30.0031197 11.3262611,29.9409846 11.4505314,29.9409846 C11.5748016,29.9409846 11.6990719,29.9409846 11.8233421,29.9409846 L14.0602063,27.3313096 L14.9922331,27.3313096 Z M16.6188104,25.0944454 C16.8052157,24.90804 18.154053,25.5202469 18.6692693,25.4672561 C19.8258127,25.3483037 20.2609458,24.7216347 20.3469175,24.7216347 C20.4443218,24.7216347 20.5297065,25.3540349 20.7197282,25.8400668 C20.8933562,26.2841675 21.1815399,26.5856882 21.0925389,26.5856882 C20.9061335,26.5856882 19.2284853,28.2633364 19.04208,28.8225525 C18.9178097,29.1953632 18.7314044,29.2574983 18.4828639,29.0089578 L16.6188104,26.9584989 C16.5628302,26.8964489 16.5317626,26.8343138 16.5256077,26.7720936 C16.4331302,25.8372333 16.5058203,25.2074354 16.6188104,25.0944454 Z M13.5176591,25.0944454 C13.6306492,25.2074354 13.7033393,25.8372333 13.6108618,26.7720936 C13.6047069,26.8343138 13.5736394,26.8964489 13.5176591,26.9584989 L11.6536056,29.0089578 C11.4050651,29.2574983 11.2186598,29.1953632 11.0943895,28.8225525 C10.9079842,28.2633364 9.23033599,26.5856882 9.04393064,26.5856882 C8.95492962,26.5856882 9.2431133,26.2841675 9.41674135,25.8400668 C9.60676304,25.3540349 9.69214772,24.7216347 9.78955206,24.7216347 C9.87552369,24.7216347 10.3106568,25.3483037 11.4672002,25.4672561 C11.9824166,25.5202469 13.3312538,24.90804 13.5176591,25.0944454 Z M14.9922331,25.0944454 C14.9922331,25.0944454 15.1165033,25.0944454 15.3650438,25.0944454 C15.6135843,25.0944454 15.7378545,25.2187156 15.7378545,25.4672561 C15.7378545,25.964337 15.7378545,26.2750126 15.7378545,26.3992829 C15.7378545,26.5235531 15.6757194,26.5856882 15.5514492,26.5856882 C14.930098,26.5856882 14.5572873,26.5856882 14.433017,26.5856882 C14.3087468,26.5856882 14.2466117,26.5235531 14.2466117,26.3992829 C14.2466117,26.0264721 14.2466117,25.7157966 14.2466117,25.4672561 C14.2466117,25.2187156 14.3708819,25.0944454 14.6194224,25.0944454 L14.9922331,25.0944454 Z" id="Combined-Shape" fill="#42EDF8"></path>
        </g>
    </g>
</svg>
