<?xml version="1.0" encoding="UTF-8"?>
<svg width="14px" height="12px" viewBox="0 0 14 12" version="1.1" xmlns="http://www.w3.org/2000/svg" xmlns:xlink="http://www.w3.org/1999/xlink">
    <!-- Generator: Sketch 48.1 (47250) - http://www.bohemiancoding.com/sketch -->
    <title>弹幕</title>
    <desc>Created with Sketch.</desc>
    <defs></defs>
    <g id="弹幕" stroke="none" stroke-width="1" fill="none" fill-rule="evenodd" transform="translate(-31.000000, -214.000000)">
        <g id="Group-2" transform="translate(31.000000, 205.000000)" fill="#2C799F" fill-rule="nonzero">
            <g id="弹幕" transform="translate(0.000000, 9.000000)">
                <path d="M11.5,0 L2.5,0 C1.1,0 0,1.1 0,2.5 L0,9.5 C0,10.9 1.1,12 2.5,12 L11.5,12 C12.9,12 14,10.9 14,9.5 L14,2.5 C14,1.1 12.9,0 11.5,0 Z M13,9.5 C13,10.35 12.35,11 11.5,11 L2.5,11 C1.65,11 1,10.35 1,9.5 L1,2.5 C1,1.65 1.65,1 2.5,1 L11.5,1 C12.35,1 13,1.65 13,2.5 L13,9.5 Z" id="Shape"></path>
                <path d="M2.75,4 L3.75,4 L3.75,5 L2.75,5 L2.75,4 Z M4.75,4 L10.75,4 L10.75,5 L4.75,5 L4.75,4 Z M5.75,7 L11.25,7 L11.25,8 L5.75,8 L5.75,7 Z M3.75,7 L4.75,7 L4.75,8 L3.75,8 L3.75,7 Z" id="Shape"></path>
            </g>
        </g>
    </g>
</svg>
