<?xml version="1.0" encoding="UTF-8"?>
<svg width="41px" height="39px" viewBox="0 0 41 39" version="1.1" xmlns="http://www.w3.org/2000/svg" xmlns:xlink="http://www.w3.org/1999/xlink">
    <!-- Generator: Sketch 48.1 (47250) - http://www.bohemiancoding.com/sketch -->
    <title>Group 17</title>
    <desc>Created with Sketch.</desc>
    <defs>
        <filter x="-31.0%" y="-27.1%" width="162.0%" height="154.2%" filterUnits="objectBoundingBox" id="filter-1">
            <feGaussianBlur stdDeviation="2.45535714" in="SourceGraphic"></feGaussianBlur>
        </filter>
    </defs>
    <g id="弹幕样式" stroke="none" stroke-width="1" fill="none" fill-rule="evenodd" transform="translate(-10.000000, -3.000000)">
        <g id="Group-17" transform="translate(16.000000, 9.000000)" fill-rule="nonzero">
            <g id="Group-15" stroke="#42EDF8">
                <path d="M15.1043156,-1.02516309 L26.5831844,5.61898732 C26.9571362,5.83543653 27.1875,6.23545117 27.1875,6.66834958 L27.1875,19.9566504 C27.1875,20.3895488 26.9571362,20.7895635 26.5831844,21.0060127 L15.1043156,27.6501631 C14.7303638,27.8666123 14.2696362,27.8666123 13.8956844,27.6501631 L2.41681562,21.0060127 C2.04286381,20.7895635 1.8125,20.3895488 1.8125,19.9566504 L1.8125,6.66834958 C1.8125,6.23545117 2.04286381,5.83543653 2.41681562,5.61898732 L13.8956844,-1.02516309 C14.2696362,-1.2416123 14.7303638,-1.2416123 15.1043156,-1.02516309 Z" id="Combined-Shape-Copy-2" filter="url(#filter-1)" transform="translate(14.500000, 13.312500) rotate(-270.000000) translate(-14.500000, -13.312500) "></path>
                <path d="M15.2918156,-0.837663094 L26.7706844,5.80648732 C27.1446362,6.02293653 27.375,6.42295117 27.375,6.85584958 L27.375,20.1441504 C27.375,20.5770488 27.1446362,20.9770635 26.7706844,21.1935127 L15.2918156,27.8376631 C14.9178638,28.0541123 14.4571362,28.0541123 14.0831844,27.8376631 L2.60431562,21.1935127 C2.23036381,20.9770635 2,20.5770488 2,20.1441504 L2,6.85584958 C2,6.42295117 2.23036381,6.02293653 2.60431562,5.80648732 L14.0831844,-0.837663094 C14.4571362,-1.0541123 14.9178638,-1.0541123 15.2918156,-0.837663094 Z" id="Combined-Shape-Copy-2" transform="translate(14.687500, 13.500000) rotate(-270.000000) translate(-14.687500, -13.500000) "></path>
            </g>
            <g id="聊天" transform="translate(8.000000, 8.000000)" fill="#42EDF8">
                <path d="M12,1 L11.3798332,1 L11.6254738,1 C11.8347233,1.0129851 12,1.19802272 12,1.42526192 L12,1 Z M6.75511751,9.05075992 C6.99772555,9.31046186 6.99772555,9.73085436 6.75511751,9.99055629 L5.05989386,11.8052236 C4.81728582,12.0649255 4.42456406,12.0649255 4.18195603,11.8052236 C3.93934799,11.5455216 3.93934799,11.1251291 4.18195603,10.8654272 L5.87717968,9.05075992 C6.11978772,8.79105799 6.51250948,8.79105799 6.75511751,9.05075992 Z" id="Shape"></path>
                <path d="M12.9933363,0 L3.66785133,0 C3.29971864,0 3,0.298653611 3,0.669114647 C3,1.0379437 3.29808974,1.33822929 3.66785133,1.33822929 L12.6642973,1.33822929 L12.6642973,7.33088535 C12.6642973,7.6997144 12.9623871,8 13.3321487,8 C13.7019103,8 14,7.70134639 14,7.33088535 L14,1.05915953 C13.9739375,0.501019992 13.5422775,0.0505915953 12.9933363,0 Z" id="Shape"></path>
                <path d="M10.8839061,2 L1.11609394,2 C0.503117951,2 0,2.53289474 0,3.18590226 L0,9.81409774 C0,10.4654135 0.501525806,11 1.11609394,11 L10.8839061,11 C11.496882,11 12,10.4671053 12,9.81409774 L12,3.18590226 C11.9984079,2.53289474 11.496882,2 10.8839061,2 Z M4.42297997,6.5 C4.42297997,6.88233083 4.13161735,7.19360902 3.77020034,7.19360902 L3.16359294,7.19360902 C2.80376808,7.19360902 2.51081332,6.88402256 2.51081332,6.5 C2.51081332,6.11766917 2.80217593,5.80639098 3.16359294,5.80639098 L3.77020034,5.80639098 C4.13002521,5.80639098 4.42297997,6.11597744 4.42297997,6.5 Z M6.94334616,6.5 C6.94334616,6.88233083 6.65198355,7.19360902 6.29056654,7.19360902 L5.68395913,7.19360902 C5.32413427,7.19360902 5.03117951,6.88402256 5.03117951,6.5 C5.03117951,6.11766917 5.32254213,5.80639098 5.68395913,5.80639098 L6.29056654,5.80639098 C6.6503914,5.80639098 6.94334616,6.11597744 6.94334616,6.5 Z M9.46371235,6.5 C9.46371235,6.88233083 9.17234974,7.19360902 8.81093273,7.19360902 L8.20432533,7.19360902 C7.84450046,7.19360902 7.55154571,6.88402256 7.55154571,6.5 C7.55154571,6.11766917 7.84290832,5.80639098 8.20432533,5.80639098 L8.81093273,5.80639098 C9.1707576,5.80639098 9.46371235,6.11597744 9.46371235,6.5 Z" id="Shape"></path>
            </g>
        </g>
    </g>
</svg>