<?xml version="1.0" encoding="UTF-8"?>
<svg width="30px" height="30px" viewBox="0 0 30 30" version="1.1" xmlns="http://www.w3.org/2000/svg" xmlns:xlink="http://www.w3.org/1999/xlink">
    <!-- Generator: Sketch 48.1 (47250) - http://www.bohemiancoding.com/sketch -->
    <title>facebook (2)</title>
    <desc>Created with Sketch.</desc>
    <defs></defs>
    <g id="设置-copy" stroke="none" stroke-width="1" fill="none" fill-rule="evenodd" transform="translate(-153.000000, -413.000000)">
        <g id="Group" transform="translate(16.000000, 89.000000)" fill="#2C799F" fill-rule="nonzero">
            <g id="facebook-(2)" transform="translate(137.000000, 324.000000)">
                <path d="M30,15 C30,6.7159091 23.2840909,0 15,0 C6.7159091,0 0,6.7159091 0,15 C0,23.2840909 6.7159091,30 15,30 C23.2840909,30 30,23.2840909 30,15 Z M10.9718182,15 L10.9718182,12.1295454 L12.7309091,12.1295454 L12.7309091,10.3936364 C12.7309091,8.05227275 13.4304546,6.36545455 15.9940909,6.36545455 L19.0431818,6.36545455 L19.0431818,9.22909093 L16.8968182,9.22909093 C15.8209091,9.22909093 15.5768182,9.94363638 15.5768182,10.6922728 L15.5768182,12.1295455 L18.885,12.1295455 L18.4336364,15 L15.5768182,15 L15.5768182,23.6577273 L12.7309091,23.6577273 L12.7309091,15 L10.9718182,15 Z" id="Shape"></path>
            </g>
        </g>
    </g>
</svg>