<?xml version="1.0" encoding="UTF-8"?>
<svg width="175px" height="42px" viewBox="0 0 175 42" version="1.1" xmlns="http://www.w3.org/2000/svg" xmlns:xlink="http://www.w3.org/1999/xlink">
    <!-- Generator: Sketch 48.1 (47250) - http://www.bohemiancoding.com/sketch -->
    <title>失败和不足</title>
    <desc>Created with Sketch.</desc>
    <defs>
        <filter x="-39.8%" y="-34.9%" width="179.7%" height="169.7%" filterUnits="objectBoundingBox" id="filter-1">
            <feGaussianBlur stdDeviation="3.37053571" in="SourceGraphic"></feGaussianBlur>
        </filter>
    </defs>
    <g id="iPhone-8-Copy-17" stroke="none" stroke-width="1" fill="none" fill-rule="evenodd" transform="translate(-15.000000, -188.000000)">
        <g id="失败和不足" transform="translate(16.000000, 189.000000)">
            <path d="M87.3811872,-66.1726709 L105.475956,-55.6991333 C106.065436,-55.3579326 106.428571,-54.7273676 106.428571,-54.0449662 L106.428571,94.0449662 C106.428571,94.7273676 106.065436,95.3579326 105.475956,95.6991333 L87.3811872,106.172671 C86.7917065,106.513872 86.0654364,106.513872 85.4759557,106.172671 L67.3811872,95.6991333 C66.7917065,95.3579326 66.4285714,94.7273676 66.4285714,94.0449662 L66.4285714,-54.0449662 C66.4285714,-54.7273676 66.7917065,-55.3579326 67.3811872,-55.6991333 L85.4759557,-66.1726709 C86.0654364,-66.5138716 86.7917065,-66.5138716 87.3811872,-66.1726709 Z" id="Combined-Shape-Copy-2" stroke="#17416B" stroke-width="0.5" fill="#09192B" fill-rule="nonzero" transform="translate(86.428571, 20.000000) rotate(-270.000000) translate(-86.428571, -20.000000) "></path>
            <g id="Group-2" transform="translate(15.000000, 7.000000)">
                <path d="M15.1043156,-1.65016309 L26.5831844,4.99398732 C26.9571362,5.21043653 27.1875,5.61045117 27.1875,6.04334958 L27.1875,19.3316504 C27.1875,19.7645488 26.9571362,20.1645635 26.5831844,20.3810127 L15.1043156,27.0251631 C14.7303638,27.2416123 14.2696362,27.2416123 13.8956844,27.0251631 L2.41681562,20.3810127 C2.04286381,20.1645635 1.8125,19.7645488 1.8125,19.3316504 L1.8125,6.04334958 C1.8125,5.61045117 2.04286381,5.21043653 2.41681562,4.99398732 L13.8956844,-1.65016309 C14.2696362,-1.8666123 14.7303638,-1.8666123 15.1043156,-1.65016309 Z" id="Combined-Shape-Copy-3" fill="#FCAE00" fill-rule="nonzero" filter="url(#filter-1)" transform="translate(14.500000, 12.687500) rotate(-270.000000) translate(-14.500000, -12.687500) "></path>
                <path d="M15.1043156,-1.65016309 L26.5831844,4.99398732 C26.9571362,5.21043653 27.1875,5.61045117 27.1875,6.04334958 L27.1875,19.3316504 C27.1875,19.7645488 26.9571362,20.1645635 26.5831844,20.3810127 L15.1043156,27.0251631 C14.7303638,27.2416123 14.2696362,27.2416123 13.8956844,27.0251631 L2.41681562,20.3810127 C2.04286381,20.1645635 1.8125,19.7645488 1.8125,19.3316504 L1.8125,6.04334958 C1.8125,5.61045117 2.04286381,5.21043653 2.41681562,4.99398732 L13.8956844,-1.65016309 C14.2696362,-1.8666123 14.7303638,-1.8666123 15.1043156,-1.65016309 Z" id="Combined-Shape-Copy-3" fill="#FCAE00" fill-rule="nonzero" transform="translate(14.500000, 12.687500) rotate(-270.000000) translate(-14.500000, -12.687500) "></path>
                <path d="M13,6 L17,6 L16,14 L14,14 L13,6 Z M13,16 L14,15 L16,15 L17,16 L17,18 L16,19 L14,19 L13,18 L13,16 Z" id="Combined-Shape" fill="#000000"></path>
            </g>
        </g>
    </g>
</svg>
