<?xml version="1.0" encoding="UTF-8"?>
<svg width="14px" height="14px" viewBox="0 0 14 14" version="1.1" xmlns="http://www.w3.org/2000/svg" xmlns:xlink="http://www.w3.org/1999/xlink">
    <!-- Generator: Sketch 48.1 (47250) - http://www.bohemiancoding.com/sketch -->
    <title>音乐</title>
    <desc>Created with Sketch.</desc>
    <defs></defs>
    <g id="设置-copy" stroke="none" stroke-width="1" fill="none" fill-rule="evenodd" transform="translate(-36.000000, -154.000000)">
        <g id="Group" transform="translate(16.000000, 89.000000)" fill="#2C799F" fill-rule="nonzero">
            <g id="音乐" transform="translate(20.000000, 65.000000)">
                <path d="M2.4469549,13.9526727 C1.11225222,13.9526727 0,12.8721991 0,11.5057178 C0,10.1392365 1.0804736,9.05876287 2.4469549,9.05876287 C2.98719169,9.05876287 3.49564986,9.24943467 3.94055075,9.56722104 L4.06766529,9.66255694 L4.06766529,1.81323407 C4.06766529,1.33655454 4.44900891,0.955210918 4.8939098,0.955210932 L13.061019,0.0018518774 L13.1245763,0.0018518774 C13.5694772,-0.0299267615 13.9825994,0.351416863 13.9825994,0.82809639 L13.9825994,10.0121219 C13.9825994,10.6794733 13.7283703,11.2832673 13.2516908,11.7281682 C12.8067899,12.1730691 12.1712172,12.4272982 11.5356445,12.4272982 C10.2009419,12.4272982 9.08868963,11.3468246 9.08868963,9.98034329 C9.08868963,8.64564061 10.1691632,7.53338838 11.5356445,7.53338838 C12.0758813,7.53338838 12.6161181,7.72406019 13.0292404,8.04184655 L13.1563549,8.13718245 L13.1563549,3.87884535 L4.8939098,4.76864714 L4.8939098,11.5057178 C4.86213116,12.8721991 3.78165758,13.9526727 2.4469549,13.9526727 Z M2.4469549,9.91678602 C1.55715312,9.91678602 0.826244513,10.6476946 0.826244513,11.5374964 C0.826244513,12.4272982 1.55715312,13.1582068 2.4469549,13.1582068 C3.33675668,13.1582068 4.06766529,12.4272982 4.06766529,11.5374964 C4.03588665,10.615916 3.33675668,9.91678602 2.4469549,9.91678602 Z M11.5356445,8.39141154 C10.6458428,8.39141154 9.91493414,9.12232015 9.91493414,10.0121219 C9.91493414,10.9019237 10.6458428,11.6328323 11.5356445,11.6328323 C12.4254463,11.6328323 13.1563549,10.9019237 13.1563549,10.0121219 C13.1563549,9.12232015 12.4254463,8.39141154 11.5356445,8.39141154 Z M4.86213116,3.94240262 L13.1245763,3.05260085 L13.1245763,0.796317752 L4.95746707,1.74967681 L4.86213116,1.74967681 L4.86213116,3.94240262 Z" id="Shape"></path>
            </g>
        </g>
    </g>
</svg>