<?xml version="1.0" encoding="UTF-8"?>
<svg width="50px" height="48px" viewBox="0 0 50 48" version="1.1" xmlns="http://www.w3.org/2000/svg" xmlns:xlink="http://www.w3.org/1999/xlink">
    <!-- Generator: Sketch 48.1 (47250) - http://www.bohemiancoding.com/sketch -->
    <title>红方-背景图</title>
    <desc>Created with Sketch.</desc>
    <defs></defs>
    <g id="主界面-copy-2" stroke="none" stroke-width="1" fill="none" fill-rule="evenodd" transform="translate(-79.000000, -206.000000)">
        <path d="M104,206 L106.173913,206 C106.898551,206 107.26087,206.543478 107.26087,207.630435 C107.26087,208.717391 107.26087,213.971014 107.26087,223.391304 L108.347826,223.391304 L109.434783,209.26087 C117.768116,210.347826 122.65942,214.152174 124.108696,220.673913 C126.826087,223.391304 127.369565,222.304348 129,231 C129,241.326087 127.913043,252.195652 120.304348,253.826087 C122.84058,250.565217 123.927536,248.210145 123.565217,246.76087 C121.753623,247.485507 121.028986,247.304348 121.391304,246.217391 C121.934783,244.586957 123.565217,235.347826 123.021739,231.543478 C122.297101,229.007246 115.956522,227.73913 104,227.73913 C92.0434783,227.73913 85.7028986,229.007246 84.9782609,231.543478 C84.4347826,235.347826 86.0652174,244.586957 86.6086957,246.217391 C86.9710145,247.304348 86.2463768,247.485507 84.4347826,246.76087 C84.0724638,248.210145 85.1594203,250.565217 87.6956522,253.826087 C80.0869565,252.195652 79,241.326087 79,231 C80.6304348,222.304348 81.173913,223.391304 83.8913043,220.673913 C85.3405797,214.152174 90.2318841,210.347826 98.5652174,209.26087 L99.6521739,223.391304 L100.73913,223.391304 C100.73913,213.971014 100.73913,208.717391 100.73913,207.630435 C100.73913,206.543478 101.101449,206 101.826087,206 L104,206 Z M104,229.913043 C113.42029,229.913043 119.036232,230.637681 120.847826,232.086957 C123.565217,234.26087 120.847826,244.586957 114.869565,244.586957 C110.884058,244.586957 107.26087,242.956522 104,239.695652 C100.718376,242.956522 97.0848111,244.586957 93.0993039,244.586957 C87.121043,244.586957 84.4036517,234.26087 87.121043,232.086957 C88.9326372,230.637681 94.5589562,229.913043 104,229.913043 Z" id="红方-背景图" fill="#051523"></path>
    </g>
</svg>