<?xml version="1.0" encoding="UTF-8"?>
<svg width="30px" height="44px" viewBox="0 0 30 44" version="1.1" xmlns="http://www.w3.org/2000/svg" xmlns:xlink="http://www.w3.org/1999/xlink">
    <!-- Generator: Sketch 48.1 (47250) - http://www.bohemiancoding.com/sketch -->
    <title>红方-默认卡牌</title>
    <desc>Created with Sketch.</desc>
    <defs></defs>
    <g id="win" stroke="none" stroke-width="1" fill="none" fill-rule="evenodd" transform="translate(-70.000000, -67.000000)">
        <g id="红方-默认卡牌" transform="translate(70.000000, 67.000000)">
            <rect id="Rectangle" fill="#02192C" x="0" y="0" width="30" height="44" rx="3"></rect>
            <path d="M4.02985075,37.0765174 C5.24944673,37.2509669 6.24255724,38.1275088 6.58662149,39.2835821 L23.8611397,39.2835821 C24.162012,38.272636 24.9592032,37.4754448 25.9701493,37.1745725 L25.9701493,7.13886029 C24.9592032,6.83798803 24.162012,6.04079681 23.8611397,5.02985075 L6.13886029,5.02985075 C5.83798803,6.04079681 5.04079681,6.83798803 4.02985075,7.13886029 L4.02985075,37.0765174 Z M3.58208955,37.9402985 C3.42874664,37.9402985 3.27900445,37.955715 3.13432836,37.9850827 L3.13432836,6.37313433 C4.37078675,6.37313433 5.37313433,5.37078675 5.37313433,4.13432836 L24.6268657,4.13432836 C24.6268657,5.37078675 25.6292132,6.37313433 26.8656716,6.37313433 L26.8656716,37.9402985 C25.6292132,37.9402985 24.6268657,38.9426461 24.6268657,40.1791045 L5.82089552,40.1791045 C5.82089552,38.9426461 4.81854795,37.9402985 3.58208955,37.9402985 Z" id="Combined-Shape" fill="#B90817" fill-rule="nonzero"></path>
            <path d="M15,13.5373134 L15.7787151,13.5373134 C16.0382868,13.5373134 16.1680727,13.7319922 16.1680727,14.1213498 C16.1680727,14.5107073 16.1680727,16.3926022 16.1680727,19.7670344 L16.5574302,19.7670344 L16.9467878,14.7053861 C19.9318624,15.0947437 21.6839714,16.4574951 22.2031149,18.7936405 C23.1765088,19.7670344 23.3711875,19.3776768 23.9552239,22.4925373 C23.9552239,26.1914341 23.5658663,30.0850097 20.8403634,30.6690461 C21.7488644,29.5009734 22.1382219,28.6573653 22.0084361,28.1382219 C21.3595068,28.3977936 21.0999351,28.3329007 21.229721,27.9435432 C21.4243997,27.3595068 22.0084361,24.0499676 21.8137573,22.6872161 C21.5541856,21.7787151 19.2829332,21.3244646 15,21.3244646 C10.7170668,21.3244646 8.44581441,21.7787151 8.1862427,22.6872161 C7.99156392,24.0499676 8.57560026,27.3595068 8.77027904,27.9435432 C8.90006489,28.3329007 8.64049319,28.3977936 7.99156392,28.1382219 C7.86177807,28.6573653 8.25113563,29.5009734 9.1596366,30.6690461 C6.43413368,30.0850097 6.04477612,26.1914341 6.04477612,22.4925373 C6.62881246,19.3776768 6.82349124,19.7670344 7.79688514,18.7936405 C8.31602855,16.4574951 10.0681376,15.0947437 13.0532122,14.7053861 L13.4425698,19.7670344 L13.8319273,19.7670344 C13.8319273,16.3926022 13.8319273,14.5107073 13.8319273,14.1213498 C13.8319273,13.7319922 13.9617132,13.5373134 14.2212849,13.5373134 L15,13.5373134 Z M15,22.1031798 C18.3744322,22.1031798 20.3861129,22.3627515 21.0350422,22.8818949 C22.0084361,23.66061 21.0350422,27.3595068 18.8935756,27.3595068 C17.4659312,27.3595068 16.1680727,26.7754705 15,25.6073978 C13.8244931,26.7754705 12.5229174,27.3595068 11.095273,27.3595068 C8.95380644,27.3595068 7.98041254,23.66061 8.95380644,22.8818949 C9.60273571,22.3627515 11.6181336,22.1031798 15,22.1031798 Z" id="Combined-Shape" fill="#B90817"></path>
        </g>
    </g>
</svg>
