<?xml version="1.0" encoding="UTF-8"?>
<svg width="159px" height="48px" viewBox="0 0 159 48" version="1.1" xmlns="http://www.w3.org/2000/svg" xmlns:xlink="http://www.w3.org/1999/xlink">
    <!-- Generator: Sketch 48.1 (47250) - http://www.bohemiancoding.com/sketch -->
    <title>REVEAL 发光</title>
    <desc>Created with Sketch.</desc>
    <defs>
        <filter x="-10.0%" y="-53.2%" width="120.0%" height="206.5%" filterUnits="objectBoundingBox" id="filter-1">
            <feGaussianBlur stdDeviation="4.58147321" in="SourceGraphic"></feGaussianBlur>
        </filter>
    </defs>
    <g id="提示-等待下注" stroke="none" stroke-width="1" fill="none" fill-rule="evenodd" transform="translate(-119.000000, -331.000000)">
        <g id="Group-8-Copy" transform="translate(77.000000, 284.000000)" fill="#EF9903">
            <g id="Group-15" transform="translate(52.000000, 58.000000)">
                <path d="M7.44251297,0.297310329 L18.818513,0.297310329 C21.410513,0.297310329 23.3477274,0.87586016 24.5487321,2.06911918 C25.7934646,3.3708563 26.1048356,5.21498389 25.4639969,7.67382066 C25.1058811,9.04787651 24.4348859,10.2411355 23.441587,11.2897571 C22.3120158,12.4468568 20.9981098,13.2062034 19.4998688,13.5677971 C21.6530832,14.1463469 22.5172711,15.6650402 22.1455842,18.1961957 L21.5032369,22.3183632 C21.2325766,23.9093753 21.4067331,25.174953 22.0257066,26.1150965 L17.7777066,26.1150965 C17.3730367,25.3195905 17.3146079,24.1624908 17.5475718,22.7161163 L18.0623166,19.4979328 C18.2952806,18.0515582 18.0911553,17.039096 17.5047891,16.3882275 C16.8824229,15.7373589 15.8418157,15.448084 14.3658157,15.448084 L7.41781566,15.448084 L4.63770657,26.1150965 L0.713706575,26.1150965 L7.44251297,0.297310329 Z M10.4900718,3.66013122 L8.29425683,12.0852631 L15.2422568,12.0852631 C16.9702568,12.0852631 18.3699219,11.6875101 19.4224039,10.9643228 C20.4388859,10.2411355 21.1441847,9.19251397 21.5023005,7.81845812 C21.8792644,6.37208355 21.7205633,5.32346198 21.098197,4.67259342 C20.4132549,3.9855655 19.2020718,3.66013122 17.4020718,3.66013122 L10.4900718,3.66013122 Z M32.354513,0.297310329 L50.822513,0.297310329 L49.9460718,3.66013122 L35.4020718,3.66013122 L33.4418593,11.181279 L47.1218593,11.181279 L46.2454181,14.5440999 L32.5654181,14.5440999 L30.4261477,22.7522756 L45.5821477,22.7522756 L44.7057066,26.1150965 L25.6257066,26.1150965 L32.354513,0.297310329 Z M53.090513,0.297310329 L57.338513,0.297310329 L59.0674466,21.703654 L59.1754466,21.703654 L72.026513,0.297310329 L76.274513,0.297310329 L60.3297066,26.1150965 L55.5777066,26.1150965 L53.090513,0.297310329 Z M78.974513,0.297310329 L97.442513,0.297310329 L96.5660718,3.66013122 L82.0220718,3.66013122 L80.0618593,11.181279 L93.7418593,11.181279 L92.8654181,14.5440999 L79.1854181,14.5440999 L77.0461477,22.7522756 L92.2021477,22.7522756 L91.3257066,26.1150965 L72.2457066,26.1150965 L78.974513,0.297310329 Z M109.430513,0.297310329 L113.894513,0.297310329 L117.065707,26.1150965 L112.853707,26.1150965 L112.175741,19.4617735 L101.123741,19.4617735 L96.9777066,26.1150965 L92.8017066,26.1150965 L109.430513,0.297310329 Z M103.15991,16.2074307 L111.83591,16.2074307 L110.631893,4.52795596 L110.487893,4.52795596 L103.15991,16.2074307 Z M126.314513,0.297310329 L130.202513,0.297310329 L124.350148,22.7522756 L138.498148,22.7522756 L137.621707,26.1150965 L119.585707,26.1150965 L126.314513,0.297310329 Z" id="REVEAL-发光" filter="url(#filter-1)"></path>
            </g>
        </g>
    </g>
</svg>