<?xml version="1.0" encoding="UTF-8"?>
<svg width="68px" height="80px" viewBox="0 0 68 80" version="1.1" xmlns="http://www.w3.org/2000/svg" xmlns:xlink="http://www.w3.org/1999/xlink">
    <!-- Generator: Sketch 48.1 (47250) - http://www.bohemiancoding.com/sketch -->
    <title>沙漏</title>
    <desc>Created with Sketch.</desc>
    <defs>
        <filter x="-128.3%" y="-100.8%" width="356.7%" height="301.7%" filterUnits="objectBoundingBox" id="filter-1">
            <feGaussianBlur stdDeviation="10" in="SourceGraphic"></feGaussianBlur>
        </filter>
    </defs>
    <g id="提示-等待下注" stroke="none" stroke-width="1" fill="none" fill-rule="evenodd" transform="translate(-72.000000, -316.000000)">
        <g id="Group-8-Copy" transform="translate(77.000000, 284.000000)" fill-rule="nonzero" stroke-width="0.5">
            <g id="沙漏" transform="translate(17.000000, 57.000000)">
                <g id="禁止-(1)">
                    <path d="M4.28989954,27.8571429 L4.28989954,23.1428571 C4.28989954,22.2857143 4.71847096,21.4285714 5.36132812,20.5714286 C6.21847099,19.5 7.07561385,18.8571429 8.36132812,18 C9.00418526,17.5714286 9.43275671,17.1428571 9.86132812,16.7142857 C10.5041853,16.0714286 10.718471,15.4285714 10.718471,15 C10.718471,14.5714286 10.5041853,13.9285714 10.0756138,13.2857143 C9.64704243,13.2857143 9.43275671,12.8571429 9.00418526,12.6428571 L8.78989954,12.4285714 C7.71847096,11.7857143 6.86132812,10.9285714 6.00418526,10.2857143 C5.1470424,9.64285714 4.71847099,9 4.50418526,8.14285714 C4.28989954,7.71428572 4.28989954,7.5 4.28989954,7.28571428 L4.28989954,2.14285714 L19.2898995,2.14285714 L19.2898995,6.64285714 C19.2898995,8.35714286 18.8613281,9.64285714 17.7898995,10.5 L15.8613281,11.7857143 L14.5756138,12.6428571 C14.3613281,13.0714286 13.9327567,13.2857143 13.718471,13.5 C13.0756138,14.1428571 12.8613281,14.5714286 12.8613281,15.2142857 C12.8613281,15.8571429 13.0756138,16.2857143 13.718471,16.9285714 C14.3613281,17.3571428 14.7898996,17.7857143 15.4327567,18.2142857 L15.6470424,18.4285714 C16.718471,19.0714286 17.5756138,19.9285714 18.4327567,20.7857143 C19.0756138,21.4285714 19.2898996,22.0714286 19.2898995,23.1428571 L19.2898995,27.8571429 L4.28989954,27.8571429 Z M22.5041853,27.8571429 L21.4327567,27.8571429 L21.4327567,26.7857143 L21.4327567,23.1428571 C21.4327567,21.6428571 21.0041853,20.3571429 20.1470424,19.2857143 C19.2898995,18.2142857 18.0041853,17.3571429 16.9327567,16.5 L16.718471,16.5 C16.2898996,16.0714286 15.6470424,15.6428571 15.0041853,15.2142857 L15.218471,15 C15.4327567,14.7857143 15.6470424,14.5714286 16.0756138,14.3571429 L17.1470424,13.5 C17.7898995,13.0714286 18.4327567,12.4285714 19.0756138,12 C20.7898995,10.7142857 21.4327567,8.78571428 21.4327567,6.42857142 L21.4327567,2.14285714 L22.5041853,2.14285714 C23.1470424,2.14285714 23.5756138,1.71428572 23.5756138,1.07142858 C23.5756138,0.428571445 23.1470424,0 22.5041853,0 L1.07561385,0 C0.432756709,0 0.00418526367,0.428571416 0.00418526367,1.07142858 C0.00418526367,1.71428575 0.43275668,2.14285717 1.07561385,2.14285714 L2.1470424,2.14285714 L2.1470424,7.28571428 C2.1470424,7.71428569 2.1470424,8.14285714 2.36132812,8.57142858 C2.78989954,9.85714286 3.43275671,10.9285714 4.50418526,11.7857143 C5.57561385,12.6428571 6.43275668,13.5 7.50418526,14.1428571 L7.71847099,14.3571429 C7.93275671,14.5714286 8.1470424,14.7857143 8.57561385,15 C8.14704243,15.4285714 7.71847099,15.8571429 7.07561385,16.0714286 C5.78989957,17.1428572 4.71847099,18 3.86132812,19.0714286 C2.78989954,20.3571429 2.1470424,21.6428572 2.1470424,23.1428571 L2.1470424,27.8571429 L1.07561385,27.8571429 C0.432756709,27.8571429 0.00418526367,28.2857143 0.00418526367,28.9285714 C0.00418526367,29.5714286 0.43275668,30 1.07561385,30 L22.5041853,30 C23.1470424,30 23.5756138,29.5714286 23.5756138,28.9285714 C23.5756138,28.2857142 23.1470424,27.8571428 22.5041853,27.8571429 Z M16.0756138,23.5714286 L7.50418526,23.5714286 C6.86132812,23.5714286 6.43275668,24 6.43275671,24.6428571 C6.43275674,25.2857143 6.86132812,25.7142857 7.50418526,25.7142857 L16.0756138,25.7142857 C16.718471,25.7142857 17.1470424,25.2857143 17.1470424,24.6428571 C17.1470424,24 16.718471,23.5714286 16.0756138,23.5714286 Z" id="Shape" stroke="#EC9603" fill="#EC9603" filter="url(#filter-1)"></path>
                    <path d="M4.28989954,27.8571429 L4.28989954,23.1428571 C4.28989954,22.2857143 4.71847096,21.4285714 5.36132812,20.5714286 C6.21847099,19.5 7.07561385,18.8571429 8.36132812,18 C9.00418526,17.5714286 9.43275671,17.1428571 9.86132812,16.7142857 C10.5041853,16.0714286 10.718471,15.4285714 10.718471,15 C10.718471,14.5714286 10.5041853,13.9285714 10.0756138,13.2857143 C9.64704243,13.2857143 9.43275671,12.8571429 9.00418526,12.6428571 L8.78989954,12.4285714 C7.71847096,11.7857143 6.86132812,10.9285714 6.00418526,10.2857143 C5.1470424,9.64285714 4.71847099,9 4.50418526,8.14285714 C4.28989954,7.71428572 4.28989954,7.5 4.28989954,7.28571428 L4.28989954,2.14285714 L19.2898995,2.14285714 L19.2898995,6.64285714 C19.2898995,8.35714286 18.8613281,9.64285714 17.7898995,10.5 L15.8613281,11.7857143 L14.5756138,12.6428571 C14.3613281,13.0714286 13.9327567,13.2857143 13.718471,13.5 C13.0756138,14.1428571 12.8613281,14.5714286 12.8613281,15.2142857 C12.8613281,15.8571429 13.0756138,16.2857143 13.718471,16.9285714 C14.3613281,17.3571428 14.7898996,17.7857143 15.4327567,18.2142857 L15.6470424,18.4285714 C16.718471,19.0714286 17.5756138,19.9285714 18.4327567,20.7857143 C19.0756138,21.4285714 19.2898996,22.0714286 19.2898995,23.1428571 L19.2898995,27.8571429 L4.28989954,27.8571429 Z M22.5041853,27.8571429 L21.4327567,27.8571429 L21.4327567,26.7857143 L21.4327567,23.1428571 C21.4327567,21.6428571 21.0041853,20.3571429 20.1470424,19.2857143 C19.2898995,18.2142857 18.0041853,17.3571429 16.9327567,16.5 L16.718471,16.5 C16.2898996,16.0714286 15.6470424,15.6428571 15.0041853,15.2142857 L15.218471,15 C15.4327567,14.7857143 15.6470424,14.5714286 16.0756138,14.3571429 L17.1470424,13.5 C17.7898995,13.0714286 18.4327567,12.4285714 19.0756138,12 C20.7898995,10.7142857 21.4327567,8.78571428 21.4327567,6.42857142 L21.4327567,2.14285714 L22.5041853,2.14285714 C23.1470424,2.14285714 23.5756138,1.71428572 23.5756138,1.07142858 C23.5756138,0.428571445 23.1470424,0 22.5041853,0 L1.07561385,0 C0.432756709,0 0.00418526367,0.428571416 0.00418526367,1.07142858 C0.00418526367,1.71428575 0.43275668,2.14285717 1.07561385,2.14285714 L2.1470424,2.14285714 L2.1470424,7.28571428 C2.1470424,7.71428569 2.1470424,8.14285714 2.36132812,8.57142858 C2.78989954,9.85714286 3.43275671,10.9285714 4.50418526,11.7857143 C5.57561385,12.6428571 6.43275668,13.5 7.50418526,14.1428571 L7.71847099,14.3571429 C7.93275671,14.5714286 8.1470424,14.7857143 8.57561385,15 C8.14704243,15.4285714 7.71847099,15.8571429 7.07561385,16.0714286 C5.78989957,17.1428572 4.71847099,18 3.86132812,19.0714286 C2.78989954,20.3571429 2.1470424,21.6428572 2.1470424,23.1428571 L2.1470424,27.8571429 L1.07561385,27.8571429 C0.432756709,27.8571429 0.00418526367,28.2857143 0.00418526367,28.9285714 C0.00418526367,29.5714286 0.43275668,30 1.07561385,30 L22.5041853,30 C23.1470424,30 23.5756138,29.5714286 23.5756138,28.9285714 C23.5756138,28.2857142 23.1470424,27.8571428 22.5041853,27.8571429 Z M16.0756138,23.5714286 L7.50418526,23.5714286 C6.86132812,23.5714286 6.43275668,24 6.43275671,24.6428571 C6.43275674,25.2857143 6.86132812,25.7142857 7.50418526,25.7142857 L16.0756138,25.7142857 C16.718471,25.7142857 17.1470424,25.2857143 17.1470424,24.6428571 C17.1470424,24 16.718471,23.5714286 16.0756138,23.5714286 Z" id="Shape" stroke="#FFFCDA" fill="#FFFCDA" transform="translate(11.789900, 15.000000) rotate(-360.000000) translate(-11.789900, -15.000000) "></path>
                </g>
            </g>
        </g>
    </g>
</svg>