<?xml version="1.0" encoding="UTF-8"?>
<svg width="16px" height="16px" viewBox="0 0 16 16" version="1.1" xmlns="http://www.w3.org/2000/svg" xmlns:xlink="http://www.w3.org/1999/xlink">
    <!-- Generator: Sketch 48.1 (47250) - http://www.bohemiancoding.com/sketch -->
    <title>用户名@3x</title>
    <desc>Created with Sketch.</desc>
    <defs></defs>
    <g id="主界面-copy-2" stroke="none" stroke-width="1" fill="none" fill-rule="evenodd" transform="translate(-132.000000, -634.000000)">
        <g id="用户名" transform="translate(133.000000, 635.000000)">
            <circle id="Oval" stroke="#AED7F1" stroke-width="0.5" cx="7" cy="7" r="7"></circle>
            <g id="我的-(1)" transform="translate(2.500000, 2.000000)" fill="#AED7F1" fill-rule="nonzero">
                <path d="M7.98936931,8.7795999 C7.98933844,8.92688322 7.86993306,9.04626357 7.72264974,9.04626357 C7.57536642,9.04626357 7.45596104,8.92688322 7.45593016,8.77958942 C7.45593014,7.13153083 6.11991467,5.79551539 4.47185609,5.79551539 C2.8237975,5.79551539 1.48778203,7.13153083 1.48778201,8.7795999 C1.48775113,8.92688322 1.36834576,9.04626357 1.22106243,9.04626357 C1.07377911,9.04626357 0.954373733,8.92688322 0.954342872,8.77955129 C0.955578206,7.15967377 2.0629173,5.75008556 3.63017653,5.46052573 C2.58377002,5.05299905 1.97585,3.95813297 2.18317752,2.85447547 C2.39050504,1.75081797 3.35431166,0.951208509 4.47727408,0.951208509 C5.60023649,0.951208509 6.56404311,1.75081797 6.77137063,2.85447547 C6.96965277,3.90998209 6.42227159,4.95744767 5.45879575,5.40331786 C6.9528211,5.83947382 7.98938004,7.21163261 7.98936931,8.7795999 Z M4.48485926,5.08870053 C5.47940545,5.08870053 6.28564444,4.28246155 6.28564444,3.28791536 C6.28564444,2.29336916 5.47940546,1.48713017 4.48485926,1.48713017 C3.49032281,1.48713017 2.68408987,2.29335336 2.68407408,3.28788612 C2.68525183,4.28196946 3.49083067,5.08753857 4.48485926,5.08870053 Z" id="Shape"></path>
            </g>
        </g>
    </g>
</svg>