<?xml version="1.0" encoding="UTF-8"?>
<svg width="16px" height="14px" viewBox="0 0 16 14" version="1.1" xmlns="http://www.w3.org/2000/svg" xmlns:xlink="http://www.w3.org/1999/xlink">
    <!-- Generator: Sketch 48.1 (47250) - http://www.bohemiancoding.com/sketch -->
    <title>所有人列表-红方@3x</title>
    <desc>Created with Sketch.</desc>
    <defs>
        <radialGradient cx="50%" cy="50%" fx="50%" fy="50%" r="56.4540351%" gradientTransform="translate(0.500000,0.500000),scale(1.000000,0.875000),rotate(-90.000000),translate(-0.500000,-0.500000)" id="radialGradient-1">
            <stop stop-color="#7A030B" offset="0%"></stop>
            <stop stop-color="#4B020B" offset="100%"></stop>
        </radialGradient>
        <linearGradient x1="50%" y1="0.807158801%" x2="50%" y2="100%" id="linearGradient-2">
            <stop stop-color="#B90817" offset="0%"></stop>
            <stop stop-color="#E70D24" offset="100%"></stop>
        </linearGradient>
    </defs>
    <g id="主界面-copy-2" stroke="none" stroke-width="1" fill="none" fill-rule="evenodd" transform="translate(-136.000000, -67.000000)">
        <g id="顶部-红方" transform="translate(16.000000, 56.000000)">
            <g id="所有人列表-红方" transform="translate(121.000000, 12.000000)">
                <path d="M7.21916814,-0.78870206 L12.7055394,2.38689624 C12.8842712,2.49034901 12.9943745,2.6815376 12.9943745,2.88844314 L12.9943745,9.23963974 C12.9943745,9.44654527 12.8842712,9.63773387 12.7055394,9.74118664 L7.21916814,12.9167849 C7.04043638,13.0202377 6.82022977,13.0202377 6.641498,12.9167849 L1.15512671,9.74118664 C0.976394941,9.63773387 0.866291634,9.44654527 0.866291634,9.23963974 L0.866291634,2.88844314 C0.866291634,2.6815376 0.976394941,2.49034901 1.15512671,2.38689624 L6.641498,-0.78870206 C6.82022977,-0.892154826 7.04043638,-0.892154826 7.21916814,-0.78870206 Z" id="Combined-Shape-Copy-2" stroke="#881320" fill="#4A020B" fill-rule="nonzero" transform="translate(6.930333, 6.064041) rotate(-270.000000) translate(-6.930333, -6.064041) "></path>
                <path d="M7.19474459,-0.209242131 L12.2171948,2.69783131 C12.3808132,2.79253624 12.4816063,2.96755815 12.4816063,3.15696799 L12.4816063,8.97111489 C12.4816063,9.16052473 12.3808132,9.33554664 12.2171948,9.43025156 L7.19474459,12.337325 C7.03112617,12.4320299 6.82953997,12.4320299 6.66592156,12.337325 L1.64347136,9.43025156 C1.47985295,9.33554664 1.37905984,9.16052473 1.37905984,8.97111489 L1.37905984,3.15696799 C1.37905984,2.96755815 1.47985295,2.79253624 1.64347136,2.69783131 L6.66592156,-0.209242131 C6.82953997,-0.303947053 7.03112617,-0.303947053 7.19474459,-0.209242131 Z" id="Combined-Shape-Copy-2" stroke="#070A18" stroke-width="0.5" fill="url(#radialGradient-1)" fill-rule="nonzero" transform="translate(6.930333, 6.064041) rotate(-270.000000) translate(-6.930333, -6.064041) "></path>
                <path d="M7,2.33333333 L7.7109375,3.04427083 C7.47395833,3.41290509 7.35546875,3.7025463 7.35546875,3.91319444 C7.35546875,4.22916667 7.39496528,3.83420139 7.94791667,3.36024306 C8.10590278,3.51822917 8.26388889,3.67621528 8.421875,3.83420139 C7.78993056,4.20283565 7.47395833,4.75578704 7.47395833,5.49305556 C7.47395833,6.59895833 8.10590278,6.75694444 8.421875,6.75694444 C8.73784722,6.75694444 9.84375,6.51996528 9.84375,5.09809028 C9.84375,3.67621528 8.88420491,2.86052175 9.05381944,3.04427083 C9.60677083,3.43923611 10.5546875,3.9921875 10.7916667,6.04600694 C10.7916667,8.41579861 8.89583333,9.91666667 7,9.91666667 C7,7.36255787 7,4.83478009 7,2.33333333 Z M7,2.33333333 C7,4.83478009 7,7.36255787 7,9.91666667 C5.10416667,9.91666667 3.20833333,8.41579861 3.20833333,6.04600694 C3.4453125,3.9921875 4.39322917,3.43923611 4.94618056,3.04427083 C5.11579509,2.86052175 4.15625,3.67621528 4.15625,5.09809028 C4.15625,6.51996528 5.26215278,6.75694444 5.578125,6.75694444 C5.89409722,6.75694444 6.52604167,6.59895833 6.52604167,5.49305556 C6.52604167,4.75578704 6.21006944,4.20283565 5.578125,3.83420139 C5.73611111,3.67621528 5.89409722,3.51822917 6.05208333,3.36024306 C6.60503472,3.83420139 6.64453125,4.22916667 6.64453125,3.91319444 C6.64453125,3.7025463 6.52604167,3.41290509 6.2890625,3.04427083 L7,2.33333333 Z" id="Combined-Shape" fill="url(#linearGradient-2)"></path>
            </g>
        </g>
    </g>
</svg>
