<?xml version="1.0" encoding="UTF-8"?>
<svg width="13px" height="12px" viewBox="0 0 13 12" version="1.1" xmlns="http://www.w3.org/2000/svg" xmlns:xlink="http://www.w3.org/1999/xlink">
    <!-- Generator: Sketch 48.1 (47250) - http://www.bohemiancoding.com/sketch -->
    <title>红蓝方</title>
    <desc>Created with Sketch.</desc>
    <defs>
        <radialGradient cx="50%" cy="46.0880865%" fx="50%" fy="46.0880865%" r="53.9119135%" gradientTransform="translate(0.500000,0.460881),scale(1.000000,0.875000),rotate(90.000000),translate(-0.500000,-0.460881)" id="radialGradient-1">
            <stop stop-color="#7A030B" offset="0%"></stop>
            <stop stop-color="#4B020B" offset="100%"></stop>
        </radialGradient>
        <radialGradient cx="50%" cy="163.864964%" fx="50%" fy="163.864964%" r="113.864964%" gradientTransform="translate(0.500000,1.638650),scale(0.547553,1.000000),rotate(-90.000000),translate(-0.500000,-1.638650)" id="radialGradient-2">
            <stop stop-color="#2F7CCD" offset="0%"></stop>
            <stop stop-color="#165190" offset="0%"></stop>
            <stop stop-color="#023060" offset="100%"></stop>
        </radialGradient>
    </defs>
    <g id="主界面-copy-4" stroke="none" stroke-width="1" fill="none" fill-rule="evenodd" transform="translate(-300.000000, -438.000000)">
        <g id="红蓝方" transform="translate(300.000000, 438.000000)" fill-rule="nonzero">
            <g id="平局">
                <path d="M6.50006164,0.0671738923 L11.2499384,2.81647751 C11.404677,2.9060427 11.5,3.071566 11.5,3.25069638 L11.5,8.74930362 C11.5,8.928434 11.404677,9.0939573 11.2499384,9.18352249 L6.50006164,11.9328261 C6.34532296,12.0223913 6.15467704,12.0223913 5.99993836,11.9328261 L1.25006164,9.18352249 C1.09532296,9.0939573 1,8.928434 1,8.74930362 L1,3.25069638 C1,3.071566 1.09532296,2.9060427 1.25006164,2.81647751 L5.99993836,0.0671738923 C6.15467704,-0.0223912974 6.34532296,-0.0223912974 6.50006164,0.0671738923 Z" id="Combined-Shape-Copy-7" fill="url(#radialGradient-1)" transform="translate(6.250000, 6.000000) rotate(-270.000000) translate(-6.250000, -6.000000) "></path>
                <path d="M9.62540983,3.19252208 L14.3752866,5.9418257 C14.5300252,6.03139089 14.6253482,6.19691419 14.6253482,6.37604457 L14.6253482,8.87465181 L4.12534819,8.87465181 L4.12534819,6.37604457 C4.12534819,6.19691419 4.22067115,6.03139089 4.37540983,5.9418257 L9.12528655,3.19252208 C9.28002523,3.10295689 9.47067115,3.10295689 9.62540983,3.19252208 Z" id="Combined-Shape-Copy-7" fill="url(#radialGradient-2)" transform="translate(9.375348, 6.000000) rotate(-270.000000) translate(-9.375348, -6.000000) "></path>
            </g>
        </g>
    </g>
</svg>
