<?xml version="1.0" encoding="UTF-8"?>
<svg width="100px" height="100px" viewBox="0 0 100 100" version="1.1" xmlns="http://www.w3.org/2000/svg" xmlns:xlink="http://www.w3.org/1999/xlink">
    <!-- Generator: Sketch 48.1 (47250) - http://www.bohemiancoding.com/sketch -->
    <title>win_bg</title>
    <desc>Created with Sketch.</desc>
    <defs>
        <linearGradient x1="50%" y1="0%" x2="50%" y2="100%" id="linearGradient-1">
            <stop stop-color="#42EDF8" stop-opacity="0" offset="0%"></stop>
            <stop stop-color="#42EDF8" offset="48.6093533%"></stop>
            <stop stop-color="#42EDF8" stop-opacity="0" offset="100%"></stop>
        </linearGradient>
    </defs>
    <g id="iPhone-8-Copy-7" stroke="none" stroke-width="1" fill="none" fill-rule="evenodd" transform="translate(-540.000000, -772.000000)" opacity="0.704710145">
        <g id="Group-14" transform="translate(540.000000, 772.000000)" fill="url(#linearGradient-1)">
            <g id="win_bg">
                <path d="M50.6289308,50 L56.918239,100 L43.081761,100 L49.3710692,50 L43.081761,0 L56.918239,0 L50.6289308,50 Z" id="Combined-Shape" opacity="0.695708786"></path>
                <path d="M50.6289308,50 L56.918239,100 L43.081761,100 L49.3710692,50 L43.081761,0 L56.918239,0 L50.6289308,50 Z" id="Combined-Shape" opacity="0.695708786" transform="translate(50.000000, 50.000000) rotate(-150.000000) translate(-50.000000, -50.000000) "></path>
                <path d="M50.6289308,50 L56.918239,100 L43.081761,100 L49.3710692,50 L43.081761,5.68434189e-14 L56.918239,5.68434189e-14 L50.6289308,50 Z" id="Combined-Shape" opacity="0.695708786" transform="translate(50.000000, 50.000000) rotate(-120.000000) translate(-50.000000, -50.000000) "></path>
                <path d="M50.6289308,50 L56.918239,100 L43.081761,100 L49.3710692,50 L43.081761,2.84217094e-14 L56.918239,2.84217094e-14 L50.6289308,50 Z" id="Combined-Shape" opacity="0.695708786" transform="translate(50.000000, 50.000000) rotate(-90.000000) translate(-50.000000, -50.000000) "></path>
                <path d="M50.6289308,50 L56.918239,100 L43.081761,100 L49.3710692,50 L43.081761,0 L56.918239,0 L50.6289308,50 Z" id="Combined-Shape" opacity="0.695708786" transform="translate(50.000000, 50.000000) rotate(-60.000000) translate(-50.000000, -50.000000) "></path>
                <path d="M50.6289308,50 L56.918239,100 L43.081761,100 L49.3710692,50 L43.081761,-2.84217094e-14 L56.918239,-2.84217094e-14 L50.6289308,50 Z" id="Combined-Shape" opacity="0.695708786" transform="translate(50.000000, 50.000000) rotate(-30.000000) translate(-50.000000, -50.000000) "></path>
            </g>
        </g>
    </g>
</svg>
