<?xml version="1.0" encoding="UTF-8"?>
<svg width="36px" height="39px" viewBox="0 0 36 39" version="1.1" xmlns="http://www.w3.org/2000/svg" xmlns:xlink="http://www.w3.org/1999/xlink">
    <!-- Generator: Sketch 48.1 (47250) - http://www.bohemiancoding.com/sketch -->
    <title>筹码-0.5@3x</title>
    <desc>Created with Sketch.</desc>
    <defs>
        <filter x="-10.3%" y="-19.2%" width="120.6%" height="138.4%" filterUnits="objectBoundingBox" id="filter-1">
            <feGaussianBlur stdDeviation="0.611049107" in="SourceGraphic"></feGaussianBlur>
        </filter>
    </defs>
    <g id="主界面-copy-2" stroke="none" stroke-width="1" fill="none" fill-rule="evenodd" transform="translate(-31.000000, -543.000000)">
        <g id="Group-9" transform="translate(23.000000, 539.000000)">
            <g id="筹码-0.5" transform="translate(0.098859, 0.000000)">
                <polygon id="Path-6" fill="#8BC306" points="25.7034221 3.95437262 25.7034221 8.40304183 38.5551331 16.8060837 43.0038023 13.8403042"></polygon>
                <polygon id="Path-6-Copy-5" fill="#BBE047" transform="translate(17.423954, 10.380228) scale(-1, 1) translate(-17.423954, -10.380228) " points="8.65019011 3.95437262 8.65019011 8.40304183 21.5019011 16.8060837 26.1977186 13.8403042"></polygon>
                <polygon id="Path-6-Copy" fill="#78AE0D" transform="translate(41.525030, 24.544516) rotate(-300.000000) translate(-41.525030, -24.544516) " points="32.87484 18.1186608 32.87484 22.56733 45.7265511 30.9703718 50.1752203 28.0045924"></polygon>
                <polygon id="Path-6-Copy-4" fill="#89C105" transform="translate(9.890049, 24.544516) scale(-1, 1) rotate(-300.000000) translate(-9.890049, -24.544516) " points="1.23985906 18.1186608 1.23985906 22.56733 14.0915701 30.9703718 18.5402393 28.0045924"></polygon>
                <polygon id="Path-6-Copy-2" fill="#89C105" transform="translate(33.356404, 37.578490) rotate(-240.000000) translate(-33.356404, -37.578490) " points="24.99091 31.4391345 24.9867924 35.8806718 38.0286932 43.7178449 41.7260159 41.6419181"></polygon>
                <polygon id="Path-6-Copy-3" fill="#BCE04A" transform="translate(18.016397, 37.541388) scale(-1, 1) rotate(-240.000000) translate(-18.016397, -37.541388) " points="9.62717829 31.2867363 9.62306067 35.7282736 22.5570729 43.7960392 26.4097335 41.5717046"></polygon>
                <polygon id="Polygon" fill="#D3EC79" points="25.8417263 8.40304183 39.3260382 16.1882129 39.3260382 31.7585551 25.8417263 39.5437262 12.3574144 31.7585551 12.3574144 16.1882129"></polygon>
                <path d="M20.661597,19.3131559 C21.7411407,19.3131559 22.5765019,19.7629658 23.1676806,20.6754373 C23.7074525,21.5236502 23.9773384,22.6546008 23.9773384,24.0811407 C23.9773384,25.4948289 23.7074525,26.6386312 23.1676806,27.4868441 C22.5765019,28.3864639 21.7411407,28.8491255 20.661597,28.8491255 C19.5820532,28.8491255 18.746692,28.3864639 18.1555133,27.4868441 C17.6157414,26.6386312 17.3458555,25.5076806 17.3458555,24.0811407 C17.3458555,22.641749 17.6157414,21.5107985 18.1555133,20.6754373 C18.746692,19.7629658 19.5820532,19.3131559 20.661597,19.3131559 Z M20.661597,20.4955133 C19.903346,20.4955133 19.3764259,20.9067681 19.0679848,21.7421293 C18.836654,22.3076046 18.7338403,23.0915589 18.7338403,24.0811407 C18.7338403,25.0578707 18.836654,25.8418251 19.0679848,26.4201521 C19.3764259,27.2426616 19.903346,27.6667681 20.661597,27.6667681 C21.4069962,27.6667681 21.9467681,27.2426616 22.2552091,26.4201521 C22.4736882,25.8418251 22.5893536,25.0578707 22.5893536,24.0811407 C22.5893536,23.0915589 22.4736882,22.3076046 22.2552091,21.7421293 C21.9467681,20.9067681 21.4069962,20.4955133 20.661597,20.4955133 Z M26.264943,26.8314068 C26.5219772,26.8314068 26.753308,26.9213688 26.9460837,27.1012928 C27.1260076,27.2812167 27.2288213,27.5125475 27.2288213,27.7952852 C27.2288213,28.0523194 27.1260076,28.2836502 26.9460837,28.4764259 C26.753308,28.6434981 26.5219772,28.7334601 26.264943,28.7334601 C25.9822053,28.7334601 25.7637262,28.6434981 25.596654,28.4764259 C25.4038783,28.2836502 25.3139163,28.0523194 25.3139163,27.7952852 C25.3139163,27.5125475 25.4038783,27.2812167 25.596654,27.1012928 C25.7637262,26.9213688 25.9822053,26.8314068 26.264943,26.8314068 Z M29.2336882,19.4930798 L34.759924,19.4930798 L34.759924,20.7268441 L30.3646388,20.7268441 L30.0947529,23.3742966 L30.133308,23.3742966 C30.4160456,23.0787072 30.7373384,22.8730798 31.110038,22.7445627 C31.4441825,22.6031939 31.8297338,22.5389354 32.2409886,22.5389354 C33.1020532,22.5389354 33.8088973,22.821673 34.3486692,23.3871483 C34.8884411,23.9526236 35.1711787,24.7237262 35.1711787,25.713308 C35.1711787,26.6643346 34.8113308,27.4354373 34.1173384,28.0394677 C33.4619011,28.5792395 32.6779468,28.8491255 31.7654753,28.8491255 C30.9429658,28.8491255 30.2361217,28.6177947 29.644943,28.1679848 C28.9895057,27.6796198 28.6296578,26.9984791 28.5653992,26.1502662 L29.9405323,26.1502662 C29.9919392,26.6643346 30.1975665,27.0627376 30.5445627,27.3197719 C30.8530038,27.5511027 31.2642586,27.6667681 31.778327,27.6667681 C32.3438023,27.6667681 32.8193156,27.4868441 33.2048669,27.1398479 C33.5904183,26.78 33.7831939,26.3173384 33.7831939,25.7261597 C33.7831939,25.0835741 33.6161217,24.5823574 33.2819772,24.2225095 C32.9478327,23.8626616 32.4851711,23.6827376 31.868289,23.6827376 C31.4570342,23.6827376 31.110038,23.7469962 30.801597,23.9012167 C30.4674525,24.0554373 30.22327,24.2996198 30.043346,24.6337643 L28.7324715,24.6337643 L29.2336882,19.4930798 Z" id="0.5" fill="#78AE0D" filter="url(#filter-1)"></path>
                <path d="M20.1673004,18.8188593 C21.2468441,18.8188593 22.0822053,19.2686692 22.673384,20.1811407 C23.2131559,21.0293536 23.4830418,22.1603042 23.4830418,23.5868441 C23.4830418,25.0005323 23.2131559,26.1443346 22.673384,26.9925475 C22.0822053,27.8921673 21.2468441,28.3548289 20.1673004,28.3548289 C19.0877567,28.3548289 18.2523954,27.8921673 17.6612167,26.9925475 C17.1214449,26.1443346 16.8515589,25.013384 16.8515589,23.5868441 C16.8515589,22.1474525 17.1214449,21.0165019 17.6612167,20.1811407 C18.2523954,19.2686692 19.0877567,18.8188593 20.1673004,18.8188593 Z M20.1673004,20.0012167 C19.4090494,20.0012167 18.8821293,20.4124715 18.5736882,21.2478327 C18.3423574,21.813308 18.2395437,22.5972624 18.2395437,23.5868441 C18.2395437,24.5635741 18.3423574,25.3475285 18.5736882,25.9258555 C18.8821293,26.748365 19.4090494,27.1724715 20.1673004,27.1724715 C20.9126996,27.1724715 21.4524715,26.748365 21.7609125,25.9258555 C21.9793916,25.3475285 22.095057,24.5635741 22.095057,23.5868441 C22.095057,22.5972624 21.9793916,21.813308 21.7609125,21.2478327 C21.4524715,20.4124715 20.9126996,20.0012167 20.1673004,20.0012167 Z M25.7706464,26.3371103 C26.0276806,26.3371103 26.2590114,26.4270722 26.4517871,26.6069962 C26.631711,26.7869202 26.7345247,27.018251 26.7345247,27.3009886 C26.7345247,27.5580228 26.631711,27.7893536 26.4517871,27.9821293 C26.2590114,28.1492015 26.0276806,28.2391635 25.7706464,28.2391635 C25.4879087,28.2391635 25.2694297,28.1492015 25.1023574,27.9821293 C24.9095817,27.7893536 24.8196198,27.5580228 24.8196198,27.3009886 C24.8196198,27.018251 24.9095817,26.7869202 25.1023574,26.6069962 C25.2694297,26.4270722 25.4879087,26.3371103 25.7706464,26.3371103 Z M28.7393916,18.9987833 L34.2656274,18.9987833 L34.2656274,20.2325475 L29.8703422,20.2325475 L29.6004563,22.88 L29.6390114,22.88 C29.921749,22.5844106 30.2430418,22.3787833 30.6157414,22.2502662 C30.9498859,22.1088973 31.3354373,22.0446388 31.746692,22.0446388 C32.6077567,22.0446388 33.3146008,22.3273764 33.8543726,22.8928517 C34.3941445,23.458327 34.6768821,24.2294297 34.6768821,25.2190114 C34.6768821,26.170038 34.3170342,26.9411407 33.6230418,27.5451711 C32.9676046,28.084943 32.1836502,28.3548289 31.2711787,28.3548289 C30.4486692,28.3548289 29.7418251,28.1234981 29.1506464,27.6736882 C28.4952091,27.1853232 28.1353612,26.5041825 28.0711027,25.6559696 L29.4462357,25.6559696 C29.4976426,26.170038 29.70327,26.5684411 30.0502662,26.8254753 C30.3587072,27.0568061 30.769962,27.1724715 31.2840304,27.1724715 C31.8495057,27.1724715 32.325019,26.9925475 32.7105703,26.6455513 C33.0961217,26.2857034 33.2888973,25.8230418 33.2888973,25.2318631 C33.2888973,24.5892776 33.1218251,24.0880608 32.7876806,23.7282129 C32.4535361,23.368365 31.9908745,23.1884411 31.3739924,23.1884411 C30.9627376,23.1884411 30.6157414,23.2526996 30.3073004,23.4069202 C29.9731559,23.5611407 29.7289734,23.8053232 29.5490494,24.1394677 L28.2381749,24.1394677 L28.7393916,18.9987833 Z" id="0.5" fill="#FFFFFF"></path>
            </g>
        </g>
    </g>
</svg>
