<?xml version="1.0" encoding="UTF-8"?>
<svg width="35px" height="39px" viewBox="0 0 35 39" version="1.1" xmlns="http://www.w3.org/2000/svg" xmlns:xlink="http://www.w3.org/1999/xlink">
    <!-- Generator: Sketch 48.1 (47250) - http://www.bohemiancoding.com/sketch -->
    <title>筹码-5@3x</title>
    <desc>Created with Sketch.</desc>
    <defs>
        <filter x="-27.8%" y="-19.6%" width="155.5%" height="139.2%" filterUnits="objectBoundingBox" id="filter-1">
            <feGaussianBlur stdDeviation="0.611049107" in="SourceGraphic"></feGaussianBlur>
        </filter>
    </defs>
    <g id="主界面-copy-2" stroke="none" stroke-width="1" fill="none" fill-rule="evenodd" transform="translate(-168.000000, -543.000000)">
        <g id="Group-9" transform="translate(23.000000, 539.000000)">
            <g id="筹码-5" transform="translate(137.000000, 0.000000)">
                <polygon id="Path-6" fill="#CA43EE" points="25.7034221 3.95437262 25.7034221 8.40304183 38.5551331 16.8060837 43.0038023 13.8403042"></polygon>
                <polygon id="Path-6-Copy-5" fill="#DF55F6" transform="translate(17.423954, 10.380228) scale(-1, 1) translate(-17.423954, -10.380228) " points="8.65019011 3.95437262 8.65019011 8.40304183 21.5019011 16.8060837 26.1977186 13.8403042"></polygon>
                <polygon id="Path-6-Copy" fill="#B033E3" transform="translate(41.525030, 24.544516) rotate(-300.000000) translate(-41.525030, -24.544516) " points="32.87484 18.1186608 32.87484 22.56733 45.7265511 30.9703718 50.1752203 28.0045924"></polygon>
                <polygon id="Path-6-Copy-4" fill="#DF55F6" transform="translate(9.890049, 24.544516) scale(-1, 1) rotate(-300.000000) translate(-9.890049, -24.544516) " points="1.23985906 18.1186608 1.23985906 22.56733 14.0915701 30.9703718 18.5402393 28.0045924"></polygon>
                <polygon id="Path-6-Copy-2" fill="#CE48EA" transform="translate(33.356404, 37.578490) rotate(-240.000000) translate(-33.356404, -37.578490) " points="24.99091 31.4391345 24.9867924 35.8806718 38.0286932 43.7178449 41.7260159 41.6419181"></polygon>
                <polygon id="Path-6-Copy-3" fill="#DF55F6" transform="translate(18.016397, 37.541388) scale(-1, 1) rotate(-240.000000) translate(-18.016397, -37.541388) " points="9.62717829 31.2867363 9.62306067 35.7282736 22.5570729 43.7960392 26.4097335 41.5717046"></polygon>
                <polygon id="Polygon" fill="#F391FF" points="25.8417263 8.40304183 39.3260382 16.1882129 39.3260382 31.7585551 25.8417263 39.5437262 12.3574144 31.7585551 12.3574144 16.1882129"></polygon>
                <path d="M24.0041825,19.4930798 L29.5304183,19.4930798 L29.5304183,20.7268441 L25.1351331,20.7268441 L24.8652471,23.3742966 L24.9038023,23.3742966 C25.1865399,23.0787072 25.5078327,22.8730798 25.8805323,22.7445627 C26.2146768,22.6031939 26.6002281,22.5389354 27.0114829,22.5389354 C27.8725475,22.5389354 28.5793916,22.821673 29.1191635,23.3871483 C29.6589354,23.9526236 29.941673,24.7237262 29.941673,25.713308 C29.941673,26.6643346 29.5818251,27.4354373 28.8878327,28.0394677 C28.2323954,28.5792395 27.4484411,28.8491255 26.5359696,28.8491255 C25.7134601,28.8491255 25.006616,28.6177947 24.4154373,28.1679848 C23.76,27.6796198 23.4001521,26.9984791 23.3358935,26.1502662 L24.7110266,26.1502662 C24.7624335,26.6643346 24.9680608,27.0627376 25.315057,27.3197719 C25.6234981,27.5511027 26.0347529,27.6667681 26.5488213,27.6667681 C27.1142966,27.6667681 27.5898099,27.4868441 27.9753612,27.1398479 C28.3609125,26.78 28.5536882,26.3173384 28.5536882,25.7261597 C28.5536882,25.0835741 28.386616,24.5823574 28.0524715,24.2225095 C27.718327,23.8626616 27.2556654,23.6827376 26.6387833,23.6827376 C26.2275285,23.6827376 25.8805323,23.7469962 25.5720913,23.9012167 C25.2379468,24.0554373 24.9937643,24.2996198 24.8138403,24.6337643 L23.5029658,24.6337643 L24.0041825,19.4930798 Z" id="50" fill="#B033E3" filter="url(#filter-1)"></path>
                <path d="M23.5098859,18.9987833 L29.0361217,18.9987833 L29.0361217,20.2325475 L24.6408365,20.2325475 L24.3709506,22.88 L24.4095057,22.88 C24.6922433,22.5844106 25.0135361,22.3787833 25.3862357,22.2502662 C25.7203802,22.1088973 26.1059316,22.0446388 26.5171863,22.0446388 C27.378251,22.0446388 28.0850951,22.3273764 28.6248669,22.8928517 C29.1646388,23.458327 29.4473764,24.2294297 29.4473764,25.2190114 C29.4473764,26.170038 29.0875285,26.9411407 28.3935361,27.5451711 C27.7380989,28.084943 26.9541445,28.3548289 26.041673,28.3548289 C25.2191635,28.3548289 24.5123194,28.1234981 23.9211407,27.6736882 C23.2657034,27.1853232 22.9058555,26.5041825 22.841597,25.6559696 L24.21673,25.6559696 C24.2681369,26.170038 24.4737643,26.5684411 24.8207605,26.8254753 C25.1292015,27.0568061 25.5404563,27.1724715 26.0545247,27.1724715 C26.62,27.1724715 27.0955133,26.9925475 27.4810646,26.6455513 C27.866616,26.2857034 28.0593916,25.8230418 28.0593916,25.2318631 C28.0593916,24.5892776 27.8923194,24.0880608 27.5581749,23.7282129 C27.2240304,23.368365 26.7613688,23.1884411 26.1444867,23.1884411 C25.7332319,23.1884411 25.3862357,23.2526996 25.0777947,23.4069202 C24.7436502,23.5611407 24.4994677,23.8053232 24.3195437,24.1394677 L23.0086692,24.1394677 L23.5098859,18.9987833 Z" id="50" fill="#FFFFFF"></path>
            </g>
        </g>
    </g>
</svg>
