<?xml version="1.0" encoding="UTF-8"?>
<svg width="35px" height="39px" viewBox="0 0 35 39" version="1.1" xmlns="http://www.w3.org/2000/svg" xmlns:xlink="http://www.w3.org/1999/xlink">
    <!-- Generator: Sketch 48.1 (47250) - http://www.bohemiancoding.com/sketch -->
    <title>筹码-10@3x</title>
    <desc>Created with Sketch.</desc>
    <defs>
        <filter x="-15.4%" y="-19.2%" width="130.8%" height="138.4%" filterUnits="objectBoundingBox" id="filter-1">
            <feGaussianBlur stdDeviation="0.611049107" in="SourceGraphic"></feGaussianBlur>
        </filter>
    </defs>
    <g id="主界面-copy-2" stroke="none" stroke-width="1" fill="none" fill-rule="evenodd" transform="translate(-236.000000, -543.000000)">
        <g id="Group-9" transform="translate(23.000000, 539.000000)">
            <g id="筹码-10" transform="translate(205.000000, 0.000000)">
                <polygon id="Path-6" fill="#DE5F42" points="25.7034221 3.95437262 25.7034221 8.40304183 38.5551331 16.8060837 43.0038023 13.8403042"></polygon>
                <polygon id="Path-6-Copy-5" fill="#E75331" transform="translate(17.423954, 10.380228) scale(-1, 1) translate(-17.423954, -10.380228) " points="8.65019011 3.95437262 8.65019011 8.40304183 21.5019011 16.8060837 26.1977186 13.8403042"></polygon>
                <polygon id="Path-6-Copy" fill="#C23E1F" transform="translate(41.525030, 24.544516) rotate(-300.000000) translate(-41.525030, -24.544516) " points="32.87484 18.1186608 32.87484 22.56733 45.7265511 30.9703718 50.1752203 28.0045924"></polygon>
                <polygon id="Path-6-Copy-4" fill="#D74524" transform="translate(9.890049, 24.544516) scale(-1, 1) rotate(-300.000000) translate(-9.890049, -24.544516) " points="1.23985906 18.1186608 1.23985906 22.56733 14.0915701 30.9703718 18.5402393 28.0045924"></polygon>
                <polygon id="Path-6-Copy-2" fill="#CA482A" transform="translate(33.356404, 37.578490) rotate(-240.000000) translate(-33.356404, -37.578490) " points="24.99091 31.4391345 24.9867924 35.8806718 38.0286932 43.7178449 41.7260159 41.6419181"></polygon>
                <polygon id="Path-6-Copy-3" fill="#E75331" transform="translate(18.016397, 37.541388) scale(-1, 1) rotate(-240.000000) translate(-18.016397, -37.541388) " points="9.62717829 31.2867363 9.62306067 35.7282736 22.5570729 43.7960392 26.4097335 41.5717046"></polygon>
                <polygon id="Polygon" fill="#FE7151" points="25.8417263 8.40304183 39.3260382 16.1882129 39.3260382 31.7585551 25.8417263 39.5437262 12.3574144 31.7585551 12.3574144 16.1882129"></polygon>
                <path d="M22.5546829,19.4930798 L23.6085232,19.4930798 L23.6085232,28.6692015 L22.2076867,28.6692015 L22.2076867,21.176654 C21.6550631,21.7035741 20.948219,22.0891255 20.1000061,22.333308 L20.1000061,20.9453232 C20.5112609,20.8425095 20.9353673,20.6625856 21.3980289,20.4055513 C21.8606905,20.1228137 22.2462418,19.8272243 22.5546829,19.4930798 Z M28.6720974,19.3131559 C29.7516411,19.3131559 30.5870023,19.7629658 31.178181,20.6754373 C31.7179529,21.5236502 31.9878388,22.6546008 31.9878388,24.0811407 C31.9878388,25.4948289 31.7179529,26.6386312 31.178181,27.4868441 C30.5870023,28.3864639 29.7516411,28.8491255 28.6720974,28.8491255 C27.5925536,28.8491255 26.7571924,28.3864639 26.1660137,27.4868441 C25.6262418,26.6386312 25.3563559,25.5076806 25.3563559,24.0811407 C25.3563559,22.641749 25.6262418,21.5107985 26.1660137,20.6754373 C26.7571924,19.7629658 27.5925536,19.3131559 28.6720974,19.3131559 Z M28.6720974,20.4955133 C27.9138464,20.4955133 27.3869263,20.9067681 27.0784852,21.7421293 C26.8471544,22.3076046 26.7443407,23.0915589 26.7443407,24.0811407 C26.7443407,25.0578707 26.8471544,25.8418251 27.0784852,26.4201521 C27.3869263,27.2426616 27.9138464,27.6667681 28.6720974,27.6667681 C29.4174966,27.6667681 29.9572685,27.2426616 30.2657095,26.4201521 C30.4841886,25.8418251 30.599854,25.0578707 30.599854,24.0811407 C30.599854,23.0915589 30.4841886,22.3076046 30.2657095,21.7421293 C29.9572685,20.9067681 29.4174966,20.4955133 28.6720974,20.4955133 Z" id="10" fill="#A33C24" filter="url(#filter-1)"></path>
                <path d="M22.0546829,18.9987833 L23.1085232,18.9987833 L23.1085232,28.1749049 L21.7076867,28.1749049 L21.7076867,20.6823574 C21.1550631,21.2092776 20.448219,21.5948289 19.6000061,21.8390114 L19.6000061,20.4510266 C20.0112609,20.3482129 20.4353673,20.168289 20.8980289,19.9112548 C21.3606905,19.6285171 21.7462418,19.3329278 22.0546829,18.9987833 Z M28.1720974,18.8188593 C29.2516411,18.8188593 30.0870023,19.2686692 30.678181,20.1811407 C31.2179529,21.0293536 31.4878388,22.1603042 31.4878388,23.5868441 C31.4878388,25.0005323 31.2179529,26.1443346 30.678181,26.9925475 C30.0870023,27.8921673 29.2516411,28.3548289 28.1720974,28.3548289 C27.0925536,28.3548289 26.2571924,27.8921673 25.6660137,26.9925475 C25.1262418,26.1443346 24.8563559,25.013384 24.8563559,23.5868441 C24.8563559,22.1474525 25.1262418,21.0165019 25.6660137,20.1811407 C26.2571924,19.2686692 27.0925536,18.8188593 28.1720974,18.8188593 Z M28.1720974,20.0012167 C27.4138464,20.0012167 26.8869263,20.4124715 26.5784852,21.2478327 C26.3471544,21.813308 26.2443407,22.5972624 26.2443407,23.5868441 C26.2443407,24.5635741 26.3471544,25.3475285 26.5784852,25.9258555 C26.8869263,26.748365 27.4138464,27.1724715 28.1720974,27.1724715 C28.9174966,27.1724715 29.4572685,26.748365 29.7657095,25.9258555 C29.9841886,25.3475285 30.099854,24.5635741 30.099854,23.5868441 C30.099854,22.5972624 29.9841886,21.813308 29.7657095,21.2478327 C29.4572685,20.4124715 28.9174966,20.0012167 28.1720974,20.0012167 Z" id="10" fill="#FFFFFF"></path>
            </g>
        </g>
    </g>
</svg>