<?xml version="1.0" encoding="UTF-8"?>
<svg width="71px" height="23px" viewBox="0 0 71 23" version="1.1" xmlns="http://www.w3.org/2000/svg" xmlns:xlink="http://www.w3.org/1999/xlink">
    <!-- Generator: Sketch 48.1 (47250) - http://www.bohemiancoding.com/sketch -->
    <title>大赢家</title>
    <desc>Created with Sketch.</desc>
    <defs>
        <linearGradient x1="50%" y1="0%" x2="50%" y2="100%" id="linearGradient-1">
            <stop stop-color="#F6E542" offset="0%"></stop>
            <stop stop-color="#E5A025" offset="100%"></stop>
        </linearGradient>
    </defs>
    <g id="大赢家" stroke="none" stroke-width="1" fill="none" fill-rule="evenodd" transform="translate(-152.000000, -206.000000)">
        <g id="Group-15" transform="translate(38.000000, 165.000000)" fill="url(#linearGradient-1)">
            <path d="M115.392,47.44 L124.584,47.44 C124.728,46.168 124.824,44.824 124.848,43.432 L124.848,41.344 L127.152,41.344 L127.152,42.904 C127.152,44.488 127.056,46 126.864,47.44 L136.608,47.44 L136.608,49.648 L127.44,49.648 C129.12,54.784 132.36,58.744 137.112,61.552 L135.696,63.4 C131.088,60.568 127.848,56.608 126.024,51.52 C124.44,57.016 121.2,61.048 116.328,63.616 L114.864,61.696 C119.808,59.296 122.928,55.264 124.2,49.648 L115.392,49.648 L115.392,47.44 Z M152.928,52.264 L152.928,59.44 L151.344,59.44 L151.344,53.944 L148.344,53.944 L148.344,59.392 L146.736,59.392 L146.736,52.264 L152.928,52.264 Z M149.88,60.688 C149.832,60.832 149.76,60.952 149.712,61.072 C149.208,62.032 148.368,62.752 147.216,63.28 L146.304,61.84 C147.36,61.36 148.08,60.736 148.488,60.016 C148.848,59.248 149.04,58.216 149.088,56.968 L149.088,54.904 L150.576,54.904 L150.576,56.968 C150.528,57.76 150.456,58.48 150.336,59.152 C151.2,59.872 151.944,60.616 152.544,61.36 L151.368,62.536 C150.984,61.936 150.48,61.312 149.88,60.688 Z M139.32,42.664 L148.968,42.664 C148.752,42.232 148.536,41.824 148.296,41.464 L150.576,41.08 C150.768,41.56 150.936,42.088 151.128,42.664 L160.68,42.664 L160.68,44.248 L143.376,44.248 L143.376,45.16 L159.144,45.16 L159.144,46.72 L141.288,46.72 L141.288,44.248 L139.32,44.248 L139.32,42.664 Z M141.96,47.56 L157.968,47.56 L157.968,51.352 L141.96,51.352 L141.96,47.56 Z M155.76,49.912 L155.76,48.976 L144.168,48.976 L144.168,49.912 L155.76,49.912 Z M142.032,56.8 C142.008,57.28 141.984,57.76 141.936,58.192 L144.168,58.192 L144.168,56.8 L142.032,56.8 Z M144.168,55.384 L144.168,53.992 L142.056,53.992 L142.056,55.384 L144.168,55.384 Z M141.744,59.608 C141.432,61.144 140.928,62.44 140.232,63.544 L138.84,62.272 C139.776,60.736 140.256,58.816 140.28,56.464 L140.28,52.312 L145.92,52.312 L145.92,61.696 C145.92,62.824 145.272,63.4 144,63.4 L143.088,63.4 L142.608,61.744 C142.896,61.792 143.184,61.816 143.448,61.816 C143.928,61.816 144.168,61.552 144.168,61.072 L144.168,59.608 L141.744,59.608 Z M159.744,63.16 L158.808,63.16 C157.848,63.16 157.392,62.656 157.392,61.696 L157.392,59.008 L156.336,59.488 C156.072,58.48 155.784,57.568 155.472,56.776 C155.448,58.384 155.328,59.632 155.136,60.496 C154.872,61.456 154.32,62.488 153.48,63.568 L152.088,62.344 C152.808,61.528 153.264,60.76 153.48,60.04 C153.696,59.272 153.816,58.048 153.816,56.344 L153.816,52.288 L159.072,52.288 L159.072,61.168 C159.072,61.408 159.168,61.552 159.408,61.552 L159.48,61.552 C159.576,61.552 159.648,61.432 159.72,61.216 C159.768,61.024 159.816,60.28 159.864,59.008 L161.28,59.512 C161.136,61.144 160.992,62.176 160.8,62.584 C160.608,62.968 160.248,63.16 159.744,63.16 Z M155.472,56.32 L156.432,56.008 C156.792,56.848 157.104,57.736 157.392,58.672 L157.392,54.04 L155.472,54.04 L155.472,56.32 Z M177.672,54.304 C177.312,54.4 176.952,54.472 176.616,54.568 C176.976,55.672 177.168,56.872 177.192,58.168 C177.192,60.088 176.904,61.432 176.376,62.152 C175.752,63.016 174.36,63.448 172.176,63.448 L171.408,63.448 L170.64,61.432 L171.864,61.432 C173.208,61.432 174.048,61.24 174.384,60.88 C174.768,60.4 174.984,59.512 174.984,58.168 C174.984,57.928 174.96,57.688 174.96,57.472 C172.368,59.416 168.96,61.024 164.784,62.32 L163.632,60.376 C168.312,59.056 171.96,57.352 174.576,55.288 C174.432,54.808 174.24,54.328 174.048,53.896 C171.792,55.576 168.792,56.944 165.072,58.024 L163.944,56.056 C167.856,55.048 170.904,53.776 173.088,52.216 C172.848,51.904 172.632,51.616 172.392,51.328 C172.296,51.376 172.224,51.4 172.152,51.448 C170.592,52.192 168.384,52.984 165.552,53.824 L164.4,51.928 C166.608,51.472 168.672,50.848 170.592,50.056 C171.168,49.816 171.72,49.576 172.248,49.312 L166.872,49.312 L166.872,47.2 L181.128,47.2 L181.128,49.312 L175.8,49.312 C175.224,49.696 174.672,50.056 174.144,50.392 C174.84,51.16 175.416,51.976 175.896,52.84 C178.008,52.216 180.024,51.304 181.944,50.08 L183.48,51.616 C182.232,52.408 180.912,53.08 179.496,53.656 C180.6,56.464 182.4,58.72 184.848,60.448 L183.216,62.344 C180.672,60.208 178.824,57.52 177.672,54.304 Z M174.552,41.152 C174.816,41.776 175.056,42.472 175.296,43.24 L184.296,43.24 L184.296,47.704 L182.016,47.704 L182.016,45.352 L165.984,45.352 L165.984,47.704 L163.704,47.704 L163.704,43.24 L172.992,43.24 C172.752,42.616 172.488,42.064 172.224,41.56 L174.552,41.152 Z" id="大赢家"></path>
        </g>
    </g>
</svg>
