<?xml version="1.0" encoding="UTF-8"?>
<svg width="50px" height="50px" viewBox="0 0 50 50" version="1.1" xmlns="http://www.w3.org/2000/svg" xmlns:xlink="http://www.w3.org/1999/xlink">
    <!-- Generator: Sketch 48.1 (47250) - http://www.bohemiancoding.com/sketch -->
    <title>蓝方背景图</title>
    <desc>Created with Sketch.</desc>
    <defs></defs>
    <g id="主界面-copy-2" stroke="none" stroke-width="1" fill="none" fill-rule="evenodd" transform="translate(-245.000000, -204.000000)">
        <path d="M287.526467,238.176514 L289.794418,239.485916 C291.455076,236.357573 292.395833,232.788649 292.395833,229 C292.395833,225.37225 291.533285,221.945958 290.002084,218.915021 L287.726544,220.228805 C288.172291,221.152784 288.694509,222.368226 289.293198,223.875132 L287.630915,224.350647 C288.021273,225.834921 288.229167,227.393182 288.229167,229 C288.229167,230.606818 288.021273,232.165079 287.630915,233.649353 L289.293198,234.124868 C288.602508,235.863342 288.013598,237.21389 287.526467,238.176514 Z M286.45935,239.96604 C285.882034,240.814058 285.090539,241.874033 284.084865,243.145966 L282.838699,241.941034 C280.634354,244.128056 277.874273,245.755762 274.789021,246.593586 L275.208333,248.270833 C273.48351,248.523449 272.094621,248.684172 271.041667,248.753001 L271.041667,251.372038 C278.443993,251.033135 284.908994,247.100751 288.732888,241.278668 L286.45935,239.96604 Z M286.710327,218.409892 L288.976971,217.101244 C285.187854,211.07081 278.603889,206.974186 271.041667,206.627962 L271.041667,209.246999 C272.094621,209.315828 273.48351,209.476551 275.208333,209.729167 L274.789021,211.406414 C277.874273,212.244238 280.634354,213.871944 282.838699,216.058966 L284.084865,214.854034 C285.245082,216.321426 286.120237,217.506712 286.710327,218.409892 Z M268.958333,248.753001 C267.905379,248.684172 266.51649,248.523449 264.791667,248.270833 L265.210979,246.593586 C260.942451,245.434434 257.296347,242.763333 254.883265,239.190881 L251.267112,241.278668 C255.091006,247.100751 261.556007,251.033135 268.958333,251.372038 L268.958333,248.753001 Z M268.958333,209.246999 L268.958333,206.627962 C261.396111,206.974186 254.812146,211.07081 251.023029,217.101244 L254.635016,219.186626 C257.042472,215.425053 260.7934,212.606042 265.210979,211.406414 L264.791667,209.729167 C266.51649,209.476551 267.905379,209.315828 268.958333,209.246999 Z M263.854341,233.824028 C265.069597,235.370074 266.855673,236.446238 268.895006,236.734959 L267.916667,243.583333 L272.083333,243.583333 L271.104994,236.734959 C273.144327,236.446238 274.930403,235.370074 276.145659,233.824028 L281.58787,238.095886 L283.671204,234.487447 L277.252176,231.910931 C277.613609,231.011308 277.8125,230.028881 277.8125,229 C277.8125,227.971119 277.613609,226.988692 277.252176,226.089069 L283.671204,223.512553 L281.58787,219.904114 L276.145659,224.175972 C274.930403,222.629926 273.144327,221.553762 271.104994,221.265041 L272.083333,214.416667 L267.916667,214.416667 L268.895006,221.265041 C266.855673,221.553762 265.069597,222.629926 263.854341,224.175972 L258.41213,219.904114 L256.328796,223.512553 L262.747824,226.089069 C262.386391,226.988692 262.1875,227.971119 262.1875,229 C262.1875,230.028881 262.386391,231.011308 262.747824,231.910931 L256.328796,234.487447 L258.41213,238.095886 L263.854341,233.824028 Z M253.817576,237.400531 C252.5099,234.886611 251.770833,232.029615 251.770833,229 C251.770833,226.131262 252.433494,223.417296 253.614094,221.002822 L249.997916,218.915021 C248.466715,221.945958 247.604167,225.37225 247.604167,229 C247.604167,232.788649 248.544924,236.357573 250.205582,239.485916 L253.817576,237.400531 Z M270,254 C256.192881,254 245,242.807119 245,229 C245,215.192881 256.192881,204 270,204 C283.807119,204 295,215.192881 295,229 C295,242.807119 283.807119,254 270,254 Z" id="蓝方背景图" fill="#051523"></path>
    </g>
</svg>