<?xml version="1.0" encoding="UTF-8"?>
<svg width="168px" height="67px" viewBox="0 0 168 67" version="1.1" xmlns="http://www.w3.org/2000/svg" xmlns:xlink="http://www.w3.org/1999/xlink">
    <!-- Generator: Sketch 48.1 (47250) - http://www.bohemiancoding.com/sketch -->
    <title>Group 11 Copy</title>
    <desc>Created with Sketch.</desc>
    <defs>
        <filter x="-0.1%" y="-0.2%" width="100.2%" height="100.5%" filterUnits="objectBoundingBox" id="filter-1">
            <feGaussianBlur stdDeviation="0" in="SourceGraphic"></feGaussianBlur>
        </filter>
        <radialGradient cx="50%" cy="50%" fx="50%" fy="50%" r="50%" gradientTransform="translate(0.500000,0.500000),scale(1.000000,0.875000),rotate(-90.000000),translate(-0.500000,-0.500000)" id="radialGradient-2">
            <stop stop-color="#2977C9" offset="0%"></stop>
            <stop stop-color="#023060" offset="100%"></stop>
        </radialGradient>
        <radialGradient cx="50%" cy="50%" fx="50%" fy="50%" r="50%" gradientTransform="translate(0.500000,0.500000),scale(1.000000,0.875000),rotate(-90.000000),translate(-0.500000,-0.500000)" id="radialGradient-3">
            <stop stop-color="#104174" offset="0%"></stop>
            <stop stop-color="#023060" offset="100%"></stop>
        </radialGradient>
        <radialGradient cx="50%" cy="50%" fx="50%" fy="50%" r="38.8203431%" id="radialGradient-4">
            <stop stop-color="#FFFFFF" offset="0%"></stop>
            <stop stop-color="#42EDF8" offset="100%"></stop>
        </radialGradient>
    </defs>
    <g id="主界面-copy-4" stroke="none" stroke-width="1" fill="none" fill-rule="evenodd" transform="translate(-192.000000, -55.000000)">
        <g id="Group-11-Copy" transform="translate(193.000000, 56.000000)">
            <path d="M158.215369,52.2822807 L151.397016,64.0621148 C150.837233,65.0292315 149.802713,65.625 148.683148,65.625 L20.3168524,65.625 C19.1972875,65.625 18.1627669,65.0292315 17.6029845,64.0621148 L0.419836827,34.3753852 C-0.139945609,33.4082685 -0.139945609,32.2167315 0.419836827,31.2496148 L17.6029845,1.56288522 C18.1627669,0.595768482 19.1972875,2.18509525e-14 20.3168524,2.13162821e-14 L128.760563,1.21607122e-14 L158.215369,52.2822807 Z" id="Combined-Shape" stroke="#17416B" stroke-width="0.3" fill="#0E2A45" fill-rule="nonzero" filter="url(#filter-1)"></path>
            <path d="M142.751434,0.295878652 L161.56185,11.1836443 C162.174644,11.5383395 162.552141,12.1938432 162.552141,12.9032336 L162.552141,34.6787648 C162.552141,35.3881552 162.174644,36.043659 161.56185,36.3983542 L142.751434,47.2861198 C142.138639,47.640815 141.383645,47.640815 140.77085,47.2861198 L121.960434,36.3983542 C121.34764,36.043659 120.970143,35.3881552 120.970143,34.6787648 L120.970143,12.9032336 C120.970143,12.1938432 121.34764,11.5383395 121.960434,11.1836443 L140.77085,0.295878652 C141.383645,-0.0588165454 142.138639,-0.0588165454 142.751434,0.295878652 Z" id="Combined-Shape-Copy-2" stroke="#0E5299" fill="url(#radialGradient-2)" fill-rule="nonzero" transform="translate(141.761142, 23.790999) rotate(-270.000000) translate(-141.761142, -23.790999) "></path>
            <path d="M142.667696,2.28259841 L159.887525,12.2497074 C160.448502,12.57441 160.794079,13.1744851 160.794079,13.8238903 L160.794079,33.7581082 C160.794079,34.4075134 160.448502,35.0075885 159.887525,35.3322911 L142.667696,45.2994 C142.106718,45.6241026 141.415566,45.6241026 140.854588,45.2994 L123.634759,35.3322911 C123.073782,35.0075885 122.728205,34.4075134 122.728205,33.7581082 L122.728205,13.8238903 C122.728205,13.1744851 123.073782,12.57441 123.634759,12.2497074 L140.854588,2.28259841 C141.415566,1.95789582 142.106718,1.95789582 142.667696,2.28259841 Z" id="Combined-Shape-Copy-2" stroke="#070A18" stroke-width="0.5" fill="url(#radialGradient-3)" fill-rule="nonzero" transform="translate(141.761142, 23.790999) rotate(-270.000000) translate(-141.761142, -23.790999) "></path>
            <g id="Group-3" transform="translate(129.000000, 11.000000)" fill="url(#radialGradient-4)">
                <path d="M22.1137626,17.7717872 L23.2930974,18.4526765 C24.1566397,16.8259382 24.6458333,14.9700977 24.6458333,13 C24.6458333,11.1135698 24.1973083,9.3318983 23.4010838,7.75581093 L22.2178031,8.43897836 C22.4495915,8.91944752 22.7211448,9.55147767 23.0324629,10.3350688 L22.1680758,10.5823362 C22.3710617,11.3541589 22.4791667,12.1644548 22.4791667,13 C22.4791667,13.8355452 22.3710617,14.6458411 22.1680758,15.4176638 L23.0324629,15.6649312 C22.6733042,16.5689377 22.3670707,17.271223 22.1137626,17.7717872 Z M21.5588622,18.7023408 C21.2586579,19.1433101 20.8470803,19.6944972 20.3241296,20.3559021 L19.6761237,19.7293374 C18.5298638,20.8665893 17.0946217,21.7129963 15.4902911,22.1486645 L15.7083333,23.0208333 C14.8114253,23.1521936 14.0892031,23.2357693 13.5416667,23.2715606 L13.5416667,24.6334595 C17.3908764,24.4572302 20.7526768,22.4123907 22.7411018,19.3849072 L21.5588622,18.7023408 Z M21.6893702,7.49314363 L22.8680248,6.81264707 C20.8976842,3.67682127 17.4740222,1.54657651 13.5416667,1.36654049 L13.5416667,2.72843944 C14.0892031,2.76423069 14.8114253,2.84780643 15.7083333,2.97916667 L15.4902911,3.85133547 C17.0946217,4.28700371 18.5298638,5.13341068 19.6761237,6.27066255 L20.3241296,5.64409786 C20.9274428,6.40714171 21.382523,7.0234903 21.6893702,7.49314363 Z M12.4583333,23.2715606 C11.9107969,23.2357693 11.1885747,23.1521936 10.2916667,23.0208333 L10.5097089,22.1486645 C8.2900746,21.5459059 6.39410037,20.1569332 5.13929772,18.299258 L3.2588982,19.3849072 C5.24732321,22.4123907 8.6091236,24.4572302 12.4583333,24.6334595 L12.4583333,23.2715606 Z M12.4583333,2.72843944 L12.4583333,1.36654049 C8.52597779,1.54657651 5.10231583,3.67682127 3.13197515,6.81264707 L5.01020847,7.89704558 C6.26208521,5.94102762 8.21256792,4.47514166 10.5097089,3.85133547 L10.2916667,2.97916667 C11.1885747,2.84780643 11.9107969,2.76423069 12.4583333,2.72843944 Z M9.80425753,15.5084946 C10.4361906,16.3124384 11.3649498,16.8720438 12.425403,17.0221789 L11.9166667,20.5833333 L14.0833333,20.5833333 L13.574597,17.0221789 C14.6350502,16.8720438 15.5638094,16.3124384 16.1957425,15.5084946 L19.0256926,17.7298609 L20.109026,15.8534725 L16.7711316,14.5136842 C16.9590765,14.04588 17.0625,13.5350179 17.0625,13 C17.0625,12.4649821 16.9590765,11.95412 16.7711316,11.4863158 L20.109026,10.1465275 L19.0256926,8.27013915 L16.1957425,10.4915054 C15.5638094,9.68756165 14.6350502,9.12795622 13.574597,8.97782114 L14.0833333,5.41666667 L11.9166667,5.41666667 L12.425403,8.97782114 C11.3649498,9.12795622 10.4361906,9.68756165 9.80425753,10.4915054 L6.97430735,8.27013915 L5.89097402,10.1465275 L9.22886837,11.4863158 C9.04092346,11.95412 8.9375,12.4649821 8.9375,13 C8.9375,13.5350179 9.04092346,14.04588 9.22886837,14.5136842 L5.89097402,15.8534725 L6.97430735,17.7298609 L9.80425753,15.5084946 Z M4.58513938,17.3682759 C3.90514811,16.0610377 3.52083333,14.5753996 3.52083333,13 C3.52083333,11.508256 3.86541663,10.0969937 4.47932881,8.84146765 L2.59891621,7.75581093 C1.80269169,9.3318983 1.35416667,11.1135698 1.35416667,13 C1.35416667,14.9700977 1.84336026,16.8259382 2.70690255,18.4526765 L4.58513938,17.3682759 Z M13,26 C5.82029825,26 0,20.1797017 0,13 C0,5.82029825 5.82029825,0 13,0 C20.1797017,0 26,5.82029825 26,13 C26,20.1797017 20.1797017,26 13,26 Z" id="Combined-Shape"></path>
            </g>
        </g>
    </g>
</svg>