<?xml version="1.0" encoding="UTF-8"?>
<svg width="168px" height="67px" viewBox="0 0 168 67" version="1.1" xmlns="http://www.w3.org/2000/svg" xmlns:xlink="http://www.w3.org/1999/xlink">
    <!-- Generator: Sketch 48.1 (47250) - http://www.bohemiancoding.com/sketch -->
    <title>Group 11</title>
    <desc>Created with Sketch.</desc>
    <defs>
        <filter x="-0.1%" y="-0.2%" width="100.2%" height="100.5%" filterUnits="objectBoundingBox" id="filter-1">
            <feGaussianBlur stdDeviation="0" in="SourceGraphic"></feGaussianBlur>
        </filter>
        <radialGradient cx="50%" cy="50%" fx="50%" fy="50%" r="56.4540351%" gradientTransform="translate(0.500000,0.500000),scale(1.000000,0.875000),rotate(-90.000000),translate(-0.500000,-0.500000)" id="radialGradient-2">
            <stop stop-color="#7A030B" offset="0%"></stop>
            <stop stop-color="#4B020B" offset="100%"></stop>
        </radialGradient>
        <linearGradient x1="50%" y1="0.807158801%" x2="50%" y2="100%" id="linearGradient-3">
            <stop stop-color="#B90817" offset="0%"></stop>
            <stop stop-color="#E70D24" offset="100%"></stop>
        </linearGradient>
    </defs>
    <g id="主界面-copy-4" stroke="none" stroke-width="1" fill="none" fill-rule="evenodd" transform="translate(-15.000000, -55.000000)">
        <g id="Group-11" transform="translate(16.000000, 56.000000)">
            <path d="M166,52.2822807 L159.181646,64.0621148 C158.621864,65.0292315 157.587343,65.625 156.467778,65.625 L28.1014829,65.625 C26.9819181,65.625 25.9473975,65.0292315 25.387615,64.0621148 L8.20446741,34.3753852 C7.64468497,33.4082685 7.64468497,32.2167315 8.20446741,31.2496148 L25.387615,1.56288522 C25.9473975,0.595768482 26.9819181,2.18509525e-14 28.1014829,2.13162821e-14 L136.545194,1.21607122e-14 L166,52.2822807 Z" id="Combined-Shape" stroke="#17416B" stroke-width="0.3" fill="#0E2A45" fill-rule="nonzero" filter="url(#filter-1)" transform="translate(86.892315, 32.812500) scale(-1, 1) translate(-86.892315, -32.812500) "></path>
            <path d="M24.7514336,0.295878652 L43.5618495,11.1836443 C44.1746441,11.5383395 44.5521412,12.1938432 44.5521412,12.9032336 L44.5521412,34.6787648 C44.5521412,35.3881552 44.1746441,36.043659 43.5618495,36.3983542 L24.7514336,47.2861198 C24.138639,47.640815 23.3836449,47.640815 22.7708503,47.2861198 L3.96043442,36.3983542 C3.3476398,36.043659 2.97014275,35.3881552 2.97014275,34.6787648 L2.97014275,12.9032336 C2.97014275,12.1938432 3.3476398,11.5383395 3.96043442,11.1836443 L22.7708503,0.295878652 C23.3836449,-0.0588165454 24.138639,-0.0588165454 24.7514336,0.295878652 Z" id="Combined-Shape-Copy-2" stroke="#881320" fill="#4A020B" fill-rule="nonzero" transform="translate(23.761142, 23.790999) rotate(-270.000000) translate(-23.761142, -23.790999) "></path>
            <path d="M24.6676957,2.28259841 L41.887525,12.2497074 C42.4485024,12.57441 42.7940788,13.1744851 42.7940788,13.8238903 L42.7940788,33.7581082 C42.7940788,34.4075134 42.4485024,35.0075885 41.887525,35.3322911 L24.6676957,45.2994 C24.1067183,45.6241026 23.4155656,45.6241026 22.8545882,45.2994 L5.63475895,35.3322911 C5.07378153,35.0075885 4.72820518,34.4075134 4.72820518,33.7581082 L4.72820518,13.8238903 C4.72820518,13.1744851 5.07378153,12.57441 5.63475895,12.2497074 L22.8545882,2.28259841 C23.4155656,1.95789582 24.1067183,1.95789582 24.6676957,2.28259841 Z" id="Combined-Shape-Copy-2" stroke="#070A18" stroke-width="0.5" fill="url(#radialGradient-2)" fill-rule="nonzero" transform="translate(23.761142, 23.790999) rotate(-270.000000) translate(-23.761142, -23.790999) "></path>
            <path d="M24,11 L26.4375,13.4375 C25.625,14.7013889 25.21875,15.6944444 25.21875,16.4166667 C25.21875,17.5 25.3541667,16.1458333 27.25,14.5208333 C27.7916667,15.0625 28.3333333,15.6041667 28.875,16.1458333 C26.7083333,17.4097222 25.625,19.3055556 25.625,21.8333333 C25.625,25.625 27.7916667,26.1666667 28.875,26.1666667 C29.9583333,26.1666667 33.75,25.3541667 33.75,20.4791667 C33.75,15.6041667 30.4601311,12.8075031 31.0416667,13.4375 C32.9375,14.7916667 36.1875,16.6875 37,23.7291667 C37,31.8541667 30.5,37 24,37 C24,28.2430556 24,19.5763889 24,11 Z M24,11 C24,19.5763889 24,28.2430556 24,37 C17.5,37 11,31.8541667 11,23.7291667 C11.8125,16.6875 15.0625,14.7916667 16.9583333,13.4375 C17.5398689,12.8075031 14.25,15.6041667 14.25,20.4791667 C14.25,25.3541667 18.0416667,26.1666667 19.125,26.1666667 C20.2083333,26.1666667 22.375,25.625 22.375,21.8333333 C22.375,19.3055556 21.2916667,17.4097222 19.125,16.1458333 C19.6666667,15.6041667 20.2083333,15.0625 20.75,14.5208333 C22.6458333,16.1458333 22.78125,17.5 22.78125,16.4166667 C22.78125,15.6944444 22.375,14.7013889 21.5625,13.4375 L24,11 Z" id="Combined-Shape" fill="url(#linearGradient-3)"></path>
        </g>
    </g>
</svg>