<?xml version="1.0" encoding="UTF-8"?>
<svg width="168px" height="67px" viewBox="0 0 168 67" version="1.1" xmlns="http://www.w3.org/2000/svg" xmlns:xlink="http://www.w3.org/1999/xlink">
    <!-- Generator: Sketch 48.1 (47250) - http://www.bohemiancoding.com/sketch -->
    <title>顶部-红方@3x</title>
    <desc>Created with Sketch.</desc>
    <defs>
        <path d="M158.215369,52.2822807 L151.397016,64.0621148 C150.837233,65.0292315 149.802713,65.625 148.683148,65.625 L20.3168524,65.625 C19.1972875,65.625 18.1627669,65.0292315 17.6029845,64.0621148 L0.419836827,34.3753852 C-0.139945609,33.4082685 -0.139945609,32.2167315 0.419836827,31.2496148 L17.6029845,1.56288522 C18.1627669,0.595768482 19.1972875,2.18509525e-14 20.3168524,2.13162821e-14 L128.760563,1.21607122e-14 L158.215369,52.2822807 Z" id="path-1"></path>
        <filter x="-0.1%" y="-0.2%" width="100.2%" height="100.5%" filterUnits="objectBoundingBox" id="filter-2">
            <feGaussianBlur stdDeviation="0" in="SourceGraphic"></feGaussianBlur>
        </filter>
        <radialGradient cx="50%" cy="50%" fx="50%" fy="50%" r="56.4540351%" gradientTransform="translate(0.500000,0.500000),scale(1.000000,0.875000),rotate(-90.000000),translate(-0.500000,-0.500000)" id="radialGradient-4">
            <stop stop-color="#7A030B" offset="0%"></stop>
            <stop stop-color="#4B020B" offset="100%"></stop>
        </radialGradient>
        <linearGradient x1="50%" y1="0.807158801%" x2="50%" y2="100%" id="linearGradient-5">
            <stop stop-color="#B90817" offset="0%"></stop>
            <stop stop-color="#E70D24" offset="100%"></stop>
        </linearGradient>
    </defs>
    <g id="主界面-copy-2" stroke="none" stroke-width="1" fill="none" fill-rule="evenodd" transform="translate(-15.000000, -55.000000)">
        <g id="顶部-红方" transform="translate(16.000000, 56.000000)">
            <g id="Group-Copy-5" transform="translate(86.500000, 33.000000) scale(-1, 1) translate(-86.500000, -33.000000) translate(7.000000, 0.000000)">
                <g id="Group-13">
                    <mask id="mask-3" fill="white">
                        <use xlink:href="#path-1"></use>
                    </mask>
                    <use id="Combined-Shape" stroke="#17416B" stroke-width="0.3" fill="#0E2A45" fill-rule="nonzero" filter="url(#filter-2)" xlink:href="#path-1"></use>
                </g>
            </g>
            <g id="Group-11" transform="translate(0.000000, 3.000000)">
                <path d="M24.7514336,-2.70412135 L43.5618495,8.18364426 C44.1746441,8.53833946 44.5521412,9.19384322 44.5521412,9.90323361 L44.5521412,31.6787648 C44.5521412,32.3881552 44.1746441,33.043659 43.5618495,33.3983542 L24.7514336,44.2861198 C24.138639,44.640815 23.3836449,44.640815 22.7708503,44.2861198 L3.96043442,33.3983542 C3.3476398,33.043659 2.97014275,32.3881552 2.97014275,31.6787648 L2.97014275,9.90323361 C2.97014275,9.19384322 3.3476398,8.53833946 3.96043442,8.18364426 L22.7708503,-2.70412135 C23.3836449,-3.05881655 24.138639,-3.05881655 24.7514336,-2.70412135 Z" id="Combined-Shape-Copy-2" stroke="#881320" fill="#4A020B" fill-rule="nonzero" transform="translate(23.761142, 20.790999) rotate(-270.000000) translate(-23.761142, -20.790999) "></path>
                <path d="M24.6676957,-0.717401594 L41.887525,9.24970736 C42.4485024,9.57440995 42.7940788,10.1744851 42.7940788,10.8238903 L42.7940788,30.7581082 C42.7940788,31.4075134 42.4485024,32.0075885 41.887525,32.3322911 L24.6676957,42.2994 C24.1067183,42.6241026 23.4155656,42.6241026 22.8545882,42.2994 L5.63475895,32.3322911 C5.07378153,32.0075885 4.72820518,31.4075134 4.72820518,30.7581082 L4.72820518,10.8238903 C4.72820518,10.1744851 5.07378153,9.57440995 5.63475895,9.24970736 L22.8545882,-0.717401594 C23.4155656,-1.04210418 24.1067183,-1.04210418 24.6676957,-0.717401594 Z" id="Combined-Shape-Copy-2" stroke="#070A18" stroke-width="0.5" fill="url(#radialGradient-4)" fill-rule="nonzero" transform="translate(23.761142, 20.790999) rotate(-270.000000) translate(-23.761142, -20.790999) "></path>
                <path d="M24,8 L26.4375,10.4375 C25.625,11.7013889 25.21875,12.6944444 25.21875,13.4166667 C25.21875,14.5 25.3541667,13.1458333 27.25,11.5208333 C27.7916667,12.0625 28.3333333,12.6041667 28.875,13.1458333 C26.7083333,14.4097222 25.625,16.3055556 25.625,18.8333333 C25.625,22.625 27.7916667,23.1666667 28.875,23.1666667 C29.9583333,23.1666667 33.75,22.3541667 33.75,17.4791667 C33.75,12.6041667 30.4601311,9.80750314 31.0416667,10.4375 C32.9375,11.7916667 36.1875,13.6875 37,20.7291667 C37,28.8541667 30.5,34 24,34 C24,25.2430556 24,16.5763889 24,8 Z M24,8 C24,16.5763889 24,25.2430556 24,34 C17.5,34 11,28.8541667 11,20.7291667 C11.8125,13.6875 15.0625,11.7916667 16.9583333,10.4375 C17.5398689,9.80750314 14.25,12.6041667 14.25,17.4791667 C14.25,22.3541667 18.0416667,23.1666667 19.125,23.1666667 C20.2083333,23.1666667 22.375,22.625 22.375,18.8333333 C22.375,16.3055556 21.2916667,14.4097222 19.125,13.1458333 C19.6666667,12.6041667 20.2083333,12.0625 20.75,11.5208333 C22.6458333,13.1458333 22.78125,14.5 22.78125,13.4166667 C22.78125,12.6944444 22.375,11.7013889 21.5625,10.4375 L24,8 Z" id="Combined-Shape" fill="url(#linearGradient-5)"></path>
            </g>
        </g>
    </g>
</svg>