<?xml version="1.0" encoding="UTF-8"?>
<svg width="346px" height="420px" viewBox="0 0 346 420" version="1.1" xmlns="http://www.w3.org/2000/svg" xmlns:xlink="http://www.w3.org/1999/xlink">
    <!-- Generator: Sketch 48.1 (47250) - http://www.bohemiancoding.com/sketch -->
    <title>Group 3</title>
    <desc>Created with Sketch.</desc>
    <defs></defs>
    <g id="弹幕-copy" stroke="none" stroke-width="1" fill="none" fill-rule="evenodd" transform="translate(-15.000000, -149.000000)">
        <g id="Group-3" transform="translate(16.000000, 150.000000)">
            <polygon id="Path-4" stroke="#17416B" stroke-width="0.5" fill="#000000" points="90 14.5 104 0 240 0 254 14.5 254 29 90 29"></polygon>
            <polygon id="Path-15" stroke="#174069" stroke-width="0.5" fill="#000000" points="14 15 0 29 0 418 330 418 344 404 344 56 301 15 244 15 233 26 109 26 98 15"></polygon>
            <polygon id="Path-5" fill="#42EDF8" points="98 15 102 15 113 26 109 26"></polygon>
            <polygon id="Path-5-Copy" fill="#42EDF8" transform="translate(236.500000, 20.500000) scale(-1, 1) translate(-236.500000, -20.500000) " points="229 15 233 15 244 26 240 26"></polygon>
        </g>
    </g>
</svg>
