<?xml version="1.0" encoding="UTF-8"?>
<svg width="16px" height="16px" viewBox="0 0 16 16" version="1.1" xmlns="http://www.w3.org/2000/svg" xmlns:xlink="http://www.w3.org/1999/xlink">
    <!-- Generator: Sketch 48.1 (47250) - http://www.bohemiancoding.com/sketch -->
    <title>eos@3x</title>
    <desc>Created with Sketch.</desc>
    <defs></defs>
    <g id="主界面-copy-2" stroke="none" stroke-width="1" fill="none" fill-rule="evenodd" transform="translate(-250.000000, -634.000000)">
        <g id="eos" transform="translate(251.000000, 635.000000)">
            <circle id="Oval" stroke="#AED7F1" stroke-width="0.5" cx="7" cy="7" r="7"></circle>
            <g id="eos-(1)-copy" transform="translate(3.733333, 2.333333)" fill="#AED7F1" fill-rule="nonzero">
                <path d="M3.40194431,9.33168471 C3.35348413,9.33271691 3.30574025,9.31986279 3.26434878,9.29463976 L0.136696295,7.42651569 C0.0377374121,7.36577616 -0.0112834965,7.24855225 0.0149771607,7.13544819 L1.07869653,2.81177294 C1.08440184,2.7727436 1.10089839,2.73608461 1.12632576,2.70593021 L3.19025886,0.102199214 C3.28086461,-0.0132500498 3.4479052,-0.0333896984 3.56335447,0.0572160498 C3.67880373,0.147821798 3.69894338,0.31486239 3.60833763,0.430311653 L1.57615733,3.00758198 L0.575943593,7.07194256 L3.53424771,8.83951604 C3.65995948,8.91512151 3.70226509,9.07729301 3.62950617,9.20467344 C3.57977729,9.28252068 3.49430784,9.33022455 3.40194431,9.33168471 Z" id="Shape"></path>
                <path d="M3.40194431,9.33168471 C3.28995889,9.33469911 3.18821057,9.26686689 3.14792178,9.16233635 L1.08398867,2.97053703 C1.03831912,2.83323974 1.11140042,2.68471967 1.24804488,2.63713244 C1.31609327,2.61398881 1.39062872,2.61952337 1.45451266,2.65246353 C1.51839659,2.68540368 1.56613162,2.74291483 1.58674161,2.81177294 L3.65067471,8.98769586 C3.67425445,9.05434878 3.67017965,9.12766611 3.63935912,9.19129559 C3.60853859,9.25492508 3.55353589,9.30357421 3.4866185,9.32639258 L3.40194431,9.33168471 Z" id="Shape"></path>
                <path d="M3.40194431,9.33168471 C3.30932159,9.3311997 3.22341742,9.28325319 3.17438246,9.20467344 C3.1375319,9.14441088 3.12630579,9.07191592 3.14320372,9.00333021 C3.16010165,8.9347445 3.20372073,8.87576213 3.26434878,8.83951604 L6.2226529,7.07194256 L5.22243916,3.00758198 L3.19025886,0.430311653 C3.10140388,0.314784061 3.12269898,0.149155474 3.23788809,0.0598621235 C3.29216845,0.015201361 3.36225388,-0.00551036423 3.4320911,0.00247103297 C3.50192833,0.0104524302 3.56553349,0.0464430807 3.60833763,0.102199214 L5.67756287,2.7482673 C5.69875106,2.78090898 5.71481378,2.8166039 5.7251921,2.85411003 L6.78361933,7.16190888 C6.81164743,7.27515525 6.76220168,7.39339509 6.6619002,7.45297637 L3.53424771,9.29463976 C3.49474363,9.31971765 3.44872712,9.33260227 3.40194431,9.33168471 Z" id="Shape"></path>
                <path d="M3.40194431,9.33168471 L3.31727013,9.33168471 C3.17976965,9.28174378 3.10537423,9.13295293 3.14792178,8.99298799 L5.21714702,2.81177294 C5.23747225,2.74033507 5.28688561,2.68072844 5.35331743,2.64751253 C5.41974926,2.61429661 5.49708258,2.6105299 5.56642801,2.63713244 C5.70319432,2.68482272 5.77793331,2.8319651 5.73577637,2.97053703 L3.65067471,9.16233635 C3.6123426,9.2660369 3.51247781,9.33402995 3.40194431,9.33168471 Z" id="Shape"></path>
            </g>
        </g>
    </g>
</svg>
