<?xml version="1.0" encoding="UTF-8"?>
<svg width="41px" height="39px" viewBox="0 0 41 39" version="1.1" xmlns="http://www.w3.org/2000/svg" xmlns:xlink="http://www.w3.org/1999/xlink">
    <!-- Generator: Sketch 48.1 (47250) - http://www.bohemiancoding.com/sketch -->
    <title>问题@3x</title>
    <desc>Created with Sketch.</desc>
    <defs>
        <filter x="-31.0%" y="-27.1%" width="162.0%" height="154.2%" filterUnits="objectBoundingBox" id="filter-1">
            <feGaussianBlur stdDeviation="2.45535714" in="SourceGraphic"></feGaussianBlur>
        </filter>
    </defs>
    <g id="主界面-copy-2" stroke="none" stroke-width="1" fill="none" fill-rule="evenodd" transform="translate(-10.000000, -3.000000)">
        <g id="问题" transform="translate(16.000000, 9.000000)" fill-rule="nonzero">
            <g id="Group-14" stroke="#42EDF8">
                <path d="M15.1043156,-1.02516309 L26.5831844,5.61898732 C26.9571362,5.83543653 27.1875,6.23545117 27.1875,6.66834958 L27.1875,19.9566504 C27.1875,20.3895488 26.9571362,20.7895635 26.5831844,21.0060127 L15.1043156,27.6501631 C14.7303638,27.8666123 14.2696362,27.8666123 13.8956844,27.6501631 L2.41681562,21.0060127 C2.04286381,20.7895635 1.8125,20.3895488 1.8125,19.9566504 L1.8125,6.66834958 C1.8125,6.23545117 2.04286381,5.83543653 2.41681562,5.61898732 L13.8956844,-1.02516309 C14.2696362,-1.2416123 14.7303638,-1.2416123 15.1043156,-1.02516309 Z" id="Combined-Shape-Copy-2" filter="url(#filter-1)" transform="translate(14.500000, 13.312500) rotate(-270.000000) translate(-14.500000, -13.312500) "></path>
                <path d="M15.2918156,-0.837663094 L26.7706844,5.80648732 C27.1446362,6.02293653 27.375,6.42295117 27.375,6.85584958 L27.375,20.1441504 C27.375,20.5770488 27.1446362,20.9770635 26.7706844,21.1935127 L15.2918156,27.8376631 C14.9178638,28.0541123 14.4571362,28.0541123 14.0831844,27.8376631 L2.60431562,21.1935127 C2.23036381,20.9770635 2,20.5770488 2,20.1441504 L2,6.85584958 C2,6.42295117 2.23036381,6.02293653 2.60431562,5.80648732 L14.0831844,-0.837663094 C14.4571362,-1.0541123 14.9178638,-1.0541123 15.2918156,-0.837663094 Z" id="Combined-Shape-Copy-2" transform="translate(14.687500, 13.500000) rotate(-270.000000) translate(-14.687500, -13.500000) "></path>
            </g>
            <g transform="translate(7.700001, 7.000000)" fill="#42EDF8" id="Shape">
                <path d="M7,0 C3.13400675,-2.36723813e-16 4.73447626e-16,3.13400675 0,7 C-4.73447626e-16,10.8659932 3.13400675,14 7,14 C10.8659932,14 14,10.8659932 14,7 C14,5.14348457 13.2625021,3.36300718 11.9497475,2.05025253 C10.6369928,0.737497883 8.85651543,1.13678784e-16 7,0 M7,11.9 C6.44264845,11.8871839 5.99995585,11.4272354 6.00845122,10.8698013 C6.01694659,10.3123671 6.47344969,9.86612254 7.03093295,9.87029669 C7.5884162,9.87447083 8.038186,10.3275011 8.03833333,10.885 C8.03525666,11.1572945 7.92412837,11.4172123 7.72939924,11.6075655 C7.53467012,11.7979187 7.27229412,11.9031118 7,11.9 M9.73,6.17166667 C9.35989867,6.66079606 8.92412939,7.09656534 8.435,7.46666667 C8.18150716,7.65684373 7.96751662,7.894611 7.805,8.16666667 C7.7047254,8.46296303 7.66505024,8.77639676 7.68833333,9.08833333 L6.21833333,9.08833333 L6.21833333,8.70333333 C6.20365923,8.30153664 6.28358415,7.90191204 6.45166667,7.53666667 C6.69508153,7.13160174 7.01625084,6.778712 7.39666667,6.49833333 C7.70028818,6.26862804 7.98508219,6.01504433 8.24833333,5.74 C8.38453527,5.56264893 8.45835758,5.34528323 8.45833333,5.12166667 C8.45895826,4.81134924 8.32228559,4.51664879 8.085,4.31666667 C7.78448903,4.05995996 7.39387191,3.93395444 7,3.96666667 C6.62284218,3.9531786 6.25369691,4.07760959 5.96166667,4.31666667 C5.67252082,4.60787696 5.47395767,4.9766371 5.39,5.37833333 C5.39,5.68166667 3.885,5.81 3.90833333,5.19166667 C3.98108289,4.52577442 4.3171548,3.91664408 4.84166667,3.5 C5.43713727,2.97841174 6.20885159,2.70309744 7,2.73 C7.80529041,2.70280593 8.59169321,2.97742279 9.205,3.5 C9.71090397,3.90386106 10.0137869,4.50962686 10.0333333,5.15666667 C10.0330336,5.51729241 9.92762336,5.87001119 9.73,6.17166667"></path>
            </g>
        </g>
    </g>
</svg>
