<?xml version="1.0" encoding="UTF-8"?>
<svg width="13px" height="12px" viewBox="0 0 13 12" version="1.1" xmlns="http://www.w3.org/2000/svg" xmlns:xlink="http://www.w3.org/1999/xlink">
    <!-- Generator: Sketch 48.1 (47250) - http://www.bohemiancoding.com/sketch -->
    <title>Group 12 Copy 5</title>
    <desc>Created with Sketch.</desc>
    <defs>
        <radialGradient cx="50%" cy="50%" fx="50%" fy="50%" r="50%" gradientTransform="translate(0.500000,0.500000),scale(1.000000,0.875000),rotate(-90.000000),translate(-0.500000,-0.500000)" id="radialGradient-1">
            <stop stop-color="#165190" offset="0%"></stop>
            <stop stop-color="#023060" offset="100%"></stop>
        </radialGradient>
    </defs>
    <g id="主界面-copy" stroke="none" stroke-width="1" fill="none" fill-rule="evenodd" transform="translate(-283.000000, -438.000000)">
        <g id="Group-12-Copy-5" transform="translate(283.000000, 438.000000)" fill="url(#radialGradient-1)" fill-rule="nonzero">
            <path d="M6.50006164,0.0671738923 L11.2499384,2.81647751 C11.404677,2.9060427 11.5,3.071566 11.5,3.25069638 L11.5,8.74930362 C11.5,8.928434 11.404677,9.0939573 11.2499384,9.18352249 L6.50006164,11.9328261 C6.34532296,12.0223913 6.15467704,12.0223913 5.99993836,11.9328261 L1.25006164,9.18352249 C1.09532296,9.0939573 1,8.928434 1,8.74930362 L1,3.25069638 C1,3.071566 1.09532296,2.9060427 1.25006164,2.81647751 L5.99993836,0.0671738923 C6.15467704,-0.0223912974 6.34532296,-0.0223912974 6.50006164,0.0671738923 Z" id="Combined-Shape-Copy-7" transform="translate(6.250000, 6.000000) rotate(-270.000000) translate(-6.250000, -6.000000) "></path>
        </g>
    </g>
</svg>