<?xml version="1.0" encoding="UTF-8"?>
<svg width="13px" height="12px" viewBox="0 0 13 12" version="1.1" xmlns="http://www.w3.org/2000/svg" xmlns:xlink="http://www.w3.org/1999/xlink">
    <!-- Generator: Sketch 48.1 (47250) - http://www.bohemiancoding.com/sketch -->
    <title>历史-红方@3x</title>
    <desc>Created with Sketch.</desc>
    <defs>
        <radialGradient cx="50%" cy="50%" fx="50%" fy="50%" r="56.4540351%" gradientTransform="translate(0.500000,0.500000),scale(1.000000,0.875000),rotate(-90.000000),translate(-0.500000,-0.500000)" id="radialGradient-1">
            <stop stop-color="#7A030B" offset="0%"></stop>
            <stop stop-color="#4B020B" offset="100%"></stop>
        </radialGradient>
    </defs>
    <g id="主界面-copy-2" stroke="none" stroke-width="1" fill="none" fill-rule="evenodd" transform="translate(-215.000000, -408.000000)">
        <path d="M221.500062,408.067174 L226.249938,410.816478 C226.404677,410.906043 226.5,411.071566 226.5,411.250696 L226.5,416.749304 C226.5,416.928434 226.404677,417.093957 226.249938,417.183522 L221.500062,419.932826 C221.345323,420.022391 221.154677,420.022391 220.999938,419.932826 L216.250062,417.183522 C216.095323,417.093957 216,416.928434 216,416.749304 L216,411.250696 C216,411.071566 216.095323,410.906043 216.250062,410.816478 L220.999938,408.067174 C221.154677,407.977609 221.345323,407.977609 221.500062,408.067174 Z" id="历史-红方" fill="url(#radialGradient-1)" fill-rule="nonzero" transform="translate(221.250000, 414.000000) rotate(-270.000000) translate(-221.250000, -414.000000) "></path>
    </g>
</svg>
