<?xml version="1.0" encoding="UTF-8"?>
<svg width="12px" height="11px" viewBox="0 0 12 11" version="1.1" xmlns="http://www.w3.org/2000/svg" xmlns:xlink="http://www.w3.org/1999/xlink">
    <!-- Generator: Sketch 48.1 (47250) - http://www.bohemiancoding.com/sketch -->
    <title>Combined Shape Copy 16</title>
    <desc>Created with Sketch.</desc>
    <defs>
        <radialGradient cx="50%" cy="50%" fx="50%" fy="50%" r="50%" gradientTransform="translate(0.500000,0.500000),scale(1.000000,0.875000),rotate(-90.000000),translate(-0.500000,-0.500000)" id="radialGradient-1">
            <stop stop-color="#165190" offset="0%"></stop>
            <stop stop-color="#023060" offset="100%"></stop>
        </radialGradient>
    </defs>
    <g id="主界面-copy-4" stroke="none" stroke-width="1" fill="none" fill-rule="evenodd" transform="translate(-317.000000, -424.000000)">
        <path d="M323.250062,423.317174 L327.999938,426.066478 C328.154677,426.156043 328.25,426.321566 328.25,426.500696 L328.25,431.999304 C328.25,432.178434 328.154677,432.343957 327.999938,432.433522 L323.250062,435.182826 C323.095323,435.272391 322.904677,435.272391 322.749938,435.182826 L318.000062,432.433522 C317.845323,432.343957 317.75,432.178434 317.75,431.999304 L317.75,426.500696 C317.75,426.321566 317.845323,426.156043 318.000062,426.066478 L322.749938,423.317174 C322.904677,423.227609 323.095323,423.227609 323.250062,423.317174 Z" id="Combined-Shape-Copy-16" fill="url(#radialGradient-1)" fill-rule="nonzero" transform="translate(323.000000, 429.250000) rotate(-270.000000) translate(-323.000000, -429.250000) "></path>
    </g>
</svg>