<?xml version="1.0" encoding="UTF-8"?>
<svg width="16px" height="16px" viewBox="0 0 16 16" version="1.1" xmlns="http://www.w3.org/2000/svg" xmlns:xlink="http://www.w3.org/1999/xlink">
    <!-- Generator: Sketch 48.1 (47250) - http://www.bohemiancoding.com/sketch -->
    <title>语言</title>
    <desc>Created with Sketch.</desc>
    <defs></defs>
    <g id="设置-copy" stroke="none" stroke-width="1" fill="none" fill-rule="evenodd" transform="translate(-35.000000, -203.000000)">
        <g id="Group" transform="translate(16.000000, 89.000000)" fill="#2C799F" fill-rule="nonzero" stroke="#000000" stroke-width="0.3">
            <g id="语言" transform="translate(20.000000, 115.000000)">
                <path d="M6.9999825,0 C3.14019215,0 0,3.14019215 0,6.9999825 C0,10.8597728 3.14019215,13.999965 6.9999825,13.999965 C9.17459359,14.0065298 11.2272166,12.9960157 12.5481686,11.2685718 C12.675337,11.1035155 12.7047889,10.8831537 12.6254302,10.6904945 C12.5460714,10.4978354 12.3699584,10.3621483 12.1634313,10.3345454 C11.9569042,10.3069425 11.7513393,10.3916173 11.6241709,10.5566736 C11.2996719,10.9783142 10.919627,11.3541207 10.4943738,11.6738708 C10.4635738,10.6238734 10.2668743,9.47727631 9.02367744,8.81787796 C7.55788111,8.0401799 7.37028157,7.6425809 7.53268117,7.2393819 C7.67268082,6.92718268 7.74338064,6.85788286 8.56377859,7.13928216 C8.9991775,7.28978178 9.49337627,7.46058135 9.94067514,7.2400819 C10.1121747,7.1560821 10.3438741,6.97688255 10.4698738,6.6030835 C10.6546734,6.05288488 11.8936703,5.52438619 12.5866685,5.3220867 C12.7469681,5.85408537 12.8330679,6.41688396 12.8330679,6.9999825 C12.8330679,7.20842859 12.9442726,7.40104072 13.1247922,7.50526376 C13.3053118,7.6094868 13.5277211,7.6094868 13.7082407,7.50526376 C13.8887603,7.40104072 13.999965,7.20842859 13.999965,6.9999825 C13.999965,3.14019215 10.8597728,0 6.9999825,0 Z M9.75097562,1.85709535 C9.2826768,2.5206937 8.15287962,3.85209036 7.18478204,3.53009117 C6.1998845,3.20179199 6.27058432,2.001295 6.400784,1.31459672 C6.4076044,1.27553879 6.41088438,1.23594482 6.41058398,1.19629701 C7.56509465,1.07713876 8.72878953,1.3073416 9.75097562,1.85709535 Z M1.16689709,6.9999825 C1.16689709,6.64858338 1.19769701,6.30348424 1.25789686,5.96888508 C1.77309557,6.16208461 2.49409377,6.18448455 3.21789196,5.75048562 C3.46779133,5.599286 3.66379084,5.46488633 3.82619043,5.35288662 C4.20278949,5.09388726 4.20278949,5.09248727 4.38128905,5.17088707 C4.46038886,5.25138686 4.59198852,5.68118579 4.43378891,6.21808446 C4.28888927,6.71088322 3.88569028,7.34998163 2.78879303,7.59708101 C2.55549276,7.64898842 2.37749179,7.83801095 2.33967709,8.07400553 C2.30186239,8.31000011 2.41189185,8.54517532 2.61729345,8.66737833 C3.13739215,8.97817755 3.49999125,9.57527606 3.49999125,9.91687521 C3.49999125,10.3508741 3.49999125,10.5510736 2.798593,11.0424724 C1.75086993,9.95767392 1.16578146,8.50813041 1.16689709,6.9999825 Z M9.38487654,6.17118458 C9.23539365,6.13497943 9.08814497,6.09010364 8.94387765,6.03678491 C8.33907916,5.82888543 7.08258229,5.39628651 6.45888385,6.78158305 C5.79668551,8.42657893 7.54038115,9.35127662 8.47627881,9.84897538 C9.29317677,10.2815743 9.33307666,11.0060725 9.33307666,12.2499694 C9.33321238,12.2823456 9.33602193,12.3146554 9.34147665,12.3465691 C8.60297371,12.6687681 7.8057101,12.8344178 6.9999825,12.8330679 C5.8257255,12.8343995 4.67872623,12.4792422 3.71069072,11.8145705 C4.59198852,11.1187722 4.66688832,10.5944735 4.66688834,9.91687521 C4.66688834,9.41287647 4.42538894,8.85077788 4.03688991,8.37827905 C5.3612866,7.68248079 5.61048597,6.45118387 5.65738586,6.03048492 C5.75328562,5.15408711 5.45578637,4.39458901 4.91608771,4.13978965 C4.09708976,3.75129062 3.66379084,4.04808988 3.16469208,4.39178902 C3.01769245,4.49328876 2.84269289,4.61438846 2.61589346,4.75018812 C2.08389479,5.07078731 1.68629579,4.89648775 1.58199605,4.8383879 C2.22781667,3.23067815 3.55162663,1.99091962 5.198187,1.45179638 C5.00008749,3.05059238 5.59018601,4.22868943 6.81518296,4.63678841 C7.03358242,4.70958823 7.25898186,4.74598813 7.48928128,4.74598813 C7.93588016,4.74598813 8.39927901,4.60948847 8.85917785,4.34068914 C9.63197592,3.88779028 10.3235742,3.09329226 10.7211732,2.51159372 C11.3019745,2.99358764 11.7844385,3.58300179 12.1421696,4.24758938 C11.2573719,4.51638871 9.7999755,5.12608718 9.38487654,6.17118458 Z" id="Shape"></path>
            </g>
        </g>
    </g>
</svg>
