<?xml version="1.0" encoding="UTF-8"?>
<svg width="74px" height="30px" viewBox="0 0 74 30" version="1.1" xmlns="http://www.w3.org/2000/svg" xmlns:xlink="http://www.w3.org/1999/xlink">
    <!-- Generator: Sketch 48.1 (47250) - http://www.bohemiancoding.com/sketch -->
    <title>比分-红方@3x</title>
    <desc>Created with Sketch.</desc>
    <defs>
        <radialGradient cx="50%" cy="50%" fx="50%" fy="50%" r="56.4540351%" gradientTransform="translate(0.500000,0.500000),scale(1.000000,0.875000),rotate(-90.000000),translate(-0.500000,-0.500000)" id="radialGradient-1">
            <stop stop-color="#7A030B" offset="0%"></stop>
            <stop stop-color="#4B020B" offset="100%"></stop>
        </radialGradient>
        <linearGradient x1="50%" y1="0.807158801%" x2="50%" y2="100%" id="linearGradient-2">
            <stop stop-color="#B90817" offset="0%"></stop>
            <stop stop-color="#E70D24" offset="100%"></stop>
        </linearGradient>
    </defs>
    <g id="主界面-copy-2" stroke="none" stroke-width="1" fill="none" fill-rule="evenodd" transform="translate(-34.000000, -414.000000)">
        <g id="比分-红方" transform="translate(35.000000, 415.000000)">
            <path d="M42.0834463,-16.8768479 L50.7915537,-11.8364579 C51.0752412,-11.672255 51.25,-11.3687957 51.25,-11.04039 L51.25,39.04039 C51.25,39.3687957 51.0752412,39.672255 50.7915537,39.8364579 L42.0834463,44.8768479 C41.7997588,45.0410507 41.4502412,45.0410507 41.1665537,44.8768479 L32.4584463,39.8364579 C32.1747588,39.672255 32,39.3687957 32,39.04039 L32,-11.04039 C32,-11.3687957 32.1747588,-11.672255 32.4584463,-11.8364579 L41.1665537,-16.8768479 C41.4502412,-17.0410507 41.7997588,-17.0410507 42.0834463,-16.8768479 Z" id="Combined-Shape-Copy-4" stroke="#17416B" stroke-width="0.5" fill="#061B30" fill-rule="nonzero" transform="translate(41.625000, 14.000000) rotate(-270.000000) translate(-41.625000, -14.000000) "></path>
            <path d="M16.666831,-1.82086962 L29.333169,5.5106067 C29.7458054,5.74944721 30,6.19084267 30,6.66852368 L30,21.3314763 C30,21.8091573 29.7458054,22.2505528 29.333169,22.4893933 L16.666831,29.8208696 C16.2541946,30.0597101 15.7458054,30.0597101 15.333169,29.8208696 L2.66683103,22.4893933 C2.25419455,22.2505528 2,21.8091573 2,21.3314763 L2,6.66852368 C2,6.19084267 2.25419455,5.74944721 2.66683103,5.5106067 L15.333169,-1.82086962 C15.7458054,-2.05971013 16.2541946,-2.05971013 16.666831,-1.82086962 Z" id="Combined-Shape-Copy-2" stroke="#881320" fill="#020C15" fill-rule="nonzero" transform="translate(16.000000, 14.000000) rotate(-270.000000) translate(-16.000000, -14.000000) "></path>
            <path d="M16.6043156,-0.337663094 L28.0831844,6.30648732 C28.4571362,6.52293653 28.6875,6.92295117 28.6875,7.35584958 L28.6875,20.6441504 C28.6875,21.0770488 28.4571362,21.4770635 28.0831844,21.6935127 L16.6043156,28.3376631 C16.2303638,28.5541123 15.7696362,28.5541123 15.3956844,28.3376631 L3.91681562,21.6935127 C3.54286381,21.4770635 3.3125,21.0770488 3.3125,20.6441504 L3.3125,7.35584958 C3.3125,6.92295117 3.54286381,6.52293653 3.91681562,6.30648732 L15.3956844,-0.337663094 C15.7696362,-0.554112302 16.2303638,-0.554112302 16.6043156,-0.337663094 Z" id="Combined-Shape-Copy-2" stroke="#070A18" stroke-width="0.5" fill="url(#radialGradient-1)" fill-rule="nonzero" transform="translate(16.000000, 14.000000) rotate(-270.000000) translate(-16.000000, -14.000000) "></path>
            <path d="M16,7 L17.3125,8.3125 C16.875,8.99305556 16.65625,9.52777778 16.65625,9.91666667 C16.65625,10.5 16.7291667,9.77083333 17.75,8.89583333 C18.0416667,9.1875 18.3333333,9.47916667 18.625,9.77083333 C17.4583333,10.4513889 16.875,11.4722222 16.875,12.8333333 C16.875,14.875 18.0416667,15.1666667 18.625,15.1666667 C19.2083333,15.1666667 21.25,14.7291667 21.25,12.1041667 C21.25,9.47916667 19.4785321,7.97327092 19.7916667,8.3125 C20.8125,9.04166667 22.5625,10.0625 23,13.8541667 C23,18.2291667 19.5,21 16,21 C16,16.2847222 16,11.6180556 16,7 Z M16,7 C16,11.6180556 16,16.2847222 16,21 C12.5,21 9,18.2291667 9,13.8541667 C9.4375,10.0625 11.1875,9.04166667 12.2083333,8.3125 C12.5214679,7.97327092 10.75,9.47916667 10.75,12.1041667 C10.75,14.7291667 12.7916667,15.1666667 13.375,15.1666667 C13.9583333,15.1666667 15.125,14.875 15.125,12.8333333 C15.125,11.4722222 14.5416667,10.4513889 13.375,9.77083333 C13.6666667,9.47916667 13.9583333,9.1875 14.25,8.89583333 C15.2708333,9.77083333 15.34375,10.5 15.34375,9.91666667 C15.34375,9.52777778 15.125,8.99305556 14.6875,8.3125 L16,7 Z" id="Combined-Shape" fill="url(#linearGradient-2)"></path>
        </g>
    </g>
</svg>