<?xml version="1.0" encoding="UTF-8"?>
<svg width="74px" height="30px" viewBox="0 0 74 30" version="1.1" xmlns="http://www.w3.org/2000/svg" xmlns:xlink="http://www.w3.org/1999/xlink">
    <!-- Generator: Sketch 48.1 (47250) - http://www.bohemiancoding.com/sketch -->
    <title>比分-蓝方@3x</title>
    <desc>Created with Sketch.</desc>
    <defs>
        <radialGradient cx="50%" cy="50%" fx="50%" fy="50%" r="50%" gradientTransform="translate(0.500000,0.500000),scale(1.000000,0.875000),rotate(-90.000000),translate(-0.500000,-0.500000)" id="radialGradient-1">
            <stop stop-color="#435476" offset="0%"></stop>
            <stop stop-color="#2B3247" offset="100%"></stop>
        </radialGradient>
        <radialGradient cx="50%" cy="50%" fx="50%" fy="50%" r="38.8203431%" id="radialGradient-2">
            <stop stop-color="#FFFFFF" offset="0%"></stop>
            <stop stop-color="#42EDF8" offset="100%"></stop>
        </radialGradient>
    </defs>
    <g id="主界面-copy-2" stroke="none" stroke-width="1" fill="none" fill-rule="evenodd" transform="translate(-117.000000, -414.000000)">
        <g id="比分-蓝方" transform="translate(118.000000, 415.000000)">
            <path d="M42.0834463,-16.8768479 L50.7915537,-11.8364579 C51.0752412,-11.672255 51.25,-11.3687957 51.25,-11.04039 L51.25,39.04039 C51.25,39.3687957 51.0752412,39.672255 50.7915537,39.8364579 L42.0834463,44.8768479 C41.7997588,45.0410507 41.4502412,45.0410507 41.1665537,44.8768479 L32.4584463,39.8364579 C32.1747588,39.672255 32,39.3687957 32,39.04039 L32,-11.04039 C32,-11.3687957 32.1747588,-11.672255 32.4584463,-11.8364579 L41.1665537,-16.8768479 C41.4502412,-17.0410507 41.7997588,-17.0410507 42.0834463,-16.8768479 Z" id="Combined-Shape-Copy-4" stroke="#17416B" stroke-width="0.5" fill="#061B30" fill-rule="nonzero" transform="translate(41.625000, 14.000000) rotate(-270.000000) translate(-41.625000, -14.000000) "></path>
            <path d="M16.666831,-1.82086962 L29.333169,5.5106067 C29.7458054,5.74944721 30,6.19084267 30,6.66852368 L30,21.3314763 C30,21.8091573 29.7458054,22.2505528 29.333169,22.4893933 L16.666831,29.8208696 C16.2541946,30.0597101 15.7458054,30.0597101 15.333169,29.8208696 L2.66683103,22.4893933 C2.25419455,22.2505528 2,21.8091573 2,21.3314763 L2,6.66852368 C2,6.19084267 2.25419455,5.74944721 2.66683103,5.5106067 L15.333169,-1.82086962 C15.7458054,-2.05971013 16.2541946,-2.05971013 16.666831,-1.82086962 Z" id="Combined-Shape-Copy-2" stroke="#5D6771" fill="#020C15" fill-rule="nonzero" transform="translate(16.000000, 14.000000) rotate(-270.000000) translate(-16.000000, -14.000000) "></path>
            <path d="M16.6117579,-0.514235299 L28.2319921,6.21173963 C28.6105492,6.43085447 28.84375,6.83579539 28.84375,7.27402507 L28.84375,20.7259749 C28.84375,21.1642046 28.6105492,21.5691455 28.2319921,21.7882604 L16.6117579,28.5142353 C16.2332008,28.7333501 15.7667992,28.7333501 15.3882421,28.5142353 L3.76800793,21.7882604 C3.38945081,21.5691455 3.15625,21.1642046 3.15625,20.7259749 L3.15625,7.27402507 C3.15625,6.83579539 3.38945081,6.43085447 3.76800793,6.21173963 L15.3882421,-0.514235299 C15.7667992,-0.733350138 16.2332008,-0.733350138 16.6117579,-0.514235299 Z" id="Combined-Shape-Copy-2" stroke="#070A18" stroke-width="0.5" fill="url(#radialGradient-1)" fill-rule="nonzero" transform="translate(16.000000, 14.000000) rotate(-270.000000) translate(-16.000000, -14.000000) "></path>
            <path d="M20.9074106,16.5694239 L21.5424371,16.9360566 C22.0074214,16.0601206 22.2708333,15.0608219 22.2708333,14 C22.2708333,12.9842299 22.0293199,12.0248683 21.6005836,11.1762059 L20.9634324,11.5440653 C21.0882416,11.8027794 21.2344626,12.1431034 21.4020954,12.565037 L20.9366562,12.698181 C21.0459563,13.1137779 21.1041667,13.5500911 21.1041667,14 C21.1041667,14.4499089 21.0459563,14.8862221 20.9366562,15.301819 L21.4020954,15.434963 C21.2087022,15.9217357 21.0438073,16.2998893 20.9074106,16.5694239 Z M20.6086181,17.0704912 C20.4469696,17.3079362 20.2253509,17.6047292 19.9437621,17.9608704 L19.5948358,17.6234894 C18.977619,18.2358558 18.2047963,18.6916134 17.340926,18.926204 L17.4583333,19.3958333 C16.9753828,19.4665658 16.586494,19.5115681 16.2916667,19.5308403 L16.2916667,20.2641705 C18.3643181,20.1692778 20.1745183,19.0682104 21.2452087,17.438027 L20.6086181,17.0704912 Z M20.6788917,11.0347696 L21.3135518,10.6683484 C20.2525992,8.97982684 18.4090889,7.83277197 16.2916667,7.73582949 L16.2916667,8.4691597 C16.586494,8.48843191 16.9753828,8.53343423 17.4583333,8.60416667 L17.340926,9.07379602 C18.2047963,9.30838661 18.977619,9.76414421 19.5948358,10.3765106 L19.9437621,10.0391296 C20.268623,10.4499994 20.5136662,10.7818794 20.6788917,11.0347696 Z M15.7083333,19.5308403 C15.413506,19.5115681 15.0246172,19.4665658 14.5416667,19.3958333 L14.659074,18.926204 C13.4638863,18.6016416 12.4429771,17.8537333 11.7673142,16.8534466 L10.7547913,17.438027 C11.8254817,19.0682104 13.6356819,20.1692778 15.7083333,20.2641705 L15.7083333,19.5308403 Z M15.7083333,8.4691597 L15.7083333,7.73582949 C13.5909111,7.83277197 11.7474008,8.97982684 10.6864482,10.6683484 L11.6978046,11.2522553 C12.371892,10.1990149 13.422152,9.40969167 14.659074,9.07379602 L14.5416667,8.60416667 C15.0246172,8.53343423 15.413506,8.48843191 15.7083333,8.4691597 Z M14.2792156,15.3507278 C14.6194873,15.7836207 15.1195884,16.0849467 15.6906016,16.1657886 L15.4166667,18.0833333 L16.5833333,18.0833333 L16.3093984,16.1657886 C16.8804116,16.0849467 17.3805127,15.7836207 17.7207844,15.3507278 L19.2446037,16.5468482 L19.8279371,15.5364852 L18.0306093,14.8150607 C18.1318104,14.5631661 18.1875,14.2880866 18.1875,14 C18.1875,13.7119134 18.1318104,13.4368339 18.0306093,13.1849393 L19.8279371,12.4635148 L19.2446037,11.4531518 L17.7207844,12.6492722 C17.3805127,12.2163793 16.8804116,11.9150533 16.3093984,11.8342114 L16.5833333,9.91666667 L15.4166667,9.91666667 L15.6906016,11.8342114 C15.1195884,11.9150533 14.6194873,12.2163793 14.2792156,12.6492722 L12.7553963,11.4531518 L12.1720629,12.4635148 L13.9693907,13.1849393 C13.8681896,13.4368339 13.8125,13.7119134 13.8125,14 C13.8125,14.2880866 13.8681896,14.5631661 13.9693907,14.8150607 L12.1720629,15.5364852 L12.7553963,16.5468482 L14.2792156,15.3507278 Z M11.4689212,16.3521486 C11.1027721,15.648251 10.8958333,14.8482921 10.8958333,14 C10.8958333,13.1967532 11.0813782,12.4368428 11.4119463,11.7607903 L10.3994164,11.1762059 C9.97068014,12.0248683 9.72916667,12.9842299 9.72916667,14 C9.72916667,15.0608219 9.9925786,16.0601206 10.4575629,16.9360566 L11.4689212,16.3521486 Z M16,21 C12.1340068,21 9,17.8659932 9,14 C9,10.1340068 12.1340068,7 16,7 C19.8659932,7 23,10.1340068 23,14 C23,17.8659932 19.8659932,21 16,21 Z" id="Combined-Shape" fill="url(#radialGradient-2)"></path>
        </g>
    </g>
</svg>