<?xml version="1.0" encoding="UTF-8"?>
<svg width="69px" height="28px" viewBox="0 0 69 28" version="1.1" xmlns="http://www.w3.org/2000/svg" xmlns:xlink="http://www.w3.org/1999/xlink">
    <!-- Generator: Sketch 48.1 (47250) - http://www.bohemiancoding.com/sketch -->
    <title>Group 2 Copy</title>
    <desc>Created with Sketch.</desc>
    <defs>
        <radialGradient cx="50%" cy="50%" fx="50%" fy="50%" r="50%" gradientTransform="translate(0.500000,0.500000),scale(1.000000,0.875000),rotate(-90.000000),translate(-0.500000,-0.500000)" id="radialGradient-1">
            <stop stop-color="#2977C9" offset="0%"></stop>
            <stop stop-color="#023060" offset="100%"></stop>
        </radialGradient>
        <radialGradient cx="50%" cy="50%" fx="50%" fy="50%" r="50%" gradientTransform="translate(0.500000,0.500000),scale(1.000000,0.875000),rotate(-90.000000),translate(-0.500000,-0.500000)" id="radialGradient-2">
            <stop stop-color="#104174" offset="0%"></stop>
            <stop stop-color="#023060" offset="100%"></stop>
        </radialGradient>
        <radialGradient cx="50%" cy="50%" fx="50%" fy="50%" r="38.8203431%" id="radialGradient-3">
            <stop stop-color="#FFFFFF" offset="0%"></stop>
            <stop stop-color="#42EDF8" offset="100%"></stop>
        </radialGradient>
    </defs>
    <g id="主界面-copy-4" stroke="none" stroke-width="1" fill="none" fill-rule="evenodd" transform="translate(-107.000000, -415.000000)">
        <g id="Group-2-Copy" transform="translate(108.000000, 416.000000)">
            <path d="M39.0774859,-15.6713587 L47.1635855,-10.9909966 C47.4270097,-10.8385225 47.5892857,-10.5567388 47.5892857,-10.2517907 L47.5892857,36.2517907 C47.5892857,36.5567388 47.4270097,36.8385225 47.1635855,36.9909966 L39.0774859,41.6713587 C38.8140617,41.8238328 38.4895097,41.8238328 38.2260855,41.6713587 L30.1399859,36.9909966 C29.8765617,36.8385225 29.7142857,36.5567388 29.7142857,36.2517907 L29.7142857,-10.2517907 C29.7142857,-10.5567388 29.8765617,-10.8385225 30.1399859,-10.9909966 L38.2260855,-15.6713587 C38.4895097,-15.8238328 38.8140617,-15.8238328 39.0774859,-15.6713587 Z" id="Combined-Shape-Copy-4" stroke="#17416B" stroke-width="0.5" fill="#061B30" fill-rule="nonzero" transform="translate(38.651786, 13.000000) rotate(-270.000000) translate(-38.651786, -13.000000) "></path>
            <path d="M15.4763431,-1.6908075 L27.2379426,5.11699194 C27.6211051,5.33877241 27.8571429,5.74863962 27.8571429,6.19220056 L27.8571429,19.8077994 C27.8571429,20.2513604 27.6211051,20.6612276 27.2379426,20.8830081 L15.4763431,27.6908075 C15.0931807,27.912588 14.6211051,27.912588 14.2379426,27.6908075 L2.4763431,20.8830081 C2.09318066,20.6612276 1.85714286,20.2513604 1.85714286,19.8077994 L1.85714286,6.19220056 C1.85714286,5.74863962 2.09318066,5.33877241 2.4763431,5.11699194 L14.2379426,-1.6908075 C14.6211051,-1.91258797 15.0931807,-1.91258797 15.4763431,-1.6908075 Z" id="Combined-Shape-Copy-2" stroke="#0E5299" fill="url(#radialGradient-1)" fill-rule="nonzero" transform="translate(14.857143, 13.000000) rotate(-270.000000) translate(-14.857143, -13.000000) "></path>
            <path d="M15.4252038,-0.477504207 L26.2154212,5.76804394 C26.5669385,5.97150772 26.7834821,6.34752429 26.7834821,6.75445185 L26.7834821,19.2455481 C26.7834821,19.6524757 26.5669385,20.0284923 26.2154212,20.2319561 L15.4252038,26.4775042 C15.0736865,26.680968 14.6405993,26.680968 14.2890819,26.4775042 L3.49886451,20.2319561 C3.14734718,20.0284923 2.93080357,19.6524757 2.93080357,19.2455481 L2.93080357,6.75445185 C2.93080357,6.34752429 3.14734718,5.97150772 3.49886451,5.76804394 L14.2890819,-0.477504207 C14.6405993,-0.680967986 15.0736865,-0.680967986 15.4252038,-0.477504207 Z" id="Combined-Shape-Copy-2" stroke="#070A18" stroke-width="0.5" fill="url(#radialGradient-2)" fill-rule="nonzero" transform="translate(14.857143, 13.000000) rotate(-270.000000) translate(-14.857143, -13.000000) "></path>
            <path d="M19.4140242,15.3858936 L20.0036916,15.7263382 C20.4354627,14.9129691 20.6800595,13.9850489 20.6800595,13 C20.6800595,12.0567849 20.455797,11.1659492 20.0576848,10.3779055 L19.4660444,10.7194892 C19.5819386,10.9597238 19.7177152,11.2757388 19.8733743,11.6675344 L19.4411807,11.7911681 C19.5426737,12.1770795 19.5967262,12.5822274 19.5967262,13 C19.5967262,13.4177726 19.5426737,13.8229205 19.4411807,14.2088319 L19.8733743,14.3324656 C19.6937949,14.7844689 19.5406782,15.1356115 19.4140242,15.3858936 Z M19.1365739,15.8511704 C18.9864718,16.071655 18.780683,16.3472486 18.5192076,16.6779511 L18.1952047,16.3646687 C17.6220748,16.9332947 16.9044537,17.3564981 16.1022884,17.5743323 L16.2113095,18.0104167 C15.7628555,18.0760968 15.4017444,18.1178847 15.1279762,18.1357803 L15.1279762,18.8167298 C17.0525811,18.7286151 18.7334813,17.7061954 19.7276938,16.1924536 L19.1365739,15.8511704 Z M19.201828,10.2465718 L19.7911553,9.90632354 C18.8059849,8.33841064 17.094154,7.27328825 15.1279762,7.18327024 L15.1279762,7.86421972 C15.4017444,7.88211535 15.7628555,7.92390322 16.2113095,7.98958333 L16.1022884,8.42566773 C16.9044537,8.64350185 17.6220748,9.06670534 18.1952047,9.63533128 L18.5192076,9.32204893 C18.8208643,9.70357086 19.0484044,10.0117452 19.201828,10.2465718 Z M14.5863095,18.1357803 C14.3125413,18.1178847 13.9514302,18.0760968 13.5029762,18.0104167 L13.6119973,17.5743323 C12.5021802,17.2729529 11.554193,16.5784666 10.9267917,15.649629 L9.98659196,16.1924536 C10.9808045,17.7061954 12.6617047,18.7286151 14.5863095,18.8167298 L14.5863095,18.1357803 Z M14.5863095,7.86421972 L14.5863095,7.18327024 C12.6201318,7.27328825 10.9083008,8.33841064 9.92313043,9.90632354 L10.8622471,10.4485228 C11.4881855,9.47051381 12.4634268,8.73757083 13.6119973,8.42566773 L13.5029762,7.98958333 C13.9514302,7.92390322 14.3125413,7.88211535 14.5863095,7.86421972 Z M13.2592716,14.2542473 C13.5752382,14.6562192 14.0396178,14.9360219 14.5698444,15.0110894 L14.3154762,16.7916667 L15.3988095,16.7916667 L15.1444413,15.0110894 C15.674668,14.9360219 16.1390475,14.6562192 16.4550141,14.2542473 L17.8699892,15.3649304 L18.4116558,14.4267362 L16.7427087,13.7568421 C16.8366811,13.52294 16.8883929,13.267509 16.8883929,13 C16.8883929,12.732491 16.8366811,12.47706 16.7427087,12.2431579 L18.4116558,11.5732638 L17.8699892,10.6350696 L16.4550141,11.7457527 C16.1390475,11.3437808 15.674668,11.0639781 15.1444413,10.9889106 L15.3988095,9.20833333 L14.3154762,9.20833333 L14.5698444,10.9889106 C14.0396178,11.0639781 13.5752382,11.3437808 13.2592716,11.7457527 L11.8442965,10.6350696 L11.3026299,11.5732638 L12.971577,12.2431579 C12.8776046,12.47706 12.8258929,12.732491 12.8258929,13 C12.8258929,13.267509 12.8776046,13.52294 12.971577,13.7568421 L11.3026299,14.4267362 L11.8442965,15.3649304 L13.2592716,14.2542473 Z M10.6497125,15.184138 C10.3097169,14.5305188 10.1175595,13.7876998 10.1175595,13 C10.1175595,12.254128 10.2898512,11.5484969 10.5968073,10.9207338 L9.65660096,10.3779055 C9.2584887,11.1659492 9.03422619,12.0567849 9.03422619,13 C9.03422619,13.9850489 9.27882298,14.9129691 9.71059413,15.7263382 L10.6497125,15.184138 Z M14.8571429,19.5 C11.267292,19.5 8.35714286,16.5898509 8.35714286,13 C8.35714286,9.41014913 11.267292,6.5 14.8571429,6.5 C18.4469937,6.5 21.3571429,9.41014913 21.3571429,13 C21.3571429,16.5898509 18.4469937,19.5 14.8571429,19.5 Z" id="Combined-Shape" fill="url(#radialGradient-3)"></path>
        </g>
    </g>
</svg>