<?xml version="1.0" encoding="UTF-8"?>
<svg width="69px" height="28px" viewBox="0 0 69 28" version="1.1" xmlns="http://www.w3.org/2000/svg" xmlns:xlink="http://www.w3.org/1999/xlink">
    <!-- Generator: Sketch 48.1 (47250) - http://www.bohemiancoding.com/sketch -->
    <title>Group 2</title>
    <desc>Created with Sketch.</desc>
    <defs>
        <radialGradient cx="50%" cy="50%" fx="50%" fy="50%" r="56.4540351%" gradientTransform="translate(0.500000,0.500000),scale(1.000000,0.875000),rotate(-90.000000),translate(-0.500000,-0.500000)" id="radialGradient-1">
            <stop stop-color="#7A030B" offset="0%"></stop>
            <stop stop-color="#4B020B" offset="100%"></stop>
        </radialGradient>
        <linearGradient x1="50%" y1="0.807158801%" x2="50%" y2="100%" id="linearGradient-2">
            <stop stop-color="#B90817" offset="0%"></stop>
            <stop stop-color="#E70D24" offset="100%"></stop>
        </linearGradient>
    </defs>
    <g id="主界面-copy-4" stroke="none" stroke-width="1" fill="none" fill-rule="evenodd" transform="translate(-29.000000, -415.000000)">
        <g id="Group-2" transform="translate(30.000000, 416.000000)">
            <path d="M39.3632002,-15.8856444 L47.4492998,-11.2052823 C47.712724,-11.0528083 47.875,-10.7710245 47.875,-10.4660764 L47.875,36.037505 C47.875,36.3424531 47.712724,36.6242368 47.4492998,36.7767109 L39.3632002,41.457073 C39.099776,41.6095471 38.775224,41.6095471 38.5117998,41.457073 L30.4257002,36.7767109 C30.162276,36.6242368 30,36.3424531 30,36.037505 L30,-10.4660764 C30,-10.7710245 30.162276,-11.0528083 30.4257002,-11.2052823 L38.5117998,-15.8856444 C38.775224,-16.0381185 39.099776,-16.0381185 39.3632002,-15.8856444 Z" id="Combined-Shape-Copy-4" stroke="#17416B" stroke-width="0.5" fill="#061B30" fill-rule="nonzero" transform="translate(38.937500, 12.785714) rotate(-270.000000) translate(-38.937500, -12.785714) "></path>
            <path d="M15.4763431,-1.6908075 L27.2379426,5.11699194 C27.6211051,5.33877241 27.8571429,5.74863962 27.8571429,6.19220056 L27.8571429,19.8077994 C27.8571429,20.2513604 27.6211051,20.6612276 27.2379426,20.8830081 L15.4763431,27.6908075 C15.0931807,27.912588 14.6211051,27.912588 14.2379426,27.6908075 L2.4763431,20.8830081 C2.09318066,20.6612276 1.85714286,20.2513604 1.85714286,19.8077994 L1.85714286,6.19220056 C1.85714286,5.74863962 2.09318066,5.33877241 2.4763431,5.11699194 L14.2379426,-1.6908075 C14.6211051,-1.91258797 15.0931807,-1.91258797 15.4763431,-1.6908075 Z" id="Combined-Shape-Copy-2" stroke="#881320" fill="#020C15" fill-rule="nonzero" transform="translate(14.857143, 13.000000) rotate(-270.000000) translate(-14.857143, -13.000000) "></path>
            <path d="M15.4182931,-0.313544301 L26.0772426,5.85602394 C26.4244836,6.05701249 26.6383929,6.42845465 26.6383929,6.83043175 L26.6383929,19.1695682 C26.6383929,19.5715453 26.4244836,19.9429875 26.0772426,20.1439761 L15.4182931,26.3135443 C15.0710521,26.5145329 14.6432336,26.5145329 14.2959926,26.3135443 L3.63704308,20.1439761 C3.28980211,19.9429875 3.07589286,19.5715453 3.07589286,19.1695682 L3.07589286,6.83043175 C3.07589286,6.42845465 3.28980211,6.05701249 3.63704308,5.85602394 L14.2959926,-0.313544301 C14.6432336,-0.514532852 15.0710521,-0.514532852 15.4182931,-0.313544301 Z" id="Combined-Shape-Copy-2" stroke="#070A18" stroke-width="0.5" fill="url(#radialGradient-1)" fill-rule="nonzero" transform="translate(14.857143, 13.000000) rotate(-270.000000) translate(-14.857143, -13.000000) "></path>
            <path d="M14.8571429,6.5 L16.0758929,7.71875 C15.6696429,8.35069444 15.4665179,8.84722222 15.4665179,9.20833333 C15.4665179,9.75 15.5342262,9.07291667 16.4821429,8.26041667 C16.7529762,8.53125 17.0238095,8.80208333 17.2946429,9.07291667 C16.2113095,9.70486111 15.6696429,10.6527778 15.6696429,11.9166667 C15.6696429,13.8125 16.7529762,14.0833333 17.2946429,14.0833333 C17.8363095,14.0833333 19.7321429,13.6770833 19.7321429,11.2395833 C19.7321429,8.80208333 18.0872084,7.40375157 18.3779762,7.71875 C19.3258929,8.39583333 20.9508929,9.34375 21.3571429,12.8645833 C21.3571429,16.9270833 18.1071429,19.5 14.8571429,19.5 C14.8571429,15.1215278 14.8571429,10.7881944 14.8571429,6.5 Z M14.8571429,6.5 C14.8571429,10.7881944 14.8571429,15.1215278 14.8571429,19.5 C11.6071429,19.5 8.35714286,16.9270833 8.35714286,12.8645833 C8.76339286,9.34375 10.3883929,8.39583333 11.3363095,7.71875 C11.6270773,7.40375157 9.98214286,8.80208333 9.98214286,11.2395833 C9.98214286,13.6770833 11.8779762,14.0833333 12.4196429,14.0833333 C12.9613095,14.0833333 14.0446429,13.8125 14.0446429,11.9166667 C14.0446429,10.6527778 13.5029762,9.70486111 12.4196429,9.07291667 C12.6904762,8.80208333 12.9613095,8.53125 13.2321429,8.26041667 C14.1800595,9.07291667 14.2477679,9.75 14.2477679,9.20833333 C14.2477679,8.84722222 14.0446429,8.35069444 13.6383929,7.71875 L14.8571429,6.5 Z" id="Combined-Shape" fill="url(#linearGradient-2)"></path>
        </g>
    </g>
</svg>