<?xml version="1.0" encoding="UTF-8"?>
<svg width="207px" height="84px" viewBox="0 0 207 84" version="1.1" xmlns="http://www.w3.org/2000/svg" xmlns:xlink="http://www.w3.org/1999/xlink">
    <!-- Generator: Sketch 48.1 (47250) - http://www.bohemiancoding.com/sketch -->
    <title>开始下注</title>
    <desc>Created with Sketch.</desc>
    <defs>
        <filter x="-18.1%" y="-85.0%" width="136.2%" height="269.9%" filterUnits="objectBoundingBox" id="filter-1">
            <feGaussianBlur stdDeviation="10" in="SourceGraphic"></feGaussianBlur>
        </filter>
        <filter x="-13.7%" y="-319.5%" width="127.5%" height="739.1%" filterUnits="objectBoundingBox" id="filter-2">
            <feGaussianBlur stdDeviation="7.44419643" in="SourceGraphic"></feGaussianBlur>
        </filter>
    </defs>
    <g id="主界面-copy-7" stroke="none" stroke-width="1" fill="none" fill-rule="evenodd" transform="translate(-80.000000, -248.000000)">
        <g id="开始下注" transform="translate(101.000000, 272.000000)">
            <path d="M14.5718043,0.767045455 L49.2422588,0.767045455 L47.0801161,6.13636364 L44.9323889,6.13636364 L41.2258585,15.3409091 L43.3735858,15.3409091 L41.2114431,20.7102273 L39.0637158,20.7102273 L33.1950428,35.2840909 L27.3654973,35.2840909 L33.2341704,20.7102273 L15.1318976,20.7102273 L10.3751837,32.5227273 C9.63250102,34.8750118 8.17735976,35.9488647 6.00971626,35.7443182 L0.640398077,35.7443182 L2.43188774,31.2954545 L4.27279683,31.2954545 C4.88643627,31.2954545 5.2656653,30.9886394 5.41049532,30.375 L9.30235218,20.7102273 L6.69439764,20.7102273 L8.85654034,15.3409091 L11.4644949,15.3409091 L15.1710252,6.13636364 L12.4096616,6.13636364 L14.5718043,0.767045455 Z M39.1028434,6.13636364 L21.0005707,6.13636364 L17.2940403,15.3409091 L35.3963131,15.3409091 L39.1028434,6.13636364 Z M66.2099196,11.9659091 L76.7642616,0.613636364 L82.440398,0.613636364 L71.4536275,13.0397727 L78.0502184,13.0397727 C78.5004952,12.9374995 78.7874051,12.7329561 78.9109568,12.4261364 L81.3860957,4.75568182 L86.1417775,4.75568182 L83.4493946,13.3465909 C82.3998922,15.6988754 80.6578411,16.9772717 78.2231888,17.1818182 L64.1095525,17.1818182 L66.2099196,11.9659091 Z M52.4298681,24.8522727 L54.8288161,22.7045455 C55.3415552,22.1931793 55.700879,21.6818207 55.9067984,21.1704545 L60.7870633,9.05113636 L56.798427,9.05113636 L51.8563865,21.3238636 C51.6092833,21.9375031 51.5773662,22.3977257 51.7606342,22.7045455 L52.4298681,24.8522727 Z M65.6961543,9.05113636 L59.9510322,23.3181818 C59.7238344,24.1363677 59.1180975,25.0056772 58.1338032,25.9261364 L54.3819721,29.1477273 L55.2684499,30.375 C55.634986,30.9886394 56.1250665,31.2954545 56.7387059,31.2954545 L58.2727968,31.2954545 L56.6666337,35.2840909 L52.6779973,35.2840909 C51.4507185,35.2840909 50.5621902,34.8238682 50.012386,33.9034091 L49.2793173,32.6761364 L46.9740622,34.2102273 C45.6829482,35.1306864 44.3420906,35.5397732 42.9514491,35.4375 L40.0366764,35.4375 L41.7663905,31.1420455 L42.6868451,31.1420455 C43.7095775,31.1420455 44.3132551,31.0397737 44.4978961,30.8352273 L46.9565602,29.3011364 L45.5861751,25.4659091 C45.587548,24.9545429 45.7941508,24.1875051 46.2059895,23.1647727 L51.8893361,9.05113636 L50.8154724,9.05113636 L52.7305131,4.29545455 L53.8043767,4.29545455 L55.2252134,0.767045455 L60.1343043,0.767045455 L58.7134677,4.29545455 L62.702104,4.29545455 L64.1229407,0.767045455 L69.0320316,0.767045455 L67.6111949,4.29545455 L69.2986949,4.29545455 L67.3836543,9.05113636 L65.6961543,9.05113636 Z M64.1970673,18.8693182 L80.7652492,18.8693182 L75.6996577,31.4488636 C74.7112447,33.9034214 73.040921,35.1306818 70.6886365,35.1306818 L57.6488637,35.1306818 L64.1970673,18.8693182 Z M69.2266178,31.1420455 C70.3104395,31.2443187 71.048306,30.6818243 71.4402393,29.4545455 L73.973035,23.1647727 L67.3764441,23.1647727 L64.1641178,31.1420455 L69.2266178,31.1420455 Z M91.3257692,5.21590909 L93.2408098,0.460227273 L128.218083,0.460227273 L126.303042,5.21590909 L108.814406,5.21590909 L96.7681819,35.1306818 L91.0920456,35.1306818 L103.138269,5.21590909 L91.3257692,5.21590909 Z M109.503201,11.5056818 L114.872519,11.5056818 L113.469184,19.9431818 C113.13834,21.2727339 113.504871,21.8863641 114.568787,21.7840909 L117.790378,21.7840909 L115.690011,27 L109.246829,27 C107.323543,27.2045465 106.65157,26.0795577 107.23089,23.625 L109.503201,11.5056818 Z M143.431322,2.30113636 L152.022231,2.30113636 L152.578211,0.920454545 L158.100938,0.920454545 L157.544958,2.30113636 L166.289277,2.30113636 L164.497787,6.75 L155.906878,6.75 L152.015021,16.4147727 L160.452521,16.4147727 L158.53748,21.1704545 L150.09998,21.1704545 L146.269899,30.6818182 L155.321035,30.6818182 L153.529546,35.1306818 L129.597727,35.1306818 L131.389217,30.6818182 L140.593762,30.6818182 L144.423844,21.1704545 L135.986344,21.1704545 L137.901385,16.4147727 L146.338885,16.4147727 L150.230741,6.75 L141.639832,6.75 L143.431322,2.30113636 Z M133.711979,11.1988636 C131.175054,11.4034101 130.247401,10.2784214 130.928995,7.82386364 L132.328211,0.920454545 L138.004347,0.920454545 L137.195087,5.21590909 C136.885522,6.23864148 137.313827,6.69886415 138.480017,6.59659091 L140.781153,6.59659091 L138.927888,11.1988636 L133.711979,11.1988636 Z M128.497097,22.2443182 C126.328081,22.5511379 125.563789,21.5284209 126.204198,19.1761364 L127.111269,12.7329545 L132.940815,12.7329545 L132.532066,16.4147727 C132.304869,17.2329586 132.549222,17.6420455 133.265135,17.6420455 L136.486726,17.6420455 L134.633461,22.2443182 L128.497097,22.2443182 Z M121.692527,31.1420455 C122.571802,31.2443187 123.319621,30.784096 123.936006,29.7613636 L128.094527,23.625 L134.23089,23.625 L128.96247,31.7556818 C127.339139,34.5170593 125.464272,35.7443197 123.337813,35.4375 L118.275313,35.4375 L120.005027,31.1420455 L121.692527,31.1420455 Z" fill="#42EDF8" filter="url(#filter-1)"></path>
            <polygon id="Rectangle-9" fill="#FFFFFF" filter="url(#filter-2)" points="92.1322314 15.5454545 172.46281 19.5392912 92.1322314 22.5346687 9.81818182 19.5392912"></polygon>
            <path d="M14.5718043,0.767045455 L49.2422588,0.767045455 L47.0801161,6.13636364 L44.9323889,6.13636364 L41.2258585,15.3409091 L43.3735858,15.3409091 L41.2114431,20.7102273 L39.0637158,20.7102273 L33.1950428,35.2840909 L27.3654973,35.2840909 L33.2341704,20.7102273 L15.1318976,20.7102273 L10.3751837,32.5227273 C9.63250102,34.8750118 8.17735976,35.9488647 6.00971626,35.7443182 L0.640398077,35.7443182 L2.43188774,31.2954545 L4.27279683,31.2954545 C4.88643627,31.2954545 5.2656653,30.9886394 5.41049532,30.375 L9.30235218,20.7102273 L6.69439764,20.7102273 L8.85654034,15.3409091 L11.4644949,15.3409091 L15.1710252,6.13636364 L12.4096616,6.13636364 L14.5718043,0.767045455 Z M39.1028434,6.13636364 L21.0005707,6.13636364 L17.2940403,15.3409091 L35.3963131,15.3409091 L39.1028434,6.13636364 Z M66.2099196,11.9659091 L76.7642616,0.613636364 L82.440398,0.613636364 L71.4536275,13.0397727 L78.0502184,13.0397727 C78.5004952,12.9374995 78.7874051,12.7329561 78.9109568,12.4261364 L81.3860957,4.75568182 L86.1417775,4.75568182 L83.4493946,13.3465909 C82.3998922,15.6988754 80.6578411,16.9772717 78.2231888,17.1818182 L64.1095525,17.1818182 L66.2099196,11.9659091 Z M52.4298681,24.8522727 L54.8288161,22.7045455 C55.3415552,22.1931793 55.700879,21.6818207 55.9067984,21.1704545 L60.7870633,9.05113636 L56.798427,9.05113636 L51.8563865,21.3238636 C51.6092833,21.9375031 51.5773662,22.3977257 51.7606342,22.7045455 L52.4298681,24.8522727 Z M65.6961543,9.05113636 L59.9510322,23.3181818 C59.7238344,24.1363677 59.1180975,25.0056772 58.1338032,25.9261364 L54.3819721,29.1477273 L55.2684499,30.375 C55.634986,30.9886394 56.1250665,31.2954545 56.7387059,31.2954545 L58.2727968,31.2954545 L56.6666337,35.2840909 L52.6779973,35.2840909 C51.4507185,35.2840909 50.5621902,34.8238682 50.012386,33.9034091 L49.2793173,32.6761364 L46.9740622,34.2102273 C45.6829482,35.1306864 44.3420906,35.5397732 42.9514491,35.4375 L40.0366764,35.4375 L41.7663905,31.1420455 L42.6868451,31.1420455 C43.7095775,31.1420455 44.3132551,31.0397737 44.4978961,30.8352273 L46.9565602,29.3011364 L45.5861751,25.4659091 C45.587548,24.9545429 45.7941508,24.1875051 46.2059895,23.1647727 L51.8893361,9.05113636 L50.8154724,9.05113636 L52.7305131,4.29545455 L53.8043767,4.29545455 L55.2252134,0.767045455 L60.1343043,0.767045455 L58.7134677,4.29545455 L62.702104,4.29545455 L64.1229407,0.767045455 L69.0320316,0.767045455 L67.6111949,4.29545455 L69.2986949,4.29545455 L67.3836543,9.05113636 L65.6961543,9.05113636 Z M64.1970673,18.8693182 L80.7652492,18.8693182 L75.6996577,31.4488636 C74.7112447,33.9034214 73.040921,35.1306818 70.6886365,35.1306818 L57.6488637,35.1306818 L64.1970673,18.8693182 Z M69.2266178,31.1420455 C70.3104395,31.2443187 71.048306,30.6818243 71.4402393,29.4545455 L73.973035,23.1647727 L67.3764441,23.1647727 L64.1641178,31.1420455 L69.2266178,31.1420455 Z M91.3257692,5.21590909 L93.2408098,0.460227273 L128.218083,0.460227273 L126.303042,5.21590909 L108.814406,5.21590909 L96.7681819,35.1306818 L91.0920456,35.1306818 L103.138269,5.21590909 L91.3257692,5.21590909 Z M109.503201,11.5056818 L114.872519,11.5056818 L113.469184,19.9431818 C113.13834,21.2727339 113.504871,21.8863641 114.568787,21.7840909 L117.790378,21.7840909 L115.690011,27 L109.246829,27 C107.323543,27.2045465 106.65157,26.0795577 107.23089,23.625 L109.503201,11.5056818 Z M143.431322,2.30113636 L152.022231,2.30113636 L152.578211,0.920454545 L158.100938,0.920454545 L157.544958,2.30113636 L166.289277,2.30113636 L164.497787,6.75 L155.906878,6.75 L152.015021,16.4147727 L160.452521,16.4147727 L158.53748,21.1704545 L150.09998,21.1704545 L146.269899,30.6818182 L155.321035,30.6818182 L153.529546,35.1306818 L129.597727,35.1306818 L131.389217,30.6818182 L140.593762,30.6818182 L144.423844,21.1704545 L135.986344,21.1704545 L137.901385,16.4147727 L146.338885,16.4147727 L150.230741,6.75 L141.639832,6.75 L143.431322,2.30113636 Z M133.711979,11.1988636 C131.175054,11.4034101 130.247401,10.2784214 130.928995,7.82386364 L132.328211,0.920454545 L138.004347,0.920454545 L137.195087,5.21590909 C136.885522,6.23864148 137.313827,6.69886415 138.480017,6.59659091 L140.781153,6.59659091 L138.927888,11.1988636 L133.711979,11.1988636 Z M128.497097,22.2443182 C126.328081,22.5511379 125.563789,21.5284209 126.204198,19.1761364 L127.111269,12.7329545 L132.940815,12.7329545 L132.532066,16.4147727 C132.304869,17.2329586 132.549222,17.6420455 133.265135,17.6420455 L136.486726,17.6420455 L134.633461,22.2443182 L128.497097,22.2443182 Z M121.692527,31.1420455 C122.571802,31.2443187 123.319621,30.784096 123.936006,29.7613636 L128.094527,23.625 L134.23089,23.625 L128.96247,31.7556818 C127.339139,34.5170593 125.464272,35.7443197 123.337813,35.4375 L118.275313,35.4375 L120.005027,31.1420455 L121.692527,31.1420455 Z" fill="#FFFFFF"></path>
        </g>
    </g>
</svg>