<?xml version="1.0" encoding="UTF-8"?>
<svg width="237px" height="84px" viewBox="0 0 237 84" version="1.1" xmlns="http://www.w3.org/2000/svg" xmlns:xlink="http://www.w3.org/1999/xlink">
    <!-- Generator: Sketch 48.1 (47250) - http://www.bohemiancoding.com/sketch -->
    <title>Group 14</title>
    <desc>Created with Sketch.</desc>
    <defs>
        <filter x="-11.2%" y="-263.2%" width="122.5%" height="626.4%" filterUnits="objectBoundingBox" id="filter-1">
            <feGaussianBlur stdDeviation="7.44419643" in="SourceGraphic"></feGaussianBlur>
        </filter>
        <filter x="-15.0%" y="-82.6%" width="130.1%" height="265.3%" filterUnits="objectBoundingBox" id="filter-2">
            <feGaussianBlur stdDeviation="9.77399554" in="SourceGraphic"></feGaussianBlur>
        </filter>
    </defs>
    <g id="提示-开始下注" stroke="none" stroke-width="1" fill="none" fill-rule="evenodd" transform="translate(-71.000000, -292.000000)">
        <g id="Group-Copy-10" transform="translate(35.000000, 316.000000)">
            <g id="Group-12" transform="translate(53.000000, 0.000000)">
                <g id="Group-3">
                    <g id="Group-14">
                        <polygon id="Rectangle-9" fill="#FFFFFF" filter="url(#filter-1)" points="100.606061 13.9393939 198.787879 18.7878788 100.606061 22.4242424 0 18.7878788"></polygon>
                        <path d="M13.7136629,0.273939394 L29.5172993,0.273939394 C33.1451781,0.273939394 35.8289429,1.06909091 37.5064805,2.70909091 C39.2461634,4.49818182 39.7435505,7.08242424 38.8992478,10.4618182 C38.4398478,12.3006061 37.533143,13.9406061 36.1791333,15.3818182 C34.6884811,16.9721212 32.8871345,18.0157576 30.8744875,18.5127273 C33.7570402,19.3078788 34.9873693,21.3454545 34.5158099,24.8242424 L33.6843087,30.5393939 C33.3367831,32.7260606 33.6476701,34.4654545 34.5175758,35.7575758 L28.2060606,35.7575758 C27.6343689,34.6642424 27.5223019,33.1236364 27.8201626,31.1357576 L28.4655169,26.7624242 C28.7509614,24.8242424 28.5022518,23.4327273 27.7193881,22.5878788 C26.8992436,21.6933333 25.4579673,21.2957576 23.4700885,21.2957576 L14.2761491,21.2957576 L10.6630303,35.7575758 L4.84848485,35.7575758 L13.7136629,0.273939394 Z M18.2865868,5.24363636 L15.5177707,16.3260606 L24.7117101,16.3260606 C26.9977707,16.3260606 28.8613268,15.8290909 30.2899622,14.8848485 C31.6316198,13.8909091 32.5259405,12.4993939 32.9729243,10.710303 C33.4571567,8.77212121 33.2581441,7.38060606 32.3758864,6.53575758 C31.506045,5.64121212 29.8659808,5.24363636 27.4805262,5.24363636 L18.2865868,5.24363636 Z M53.2009357,0.273939394 L78.7948751,0.273939394 L77.5532535,5.24363636 L57.7738595,5.24363636 L55.3154488,15.0836364 L73.9021155,15.0836364 L72.6604939,20.0533333 L54.0738272,20.0533333 L51.3919246,30.7878788 L72.016167,30.7878788 L70.7745455,35.7575758 L44.3357576,35.7575758 L53.2009357,0.273939394 Z M100.04336,0.273939394 L106.653057,0.273939394 L111.355152,35.7575758 L105.14303,35.7575758 L104.13523,26.8618182 L89.275836,26.8618182 L83.8230303,35.7575758 L77.6109091,35.7575758 L100.04336,0.273939394 Z M92.2071866,22.0909091 L103.587793,22.0909091 L101.908008,6.53575758 L101.70922,6.53575758 L92.2071866,22.0909091 Z M128.547602,0.273939394 L141.518511,0.273939394 C147.28336,0.273939394 151.209677,1.86424242 153.396858,5.04484848 C155.484612,8.02666667 155.845613,12.350303 154.430165,18.0157576 C153.027132,23.6315152 150.50571,27.9551515 146.915593,30.9866667 C143.139137,34.1672727 138.418182,35.7575758 132.653333,35.7575758 L119.682424,35.7575758 L128.547602,0.273939394 Z M133.120526,5.24363636 L126.738591,30.7878788 L132.801622,30.7878788 C137.224652,30.7878788 140.715695,29.7442424 143.262336,27.7066667 C145.771696,25.6193939 147.572689,22.3890909 148.665316,18.0157576 C149.782776,13.5430303 149.608307,10.2630303 148.117076,8.27515152 C146.588566,6.23757576 143.606587,5.24363636 139.183557,5.24363636 L133.120526,5.24363636 Z M165.947602,0.273939394 L172.954875,0.273939394 L178.908664,16.2266667 L192.783966,0.273939394 L199.791239,0.273939394 L180.43772,21.6436364 L176.911515,35.7575758 L171.09697,35.7575758 L174.623175,21.6436364 L165.947602,0.273939394 Z" id="READY" fill="#42EDF8" filter="url(#filter-2)"></path>
                    </g>
                </g>
            </g>
        </g>
    </g>
</svg>
