<?xml version="1.0" encoding="UTF-8"?>
<svg width="193px" height="82px" viewBox="0 0 193 82" version="1.1" xmlns="http://www.w3.org/2000/svg" xmlns:xlink="http://www.w3.org/1999/xlink">
    <!-- Generator: Sketch 48.1 (47250) - http://www.bohemiancoding.com/sketch -->
    <title>Group 2</title>
    <desc>Created with Sketch.</desc>
    <defs>
        <filter x="-20.0%" y="-93.3%" width="139.9%" height="286.5%" filterUnits="objectBoundingBox" id="filter-1">
            <feGaussianBlur stdDeviation="10" in="SourceGraphic"></feGaussianBlur>
        </filter>
    </defs>
    <g id="iPhone-8-Copy-7" stroke="none" stroke-width="1" fill="none" fill-rule="evenodd" transform="translate(-474.000000, -314.000000)">
        <g id="Group-16" transform="translate(449.000000, 325.000000)">
            <g id="Group-2" transform="translate(46.000000, 14.000000)">
                <path d="M23.8945901,2.96072508 L25.586433,2.96072508 C26.2125185,3.05471682 26.7310438,2.77274582 27.1420245,2.11480363 L28.704719,1.13686838e-13 L33.2163001,1.13686838e-13 L32.1745037,1.40986908 L42.0435873,1.40986908 L40.7056108,5.35750252 L32.1943066,14.6626385 C30.7431028,16.4484816 29.0624695,17.2473994 27.1523564,17.0594159 L19.2570896,17.0594159 L20.6428509,12.9707956 L24.0265367,12.9707956 L24.079057,11.9838872 C24.2383408,11.5139285 23.926092,11.3259478 23.1423013,11.4199396 L21.3094715,11.4199396 L22.4563085,8.03625378 L27.3908503,8.03625378 C28.3626244,7.94226203 28.7991414,8.31822336 28.7004142,9.16414904 L28.8749796,11.5609265 L34.4998191,5.78046324 L29.4242904,5.78046324 C28.8556045,6.62638892 28.0702471,7.00235025 27.0681947,6.90835851 L22.5566136,6.90835851 L23.8945901,2.96072508 Z M13.1946525,17.0594159 L18.9766223,1.13686838e-13 L23.7701772,1.13686838e-13 L17.9882074,17.0594159 L13.1946525,17.0594159 Z M11.6528368,7.04934542 C10.3990874,7.14333716 9.94901006,6.3914145 10.3025912,4.79355488 L11.1267726,0.281973817 L15.4973668,0.281973817 L15.1557695,2.53776435 C15.0267641,3.19570655 15.3071566,3.47767754 15.9969555,3.3836858 L16.7018901,3.3836858 L15.4594834,7.04934542 L11.6528368,7.04934542 Z M6.44859036,13.2527694 L7.43549872,13.2527694 C8.15557591,13.3467611 8.7370245,13.017795 9.17986192,12.265861 L11.026898,9.72809668 L15.3974922,9.72809668 L11.7488371,15.0855992 C10.9890108,16.4954753 9.92010393,17.1534077 8.54208454,17.0594159 L5.15839874,17.0594159 L6.44859036,13.2527694 Z M4.25048613,19.7381672 L16.5163472,19.7381672 L17.1375505,17.9053374 L22.3540661,17.9053374 L21.7328628,19.7381672 L35.4085929,19.7381672 L33.9750466,23.9677744 L22.2731332,23.9677744 L24.6031841,27.4924471 C24.9759941,28.0563976 25.6793431,28.3383686 26.7132523,28.3383686 L32.4937155,28.3383686 L31.2035239,32.1450151 L23.4492439,32.1450151 C21.6315441,32.2390068 20.5370948,31.8630455 20.1658633,31.0171198 L16.9014244,26.5055388 L10.8153102,30.735146 C9.87065734,31.5810717 8.56835313,31.957033 6.90835851,31.8630413 L0,31.8630413 L1.24240674,28.1973817 L6.03596162,28.1973817 C6.69390382,28.1973817 7.44740494,27.9154107 8.29648759,27.3514602 L13.5319449,23.9677744 L2.81693989,23.9677744 L4.25048613,19.7381672 Z M47.638077,9.44612286 C46.0720742,9.35213112 45.3567432,8.41222779 45.4920625,6.62638469 L46.2802977,0.140986908 L51.919774,0.140986908 L51.3775664,4.65256798 C51.2804177,5.21651843 51.5138151,5.49848943 52.0777655,5.49848943 L53.6286215,5.49848943 L52.290645,9.44612286 L47.638077,9.44612286 Z M54.2881389,5.21651561 L55.3228321,5.0755287 L56.9953027,0.140986908 L62.2118183,0.140986908 L60.7304872,4.51158107 L63.69358,4.08862034 L65.0315565,0.140986908 L70.1070852,0.140986908 L68.9602482,3.52467271 L77.5221356,1.97381672 L70.9278229,21.4300101 C70.1919609,24.1557706 68.6340173,25.4246401 66.2539455,25.2366566 L63.0112466,25.2366566 L64.397008,21.1480363 L65.2429294,21.1480363 C65.8068799,21.1480363 66.2003478,20.8190701 66.423345,20.1611279 L70.628414,7.75427996 L67.3355625,8.31822759 L61.2668834,26.223565 L56.1913547,26.223565 L62.0688943,8.88217523 L59.0580166,9.44612286 L53.4671863,25.9415911 C52.8013517,27.3514673 53.189295,28.0093996 54.6310278,27.9154079 L68.8707056,27.9154079 L67.5327291,31.8630413 L50.1913394,31.8630413 C47.4018654,32.0510248 46.5479166,30.688165 47.6294673,27.7744209 L53.7459313,9.72809668 L52.711238,9.86908359 L54.2881389,5.21651561 Z M48.756932,19.4561934 L43.9633771,19.4561934 C42.301804,19.6441768 41.6326789,18.845259 41.9559818,17.0594159 L42.5076603,10.8559919 L47.7241759,10.8559919 L47.3754755,14.3806647 C47.3086051,15.1325986 47.6670598,15.4615648 48.4508505,15.367573 L50.1426934,15.367573 L48.756932,19.4561934 Z M38.8859113,28.1973817 C39.5119967,28.2913734 40.0783064,27.8684169 40.5848573,26.9284995 L43.8607042,21.0070493 L48.9362329,21.0070493 L44.3772976,29.4662638 C43.4279092,31.1581152 41.9663237,32.0040282 39.9924971,32.0040282 L35.3399291,32.0040282 L36.6301207,28.1973817 L38.8859113,28.1973817 Z M82.2797442,1.13686838e-13 L114.142785,0 L112.470315,4.93454179 L110.496498,4.93454179 L107.629406,13.3937563 L109.603222,13.3937563 L107.930752,18.3282981 L105.956935,18.3282981 L101.417372,31.7220544 L96.0598695,31.7220544 L100.599433,18.3282981 L83.9629774,18.3282981 L80.283542,29.18429 C79.7388204,31.3461001 78.4644263,32.3329986 76.4603215,32.1450151 L71.5257797,32.1450151 L72.9115411,28.0563948 L74.603384,28.0563948 C75.1673344,28.0563948 75.497879,27.7744238 75.5950278,27.2104733 L78.6054749,18.3282981 L76.2086974,18.3282981 L77.881168,13.3937563 L80.2779455,13.3937563 L83.1450379,4.93454179 L80.6072736,4.93454179 L82.2797442,1.13686838e-13 Z M105.138996,4.93454179 L88.5025405,4.93454179 L85.635448,13.3937563 L102.271903,13.3937563 L105.138996,4.93454179 Z M132.172536,2.96072508 L133.864379,2.96072508 C134.490464,3.05471682 135.008989,2.77274582 135.41997,2.11480363 L136.982665,0 L141.494246,1.13686838e-13 L140.452449,1.40986908 L150.321533,1.40986908 L148.983556,5.35750252 L140.472252,14.6626385 C139.021048,16.4484816 137.340415,17.2473994 135.430302,17.0594159 L127.535035,17.0594159 L128.920797,12.9707956 L132.304482,12.9707956 L132.357003,11.9838872 C132.516286,11.5139285 132.204038,11.3259478 131.420247,11.4199396 L129.587417,11.4199396 L130.734254,8.03625378 L135.668796,8.03625378 C136.64057,7.94226203 137.077087,8.31822336 136.97836,9.16414904 L137.152925,11.5609265 L142.777765,5.78046324 L137.702236,5.78046324 C137.13355,6.62638892 136.348193,7.00235025 135.34614,6.90835851 L130.834559,6.90835851 L132.172536,2.96072508 Z M121.472598,17.0594159 L127.254568,0 L132.048123,0 L126.266153,17.0594159 L121.472598,17.0594159 Z M119.930782,7.04934542 C118.677033,7.14333716 118.226956,6.3914145 118.580537,4.79355488 L119.404718,0.281973817 L123.775312,0.281973817 L123.433715,2.53776435 C123.30471,3.19570655 123.585102,3.47767754 124.274901,3.3836858 L124.979836,3.3836858 L123.737429,7.04934542 L119.930782,7.04934542 Z M114.726536,13.2527694 L115.713444,13.2527694 C116.433522,13.3467611 117.01497,13.017795 117.457808,12.265861 L119.304844,9.72809668 L123.675438,9.72809668 L120.026783,15.0855992 C119.266956,16.4954753 118.19805,17.1534077 116.82003,17.0594159 L113.436344,17.0594159 L114.726536,13.2527694 Z M112.528432,19.7381672 L124.794293,19.7381672 L125.415496,17.9053374 L130.632012,17.9053374 L130.010808,19.7381672 L143.686538,19.7381672 L142.252992,23.9677744 L130.551079,23.9677744 L132.88113,27.4924471 C133.25394,28.0563976 133.957289,28.3383686 134.991198,28.3383686 L140.771661,28.3383686 L139.48147,32.1450151 L131.72719,32.1450151 C129.90949,32.2390068 128.81504,31.8630455 128.443809,31.0171198 L125.17937,26.5055388 L119.093256,30.735146 C118.148603,31.5810717 116.846299,31.957033 115.186304,31.8630413 L108.277946,31.8630413 L109.520352,28.1973817 L114.313907,28.1973817 C114.971849,28.1973817 115.725351,27.9154107 116.574433,27.3514602 L121.809891,23.9677744 L111.094886,23.9677744 L112.528432,19.7381672 Z" id="奖池开奖" fill="#EC9603" filter="url(#filter-1)"></path>
                <path d="M23.8945901,2.96072508 L25.586433,2.96072508 C26.2125185,3.05471682 26.7310438,2.77274582 27.1420245,2.11480363 L28.704719,1.13686838e-13 L33.2163001,1.13686838e-13 L32.1745037,1.40986908 L42.0435873,1.40986908 L40.7056108,5.35750252 L32.1943066,14.6626385 C30.7431028,16.4484816 29.0624695,17.2473994 27.1523564,17.0594159 L19.2570896,17.0594159 L20.6428509,12.9707956 L24.0265367,12.9707956 L24.079057,11.9838872 C24.2383408,11.5139285 23.926092,11.3259478 23.1423013,11.4199396 L21.3094715,11.4199396 L22.4563085,8.03625378 L27.3908503,8.03625378 C28.3626244,7.94226203 28.7991414,8.31822336 28.7004142,9.16414904 L28.8749796,11.5609265 L34.4998191,5.78046324 L29.4242904,5.78046324 C28.8556045,6.62638892 28.0702471,7.00235025 27.0681947,6.90835851 L22.5566136,6.90835851 L23.8945901,2.96072508 Z M13.1946525,17.0594159 L18.9766223,1.13686838e-13 L23.7701772,1.13686838e-13 L17.9882074,17.0594159 L13.1946525,17.0594159 Z M11.6528368,7.04934542 C10.3990874,7.14333716 9.94901006,6.3914145 10.3025912,4.79355488 L11.1267726,0.281973817 L15.4973668,0.281973817 L15.1557695,2.53776435 C15.0267641,3.19570655 15.3071566,3.47767754 15.9969555,3.3836858 L16.7018901,3.3836858 L15.4594834,7.04934542 L11.6528368,7.04934542 Z M6.44859036,13.2527694 L7.43549872,13.2527694 C8.15557591,13.3467611 8.7370245,13.017795 9.17986192,12.265861 L11.026898,9.72809668 L15.3974922,9.72809668 L11.7488371,15.0855992 C10.9890108,16.4954753 9.92010393,17.1534077 8.54208454,17.0594159 L5.15839874,17.0594159 L6.44859036,13.2527694 Z M4.25048613,19.7381672 L16.5163472,19.7381672 L17.1375505,17.9053374 L22.3540661,17.9053374 L21.7328628,19.7381672 L35.4085929,19.7381672 L33.9750466,23.9677744 L22.2731332,23.9677744 L24.6031841,27.4924471 C24.9759941,28.0563976 25.6793431,28.3383686 26.7132523,28.3383686 L32.4937155,28.3383686 L31.2035239,32.1450151 L23.4492439,32.1450151 C21.6315441,32.2390068 20.5370948,31.8630455 20.1658633,31.0171198 L16.9014244,26.5055388 L10.8153102,30.735146 C9.87065734,31.5810717 8.56835313,31.957033 6.90835851,31.8630413 L0,31.8630413 L1.24240674,28.1973817 L6.03596162,28.1973817 C6.69390382,28.1973817 7.44740494,27.9154107 8.29648759,27.3514602 L13.5319449,23.9677744 L2.81693989,23.9677744 L4.25048613,19.7381672 Z M47.638077,9.44612286 C46.0720742,9.35213112 45.3567432,8.41222779 45.4920625,6.62638469 L46.2802977,0.140986908 L51.919774,0.140986908 L51.3775664,4.65256798 C51.2804177,5.21651843 51.5138151,5.49848943 52.0777655,5.49848943 L53.6286215,5.49848943 L52.290645,9.44612286 L47.638077,9.44612286 Z M54.2881389,5.21651561 L55.3228321,5.0755287 L56.9953027,0.140986908 L62.2118183,0.140986908 L60.7304872,4.51158107 L63.69358,4.08862034 L65.0315565,0.140986908 L70.1070852,0.140986908 L68.9602482,3.52467271 L77.5221356,1.97381672 L70.9278229,21.4300101 C70.1919609,24.1557706 68.6340173,25.4246401 66.2539455,25.2366566 L63.0112466,25.2366566 L64.397008,21.1480363 L65.2429294,21.1480363 C65.8068799,21.1480363 66.2003478,20.8190701 66.423345,20.1611279 L70.628414,7.75427996 L67.3355625,8.31822759 L61.2668834,26.223565 L56.1913547,26.223565 L62.0688943,8.88217523 L59.0580166,9.44612286 L53.4671863,25.9415911 C52.8013517,27.3514673 53.189295,28.0093996 54.6310278,27.9154079 L68.8707056,27.9154079 L67.5327291,31.8630413 L50.1913394,31.8630413 C47.4018654,32.0510248 46.5479166,30.688165 47.6294673,27.7744209 L53.7459313,9.72809668 L52.711238,9.86908359 L54.2881389,5.21651561 Z M48.756932,19.4561934 L43.9633771,19.4561934 C42.301804,19.6441768 41.6326789,18.845259 41.9559818,17.0594159 L42.5076603,10.8559919 L47.7241759,10.8559919 L47.3754755,14.3806647 C47.3086051,15.1325986 47.6670598,15.4615648 48.4508505,15.367573 L50.1426934,15.367573 L48.756932,19.4561934 Z M38.8859113,28.1973817 C39.5119967,28.2913734 40.0783064,27.8684169 40.5848573,26.9284995 L43.8607042,21.0070493 L48.9362329,21.0070493 L44.3772976,29.4662638 C43.4279092,31.1581152 41.9663237,32.0040282 39.9924971,32.0040282 L35.3399291,32.0040282 L36.6301207,28.1973817 L38.8859113,28.1973817 Z M82.2797442,1.13686838e-13 L114.142785,0 L112.470315,4.93454179 L110.496498,4.93454179 L107.629406,13.3937563 L109.603222,13.3937563 L107.930752,18.3282981 L105.956935,18.3282981 L101.417372,31.7220544 L96.0598695,31.7220544 L100.599433,18.3282981 L83.9629774,18.3282981 L80.283542,29.18429 C79.7388204,31.3461001 78.4644263,32.3329986 76.4603215,32.1450151 L71.5257797,32.1450151 L72.9115411,28.0563948 L74.603384,28.0563948 C75.1673344,28.0563948 75.497879,27.7744238 75.5950278,27.2104733 L78.6054749,18.3282981 L76.2086974,18.3282981 L77.881168,13.3937563 L80.2779455,13.3937563 L83.1450379,4.93454179 L80.6072736,4.93454179 L82.2797442,1.13686838e-13 Z M105.138996,4.93454179 L88.5025405,4.93454179 L85.635448,13.3937563 L102.271903,13.3937563 L105.138996,4.93454179 Z M132.172536,2.96072508 L133.864379,2.96072508 C134.490464,3.05471682 135.008989,2.77274582 135.41997,2.11480363 L136.982665,0 L141.494246,1.13686838e-13 L140.452449,1.40986908 L150.321533,1.40986908 L148.983556,5.35750252 L140.472252,14.6626385 C139.021048,16.4484816 137.340415,17.2473994 135.430302,17.0594159 L127.535035,17.0594159 L128.920797,12.9707956 L132.304482,12.9707956 L132.357003,11.9838872 C132.516286,11.5139285 132.204038,11.3259478 131.420247,11.4199396 L129.587417,11.4199396 L130.734254,8.03625378 L135.668796,8.03625378 C136.64057,7.94226203 137.077087,8.31822336 136.97836,9.16414904 L137.152925,11.5609265 L142.777765,5.78046324 L137.702236,5.78046324 C137.13355,6.62638892 136.348193,7.00235025 135.34614,6.90835851 L130.834559,6.90835851 L132.172536,2.96072508 Z M121.472598,17.0594159 L127.254568,0 L132.048123,0 L126.266153,17.0594159 L121.472598,17.0594159 Z M119.930782,7.04934542 C118.677033,7.14333716 118.226956,6.3914145 118.580537,4.79355488 L119.404718,0.281973817 L123.775312,0.281973817 L123.433715,2.53776435 C123.30471,3.19570655 123.585102,3.47767754 124.274901,3.3836858 L124.979836,3.3836858 L123.737429,7.04934542 L119.930782,7.04934542 Z M114.726536,13.2527694 L115.713444,13.2527694 C116.433522,13.3467611 117.01497,13.017795 117.457808,12.265861 L119.304844,9.72809668 L123.675438,9.72809668 L120.026783,15.0855992 C119.266956,16.4954753 118.19805,17.1534077 116.82003,17.0594159 L113.436344,17.0594159 L114.726536,13.2527694 Z M112.528432,19.7381672 L124.794293,19.7381672 L125.415496,17.9053374 L130.632012,17.9053374 L130.010808,19.7381672 L143.686538,19.7381672 L142.252992,23.9677744 L130.551079,23.9677744 L132.88113,27.4924471 C133.25394,28.0563976 133.957289,28.3383686 134.991198,28.3383686 L140.771661,28.3383686 L139.48147,32.1450151 L131.72719,32.1450151 C129.90949,32.2390068 128.81504,31.8630455 128.443809,31.0171198 L125.17937,26.5055388 L119.093256,30.735146 C118.148603,31.5810717 116.846299,31.957033 115.186304,31.8630413 L108.277946,31.8630413 L109.520352,28.1973817 L114.313907,28.1973817 C114.971849,28.1973817 115.725351,27.9154107 116.574433,27.3514602 L121.809891,23.9677744 L111.094886,23.9677744 L112.528432,19.7381672 Z" id="奖池开奖" fill="#FFFCDA"></path>
            </g>
        </g>
    </g>
</svg>
