<?xml version="1.0" encoding="UTF-8"?>
<svg width="138px" height="26px" viewBox="0 0 138 26" version="1.1" xmlns="http://www.w3.org/2000/svg" xmlns:xlink="http://www.w3.org/1999/xlink">
    <!-- Generator: Sketch 48.1 (47250) - http://www.bohemiancoding.com/sketch -->
    <title>REVEAL</title>
    <desc>Created with Sketch.</desc>
    <defs></defs>
    <g id="提示-等待下注" stroke="none" stroke-width="1" fill="none" fill-rule="evenodd" transform="translate(-130.000000, -342.000000)">
        <g id="Group-8-Copy" transform="translate(77.000000, 284.000000)" fill="#FFFCDA">
            <g id="Group-15" transform="translate(52.000000, 58.000000)">
                <path d="M7.44583588,0.296 L18.8218359,0.296 C21.4138359,0.296 23.3575165,0.872 24.5718578,2.06 C25.8311392,3.356 26.1631212,5.192 25.5497638,7.64 C25.2070053,9.008 24.5493466,10.196 23.5677677,11.24 C22.451129,12.392 21.1457098,13.148 19.6515102,13.508 C21.8111908,14.084 22.6923524,15.596 22.3489552,18.116 L21.7526796,22.22 C21.4998013,23.804 21.6881027,25.064 22.3175837,26 L18.0695837,26 C17.6560228,25.208 17.5846616,24.056 17.80146,22.616 L18.2802366,19.412 C18.497035,17.972 18.2815939,16.964 17.6879532,16.316 C17.0583125,15.668 16.0144722,15.38 14.5384722,15.38 L7.5904722,15.38 L4.92958369,26 L1.00558369,26 L7.44583588,0.296 Z M10.5309795,3.644 L8.42932858,12.032 L15.3773286,12.032 C17.1053286,12.032 18.5005481,11.636 19.5449474,10.916 C20.5533466,10.196 21.2469255,9.152 21.589684,7.784 C21.9504824,6.344 21.7800613,5.3 21.1504206,4.652 C20.4577998,3.968 19.2429795,3.644 17.4429795,3.644 L10.5309795,3.644 Z M32.3578359,0.296 L50.8258359,0.296 L49.9869795,3.644 L35.4429795,3.644 L33.5668276,11.132 L47.2468276,11.132 L46.4079712,14.48 L32.7279712,14.48 L30.6804401,22.652 L45.8364401,22.652 L44.9975837,26 L25.9175837,26 L32.3578359,0.296 Z M53.0938359,0.296 L57.3418359,0.296 L59.3100189,21.608 L59.4180189,21.608 L72.0298359,0.296 L76.2778359,0.296 L60.6215837,26 L55.8695837,26 L53.0938359,0.296 Z M78.9778359,0.296 L97.4458359,0.296 L96.6069795,3.644 L82.0629795,3.644 L80.1868276,11.132 L93.8668276,11.132 L93.0279712,14.48 L79.3479712,14.48 L77.3004401,22.652 L92.4564401,22.652 L91.6175837,26 L72.5375837,26 L78.9778359,0.296 Z M109.433836,0.296 L113.897836,0.296 L117.357584,26 L113.145584,26 L112.393257,19.376 L101.341257,19.376 L97.2695837,26 L93.0935837,26 L109.433836,0.296 Z M103.341053,16.136 L112.017053,16.136 L110.6825,4.508 L110.5385,4.508 L103.341053,16.136 Z M126.317836,0.296 L130.205836,0.296 L124.60444,22.652 L138.75244,22.652 L137.913584,26 L119.877584,26 L126.317836,0.296 Z" id="REVEAL"></path>
            </g>
        </g>
    </g>
</svg>
