<?xml version="1.0" encoding="UTF-8"?>
<svg width="41px" height="39px" viewBox="0 0 41 39" version="1.1" xmlns="http://www.w3.org/2000/svg" xmlns:xlink="http://www.w3.org/1999/xlink">
    <!-- Generator: Sketch 48.1 (47250) - http://www.bohemiancoding.com/sketch -->
    <title>设置@3x</title>
    <desc>Created with Sketch.</desc>
    <defs>
        <filter x="-31.0%" y="-27.1%" width="162.0%" height="154.2%" filterUnits="objectBoundingBox" id="filter-1">
            <feGaussianBlur stdDeviation="2.45535714" in="SourceGraphic"></feGaussianBlur>
        </filter>
    </defs>
    <g id="主界面-copy-2" stroke="none" stroke-width="1" fill="none" fill-rule="evenodd" transform="translate(-324.000000, -3.000000)">
        <g id="设置" transform="translate(330.000000, 9.000000)" fill-rule="nonzero">
            <path d="M15.1043156,-1.02516309 L26.5831844,5.61898732 C26.9571362,5.83543653 27.1875,6.23545117 27.1875,6.66834958 L27.1875,19.9566504 C27.1875,20.3895488 26.9571362,20.7895635 26.5831844,21.0060127 L15.1043156,27.6501631 C14.7303638,27.8666123 14.2696362,27.8666123 13.8956844,27.6501631 L2.41681562,21.0060127 C2.04286381,20.7895635 1.8125,20.3895488 1.8125,19.9566504 L1.8125,6.66834958 C1.8125,6.23545117 2.04286381,5.83543653 2.41681562,5.61898732 L13.8956844,-1.02516309 C14.2696362,-1.2416123 14.7303638,-1.2416123 15.1043156,-1.02516309 Z" id="Combined-Shape-Copy-2" stroke="#42EDF8" filter="url(#filter-1)" transform="translate(14.500000, 13.312500) rotate(-270.000000) translate(-14.500000, -13.312500) "></path>
            <path d="M15.2918156,-0.837663094 L26.7706844,5.80648732 C27.1446362,6.02293653 27.375,6.42295117 27.375,6.85584958 L27.375,20.1441504 C27.375,20.5770488 27.1446362,20.9770635 26.7706844,21.1935127 L15.2918156,27.8376631 C14.9178638,28.0541123 14.4571362,28.0541123 14.0831844,27.8376631 L2.60431562,21.1935127 C2.23036381,20.9770635 2,20.5770488 2,20.1441504 L2,6.85584958 C2,6.42295117 2.23036381,6.02293653 2.60431562,5.80648732 L14.0831844,-0.837663094 C14.4571362,-1.0541123 14.9178638,-1.0541123 15.2918156,-0.837663094 Z" id="Combined-Shape-Copy-2" stroke="#42EDF8" transform="translate(14.687500, 13.500000) rotate(-270.000000) translate(-14.687500, -13.500000) "></path>
            <g transform="translate(7.799988, 7.000000)" fill="#42EDF8" id="Shape">
                <path d="M4.99932961,6.66681564 C4.99932961,7.7726193 5.89576059,8.66905028 7.00156425,8.66905028 C8.1073679,8.66905028 9.00379888,7.7726193 9.00379888,6.66681564 C9.00379888,5.56101199 8.1073679,4.66458101 7.00156425,4.66458101 C5.89576059,4.66458101 4.99932961,5.56101199 4.99932961,6.66681564 Z"></path>
                <path d="M13.827933,5.18860335 C13.7903911,5.01653631 13.6636872,4.87418994 13.4963128,4.81631285 C12.9300559,4.62234637 12.4545251,4.23128492 12.1557542,3.7150838 C11.8585475,3.20044693 11.7584358,2.59195531 11.8726257,2.00379888 C11.9070391,1.83173184 11.8475978,1.65027933 11.7177654,1.53139665 C10.9716201,0.849385475 10.0706145,0.32849162 9.1101676,0.025027933 C9.06011173,0.00938547486 9.00849162,0.00156424581 8.95687151,0.00156424581 C8.83329609,0.00156424581 8.71597765,0.0453631285 8.62368715,0.126703911 C8.17162011,0.520893855 7.59597765,0.738324022 7,0.738324022 C6.40402235,0.738324022 5.82681564,0.520893855 5.3747486,0.126703911 C5.2824581,0.0469273743 5.16357542,0.00156424581 5.04156425,0.00156424581 C4.98994413,0.00156424581 4.93832402,0.00938547486 4.88826816,0.025027933 C3.92938547,0.32849162 3.02681564,0.849385475 2.28223464,1.53139665 C2.15240223,1.65027933 2.09296089,1.8301676 2.1273743,2.00379888 C2.24156425,2.59195531 2.14145251,3.19888268 1.84424581,3.7150838 C1.54703911,4.23128492 1.07150838,4.62078212 0.503687151,4.81631285 C0.336312849,4.87418994 0.209608939,5.01653631 0.173631285,5.18703911 C0.0641340782,5.68290503 0.00938547486,6.18972067 0.00938547486,6.69184358 C0.00938547486,7.19396648 0.0641340782,7.70078212 0.173631285,8.19664804 C0.211173184,8.36871508 0.337877095,8.51106145 0.505251397,8.56893855 C1.07150838,8.76290503 1.54703911,9.15396648 1.84424581,9.6701676 C2.14145251,10.1863687 2.24312849,10.7932961 2.1273743,11.3814525 C2.09296089,11.5535196 2.15240223,11.7349721 2.28223464,11.8538547 C3.02837989,12.5358659 3.92938547,13.0567598 4.88826816,13.3602235 C4.93832402,13.3758659 4.98994413,13.3836872 5.04156425,13.3836872 C5.16357542,13.3836872 5.2824581,13.3398883 5.3747486,13.2585475 C5.82681564,12.8643575 6.4024581,12.6469274 6.99843575,12.6469274 C7.59441341,12.6469274 8.17162011,12.8643575 8.62212291,13.2585475 C8.71441341,13.3398883 8.83329609,13.3836872 8.95530726,13.3836872 C9.00849162,13.3836872 9.06011173,13.3758659 9.10860335,13.3602235 C10.0690503,13.0567598 10.9700559,12.5358659 11.7146369,11.8538547 C11.8444693,11.7349721 11.9039106,11.5550838 11.8710615,11.3814525 C11.7568715,10.7932961 11.8569832,10.1848045 12.1541899,9.6701676 C12.4513966,9.15396648 12.9284916,8.76446927 13.4947486,8.56893855 C13.6621229,8.51106145 13.7888268,8.36871508 13.8263687,8.19821229 C13.9358659,7.70078212 13.9906145,7.19553073 13.9906145,6.69340782 C13.9921788,6.19128492 13.9358659,5.68603352 13.827933,5.18860335 Z M7.00156425,9.6701676 C5.34346369,9.6701676 3.99821229,8.3249162 3.99821229,6.66681564 C3.99821229,5.00871508 5.34346369,3.66346369 7.00156425,3.66346369 C8.6596648,3.66346369 10.0049162,5.00871508 10.0049162,6.66681564 C10.0049162,8.3249162 8.6596648,9.6701676 7.00156425,9.6701676 Z"></path>
            </g>
        </g>
    </g>
</svg>
