<?xml version="1.0" encoding="UTF-8"?>
<svg width="30px" height="30px" viewBox="0 0 30 30" version="1.1" xmlns="http://www.w3.org/2000/svg" xmlns:xlink="http://www.w3.org/1999/xlink">
    <!-- Generator: Sketch 48.1 (47250) - http://www.bohemiancoding.com/sketch -->
    <title>telegram (1)</title>
    <desc>Created with Sketch.</desc>
    <defs></defs>
    <g id="设置-copy" stroke="none" stroke-width="1" fill="none" fill-rule="evenodd" transform="translate(-38.000000, -413.000000)">
        <g id="Group" transform="translate(16.000000, 89.000000)" fill="#2C799F" fill-rule="nonzero">
            <g id="telegram-(1)" transform="translate(22.000000, 324.000000)">
                <path d="M19.905,21.8807143 L22.3660714,10.2792857 C22.5835714,9.25821431 21.9975,8.85642858 21.3278571,9.10714286 L6.86357142,14.6817857 C5.87571428,15.0664286 5.89285714,15.6192857 6.69642858,15.87 L10.3960714,17.025 L18.9846429,11.6175 C19.3864286,11.3496429 19.755,11.5007143 19.4539286,11.7685714 L12.5067857,18.0460714 L12.2389286,21.8635714 C12.6235714,21.8635714 12.7917857,21.6964286 12.9921429,21.495 L14.7996429,19.7539286 L18.5496429,22.5160714 C19.2364286,22.9007143 19.7217857,22.7003571 19.9060714,21.8796429 L19.905,21.8807143 Z M30,15 C30,23.2864286 23.2864286,30 15,30 C6.71357142,30 0,23.2864286 0,15 C0,6.71357142 6.71357142,0 15,0 C23.2864286,0 30,6.71357142 30,15 Z" id="Shape"></path>
            </g>
        </g>
    </g>
</svg>
