<?xml version="1.0" encoding="UTF-8"?>
<svg width="30px" height="30px" viewBox="0 0 30 30" version="1.1" xmlns="http://www.w3.org/2000/svg" xmlns:xlink="http://www.w3.org/1999/xlink">
    <!-- Generator: Sketch 48.1 (47250) - http://www.bohemiancoding.com/sketch -->
    <title>推特_twitter43</title>
    <desc>Created with Sketch.</desc>
    <defs></defs>
    <g id="设置-copy" stroke="none" stroke-width="1" fill="none" fill-rule="evenodd" transform="translate(-98.000000, -413.000000)">
        <g id="Group" transform="translate(16.000000, 89.000000)" fill="#2C799F" fill-rule="nonzero">
            <g id="推特_twitter43" transform="translate(82.000000, 324.000000)">
                <path d="M30,15 C30,6.7159091 23.2840909,0 15,0 C6.7159091,0 0,6.7159091 0,15 C0,23.2840909 6.7159091,30 15,30 C23.2840909,30 30,23.2840909 30,15 Z M6.92318183,20.3304546 C7.18227272,20.3631818 7.4468182,20.3809091 7.71409093,20.3809091 C9.26727275,20.3836364 10.6963637,19.8231818 11.8295455,18.8822727 C10.3786364,18.8481818 9.15545458,17.8227273 8.73409093,16.4154546 C8.9359091,16.4577273 9.14454548,16.4822727 9.35727275,16.4836364 C9.66000003,16.485 9.9518182,16.4440909 10.23,16.365 C8.71363641,16.0295454 7.57090913,14.5909091 7.57090913,12.8768182 C7.57090913,12.8618182 7.57090913,12.8468182 7.57090913,12.8318182 C8.01818186,13.1018182 8.52818186,13.2654546 9.07227275,13.29 C8.18454545,12.6477273 7.59954545,11.5568182 7.59954545,10.3295454 C7.59954545,9.68045455 7.76318183,9.075 8.04818183,8.55681817 C9.68318183,10.7181818 12.1254546,12.1527273 14.8786364,12.3313636 C14.8213637,12.0736363 14.7927273,11.805 14.7927273,11.5309091 C14.7927273,9.5931818 16.2763637,8.04681817 18.1063637,8.07681817 C19.0595455,8.0931818 19.9213637,8.53090907 20.5254546,9.2181818 C21.2809091,9.07363635 21.99,8.79545452 22.6295454,8.40681817 C22.3827273,9.21545455 21.8563636,9.8890909 21.1718182,10.3104546 C21.8427273,10.2354546 22.4809091,10.0581818 23.0754546,9.78954545 C22.6309091,10.4809091 22.0690909,11.085 21.4213637,11.5677273 C21.4281818,11.7177273 21.4309091,11.8677273 21.4309091,12.0177273 C21.4309091,16.6186364 18.0968182,21.9245454 12.0013637,21.9218182 C10.1318182,21.9231818 8.3890909,21.3368182 6.92318183,20.3304546 Z" id="Shape"></path>
            </g>
        </g>
    </g>
</svg>
