<?xml version="1.0" encoding="UTF-8"?>
<svg width="16px" height="14px" viewBox="0 0 16 14" version="1.1" xmlns="http://www.w3.org/2000/svg" xmlns:xlink="http://www.w3.org/1999/xlink">
    <!-- Generator: Sketch 48.1 (47250) - http://www.bohemiancoding.com/sketch -->
    <title>所有人投注-蓝方@3x</title>
    <desc>Created with Sketch.</desc>
    <defs>
        <radialGradient cx="50%" cy="50%" fx="50%" fy="50%" r="50%" gradientTransform="translate(0.500000,0.500000),scale(1.000000,0.875000),rotate(-90.000000),translate(-0.500000,-0.500000)" id="radialGradient-1">
            <stop stop-color="#435476" offset="0%"></stop>
            <stop stop-color="#2B3247" offset="100%"></stop>
        </radialGradient>
        <radialGradient cx="50%" cy="50%" fx="50%" fy="50%" r="38.8203431%" id="radialGradient-2">
            <stop stop-color="#FFFFFF" offset="0%"></stop>
            <stop stop-color="#42EDF8" offset="100%"></stop>
        </radialGradient>
    </defs>
    <g id="主界面-copy-2" stroke="none" stroke-width="1" fill="none" fill-rule="evenodd" transform="translate(-239.000000, -67.000000)">
        <g id="顶部-蓝方" transform="translate(193.000000, 56.000000)">
            <g id="所有人投注-蓝方" transform="translate(47.000000, 12.000000)">
                <path d="M7.21916814,-0.78870206 L12.7055394,2.38689624 C12.8842712,2.49034901 12.9943745,2.6815376 12.9943745,2.88844314 L12.9943745,9.23963974 C12.9943745,9.44654527 12.8842712,9.63773387 12.7055394,9.74118664 L7.21916814,12.9167849 C7.04043638,13.0202377 6.82022977,13.0202377 6.641498,12.9167849 L1.15512671,9.74118664 C0.976394941,9.63773387 0.866291634,9.44654527 0.866291634,9.23963974 L0.866291634,2.88844314 C0.866291634,2.6815376 0.976394941,2.49034901 1.15512671,2.38689624 L6.641498,-0.78870206 C6.82022977,-0.892154826 7.04043638,-0.892154826 7.21916814,-0.78870206 Z" id="Combined-Shape-Copy-2" stroke="#5D6771" fill="#34373F" fill-rule="nonzero" transform="translate(6.930333, 6.064041) rotate(-270.000000) translate(-6.930333, -6.064041) "></path>
                <path d="M7.19474459,-0.209242131 L12.2171948,2.69783131 C12.3808132,2.79253624 12.4816063,2.96755815 12.4816063,3.15696799 L12.4816063,8.97111489 C12.4816063,9.16052473 12.3808132,9.33554664 12.2171948,9.43025156 L7.19474459,12.337325 C7.03112617,12.4320299 6.82953997,12.4320299 6.66592156,12.337325 L1.64347136,9.43025156 C1.47985295,9.33554664 1.37905984,9.16052473 1.37905984,8.97111489 L1.37905984,3.15696799 C1.37905984,2.96755815 1.47985295,2.79253624 1.64347136,2.69783131 L6.66592156,-0.209242131 C6.82953997,-0.303947053 7.03112617,-0.303947053 7.19474459,-0.209242131 Z" id="Combined-Shape-Copy-2" stroke="#070A18" stroke-width="0.5" fill="url(#radialGradient-1)" fill-rule="nonzero" transform="translate(6.930333, 6.064041) rotate(-270.000000) translate(-6.930333, -6.064041) "></path>
                <g id="Group-3" transform="translate(3.208333, 2.333333)" fill="url(#radialGradient-2)">
                    <path d="M6.44984743,5.18343793 L6.79382009,5.38203063 C7.04568659,4.9075653 7.18836806,4.3662785 7.18836806,3.79166667 C7.18836806,3.24145787 7.05754826,2.72180367 6.82531611,2.26211152 L6.48019257,2.46136869 C6.54779753,2.60150553 6.62700056,2.78584765 6.71780168,3.01439507 L6.46568519,3.08651575 C6.52489301,3.31162969 6.55642361,3.547966 6.55642361,3.79166667 C6.55642361,4.03536734 6.52489301,4.27170364 6.46568877,4.49681861 L6.71780168,4.56893827 C6.61304705,4.83260683 6.52372896,5.03744005 6.44984743,5.18343793 Z M6.28800146,5.45484941 C6.20044188,5.58346544 6.08039843,5.74422834 5.92787112,5.93713812 L5.7388694,5.75439009 C5.40454361,6.08608855 4.98593133,6.33295725 4.51800158,6.46002715 L4.58159722,6.71440972 C4.31999904,6.75272312 4.10935089,6.77709938 3.94965278,6.7875385 L3.94965278,7.18475903 C5.07233895,7.1333588 6.05286406,6.5369473 6.63282136,5.65393127 L6.28800146,5.45484941 Z M6.32606632,2.18550023 L6.66984058,1.98702206 C6.09515788,1.0724062 5.09658981,0.451084815 3.94965278,0.398574308 L3.94965278,0.795794837 C4.10935089,0.806233952 4.31999904,0.83061021 4.58159722,0.868923611 L4.51800158,1.12330618 C4.98593133,1.25037608 5.40454361,1.49724478 5.7388694,1.82894324 L5.92787112,1.64619521 C6.10383748,1.86874967 6.23656921,2.048518 6.32606632,2.18550023 Z M3.63368056,6.7875385 C3.47398244,6.77709938 3.26333429,6.75272312 3.00173611,6.71440972 L3.06533175,6.46002715 C2.41793843,6.28422254 1.86494594,5.87910551 1.49896183,5.33728359 L0.950511976,5.65393127 C1.53046927,6.5369473 2.51099438,7.1333588 3.63368056,7.18475903 L3.63368056,6.7875385 Z M3.63368056,0.795794837 L3.63368056,0.398574308 C2.48674352,0.451084815 1.48817545,1.0724062 0.913492753,1.98702206 L1.4613108,2.30330496 C1.82644152,1.73279972 2.39533231,1.30524965 3.06533175,1.12330618 L3.00173611,0.868923611 C3.26333429,0.83061021 3.47398244,0.806233952 3.63368056,0.795794837 Z M2.85957511,4.52331091 C3.04388894,4.75779452 3.31477703,4.92101277 3.62407588,4.96480217 L3.47569444,6.00347222 L4.10763889,6.00347222 L3.95925745,4.96480217 C4.26855631,4.92101277 4.5394444,4.75779452 4.72375822,4.52331091 L5.54916035,5.17120942 L5.86513258,4.62392947 L4.89158006,4.23315789 C4.94639733,4.09671499 4.9765625,3.94771356 4.9765625,3.79166667 C4.9765625,3.63561978 4.94639733,3.48661834 4.89158006,3.35017544 L5.86513258,2.95940386 L5.54916035,2.41212392 L4.72375822,3.06002242 C4.5394444,2.82553881 4.26855631,2.66232056 3.95925745,2.61853117 L4.10763889,1.57986111 L3.47569444,1.57986111 L3.62407588,2.61853117 C3.31477703,2.66232056 3.04388894,2.82553881 2.85957511,3.06002242 L2.03417298,2.41212392 L1.71820076,2.95940386 L2.69175328,3.35017544 C2.63693601,3.48661834 2.60677083,3.63561978 2.60677083,3.79166667 C2.60677083,3.94771356 2.63693601,4.09671499 2.69175328,4.23315789 L1.71820076,4.62392947 L2.03417298,5.17120942 L2.85957511,4.52331091 Z M1.33733232,5.06574714 C1.13900153,4.68446932 1.02690972,4.25115821 1.02690972,3.79166667 C1.02690972,3.35657467 1.12741318,2.94495651 1.3064709,2.5787614 L0.758017228,2.26211152 C0.525785077,2.72180367 0.394965278,3.24145787 0.394965278,3.79166667 C0.394965278,4.3662785 0.537646741,4.9075653 0.789513244,5.38203063 L1.33733232,5.06574714 Z M3.79166667,7.58333333 C1.69758699,7.58333333 0,5.88574634 0,3.79166667 C0,1.69758699 1.69758699,0 3.79166667,0 C5.88574634,0 7.58333333,1.69758699 7.58333333,3.79166667 C7.58333333,5.88574634 5.88574634,7.58333333 3.79166667,7.58333333 Z" id="Combined-Shape"></path>
                </g>
            </g>
        </g>
    </g>
</svg>