<?xml version="1.0" encoding="UTF-8"?>
<svg width="16px" height="14px" viewBox="0 0 16 14" version="1.1" xmlns="http://www.w3.org/2000/svg" xmlns:xlink="http://www.w3.org/1999/xlink">
    <!-- Generator: Sketch 48.1 (47250) - http://www.bohemiancoding.com/sketch -->
    <title>所有人列表-蓝方</title>
    <desc>Created with Sketch.</desc>
    <defs>
        <radialGradient cx="50%" cy="50%" fx="50%" fy="50%" r="50%" gradientTransform="translate(0.500000,0.500000),scale(1.000000,0.875000),rotate(-90.000000),translate(-0.500000,-0.500000)" id="radialGradient-1">
            <stop stop-color="#2977C9" offset="0%"></stop>
            <stop stop-color="#023060" offset="100%"></stop>
        </radialGradient>
        <radialGradient cx="50%" cy="50%" fx="50%" fy="50%" r="50%" gradientTransform="translate(0.500000,0.500000),scale(1.000000,0.875000),rotate(-90.000000),translate(-0.500000,-0.500000)" id="radialGradient-2">
            <stop stop-color="#104174" offset="0%"></stop>
            <stop stop-color="#023060" offset="100%"></stop>
        </radialGradient>
        <radialGradient cx="50%" cy="50%" fx="50%" fy="50%" r="38.8203431%" id="radialGradient-3">
            <stop stop-color="#FFFFFF" offset="0%"></stop>
            <stop stop-color="#42EDF8" offset="100%"></stop>
        </radialGradient>
    </defs>
    <g id="主界面-copy-2" stroke="none" stroke-width="1" fill="none" fill-rule="evenodd" transform="translate(-116.000000, -87.000000)">
        <g id="顶部-红方" transform="translate(16.000000, 56.000000)">
            <g id="所有人列表-蓝方" transform="translate(101.000000, 32.000000)">
                <path d="M7.21916814,-0.78870206 L12.7055394,2.38689624 C12.8842712,2.49034901 12.9943745,2.6815376 12.9943745,2.88844314 L12.9943745,9.23963974 C12.9943745,9.44654527 12.8842712,9.63773387 12.7055394,9.74118664 L7.21916814,12.9167849 C7.04043638,13.0202377 6.82022977,13.0202377 6.641498,12.9167849 L1.15512671,9.74118664 C0.976394941,9.63773387 0.866291634,9.44654527 0.866291634,9.23963974 L0.866291634,2.88844314 C0.866291634,2.6815376 0.976394941,2.49034901 1.15512671,2.38689624 L6.641498,-0.78870206 C6.82022977,-0.892154826 7.04043638,-0.892154826 7.21916814,-0.78870206 Z" id="Combined-Shape-Copy-2" stroke="#0E5299" fill="url(#radialGradient-1)" fill-rule="nonzero" transform="translate(6.930333, 6.064041) rotate(-270.000000) translate(-6.930333, -6.064041) "></path>
                <path d="M7.19474459,-0.209242131 L12.2171948,2.69783131 C12.3808132,2.79253624 12.4816063,2.96755815 12.4816063,3.15696799 L12.4816063,8.97111489 C12.4816063,9.16052473 12.3808132,9.33554664 12.2171948,9.43025156 L7.19474459,12.337325 C7.03112617,12.4320299 6.82953997,12.4320299 6.66592156,12.337325 L1.64347136,9.43025156 C1.47985295,9.33554664 1.37905984,9.16052473 1.37905984,8.97111489 L1.37905984,3.15696799 C1.37905984,2.96755815 1.47985295,2.79253624 1.64347136,2.69783131 L6.66592156,-0.209242131 C6.82953997,-0.303947053 7.03112617,-0.303947053 7.19474459,-0.209242131 Z" id="Combined-Shape-Copy-2" stroke="#070A18" stroke-width="0.5" fill="url(#radialGradient-2)" fill-rule="nonzero" transform="translate(6.930333, 6.064041) rotate(-270.000000) translate(-6.930333, -6.064041) "></path>
                <path d="M9.65818077,7.51677126 L10.0021534,7.71536397 C10.2540199,7.24089864 10.3967014,6.69961184 10.3967014,6.125 C10.3967014,5.5747912 10.2658816,5.055137 10.0336494,4.59544486 L9.68852591,4.79470202 C9.75613086,4.93483886 9.83533389,5.11918099 9.92613501,5.3477284 L9.67401852,5.41984908 C9.73322634,5.64496303 9.76475694,5.88129933 9.76475694,6.125 C9.76475694,6.36870067 9.73322634,6.60503697 9.6740221,6.83015195 L9.92613501,6.9022716 C9.82138038,7.16594016 9.7320623,7.37077338 9.65818077,7.51677126 Z M9.4963348,7.78818274 C9.40877521,7.91679877 9.28873176,8.07756167 9.13620446,8.27047146 L8.94720273,8.08772342 C8.61287695,8.41942189 8.19426466,8.66629059 7.72633491,8.79336049 L7.78993056,9.04774306 C7.52833237,9.08605646 7.31768423,9.11043271 7.15798611,9.12087183 L7.15798611,9.51809236 C8.28067228,9.46669213 9.2611974,8.87028063 9.84115469,7.9872646 L9.4963348,7.78818274 Z M9.53439965,4.51883356 L9.87817391,4.3203554 C9.30349122,3.40573954 8.30492314,2.78441815 7.15798611,2.73190764 L7.15798611,3.12912817 C7.31768423,3.13956729 7.52833237,3.16394354 7.78993056,3.20225694 L7.72633491,3.45663951 C8.19426466,3.58370941 8.61287695,3.83057811 8.94720273,4.16227658 L9.13620446,3.97952854 C9.31217082,4.202083 9.44490255,4.38185134 9.53439965,4.51883356 Z M6.84201389,9.12087183 C6.68231577,9.11043271 6.47166763,9.08605646 6.21006944,9.04774306 L6.27366509,8.79336049 C5.62627176,8.61755588 5.07327928,8.21243885 4.70729517,7.67061693 L4.15884531,7.9872646 C4.7388026,8.87028063 5.71932772,9.46669213 6.84201389,9.51809236 L6.84201389,9.12087183 Z M6.84201389,3.12912817 L6.84201389,2.73190764 C5.69507686,2.78441815 4.69650878,3.40573954 4.12182609,4.3203554 L4.66964414,4.6366383 C5.03477485,4.06613305 5.60366564,3.63858299 6.27366509,3.45663951 L6.21006944,3.20225694 C6.47166763,3.16394354 6.68231577,3.13956729 6.84201389,3.12912817 Z M6.06790845,6.85664425 C6.25222227,7.09112785 6.52311036,7.2543461 6.83240921,7.2981355 L6.68402778,8.33680556 L7.31597222,8.33680556 L7.16759079,7.2981355 C7.47688964,7.2543461 7.74777773,7.09112785 7.93209155,6.85664425 L8.75749369,7.50454275 L9.07346591,6.95726281 L8.09991339,6.56649123 C8.15473066,6.43004833 8.18489583,6.28104689 8.18489583,6.125 C8.18489583,5.96895311 8.15473066,5.81995167 8.09991339,5.68350877 L9.07346591,5.29273719 L8.75749369,4.74545725 L7.93209155,5.39335575 C7.74777773,5.15887215 7.47688964,4.9956539 7.16759079,4.9518645 L7.31597222,3.91319444 L6.68402778,3.91319444 L6.83240921,4.9518645 C6.52311036,4.9956539 6.25222227,5.15887215 6.06790845,5.39335575 L5.24250631,4.74545725 L4.92653409,5.29273719 L5.90008661,5.68350877 C5.84526934,5.81995167 5.81510417,5.96895311 5.81510417,6.125 C5.81510417,6.28104689 5.84526934,6.43004833 5.90008661,6.56649123 L4.92653409,6.95726281 L5.24250631,7.50454275 L6.06790845,6.85664425 Z M4.54566565,7.39908048 C4.34733487,7.01780265 4.23524306,6.58449155 4.23524306,6.125 C4.23524306,5.689908 4.33574652,5.27828984 4.51480424,4.91209473 L3.96635056,4.59544486 C3.73411841,5.055137 3.60329861,5.5747912 3.60329861,6.125 C3.60329861,6.69961184 3.74598007,7.24089864 3.99784658,7.71536397 L4.54566565,7.39908048 Z M7,9.91666667 C4.90592032,9.91666667 3.20833333,8.21907968 3.20833333,6.125 C3.20833333,4.03092032 4.90592032,2.33333333 7,2.33333333 C9.09407968,2.33333333 10.7916667,4.03092032 10.7916667,6.125 C10.7916667,8.21907968 9.09407968,9.91666667 7,9.91666667 Z" id="Combined-Shape" fill="url(#radialGradient-3)"></path>
            </g>
        </g>
    </g>
</svg>
