<?xml version="1.0" encoding="UTF-8"?>
<svg width="16px" height="14px" viewBox="0 0 16 14" version="1.1" xmlns="http://www.w3.org/2000/svg" xmlns:xlink="http://www.w3.org/1999/xlink">
    <!-- Generator: Sketch 48.1 (47250) - http://www.bohemiancoding.com/sketch -->
    <title>所有人投注-幸运一击@3x</title>
    <desc>Created with Sketch.</desc>
    <defs>
        <radialGradient cx="50%" cy="50%" fx="50%" fy="50%" r="56.5432745%" gradientTransform="translate(0.500000,0.500000),scale(1.000000,0.875000),rotate(-90.000000),translate(-0.500000,-0.500000)" id="radialGradient-1">
            <stop stop-color="#683A08" offset="0%"></stop>
            <stop stop-color="#512306" offset="100%"></stop>
        </radialGradient>
        <radialGradient cx="50%" cy="50%" fx="50%" fy="50%" r="50%" id="radialGradient-2">
            <stop stop-color="#FFF37E" offset="0%"></stop>
            <stop stop-color="#FECE04" offset="100%"></stop>
        </radialGradient>
    </defs>
    <g id="主界面-copy-2" stroke="none" stroke-width="1" fill="none" fill-rule="evenodd" transform="translate(-136.000000, -82.000000)">
        <g id="所有人投注-幸运一击" transform="translate(137.000000, 83.000000)">
            <path d="M7.08340319,-0.773869589 L12.4665968,2.34200785 C12.6419673,2.44351506 12.75,2.63110813 12.75,2.83412256 L12.75,9.06587744 C12.75,9.26889187 12.6419673,9.45648494 12.4665968,9.55799215 L7.08340319,12.6738696 C6.90803268,12.7753768 6.69196732,12.7753768 6.51659681,12.6738696 L1.13340319,9.55799215 C0.958032685,9.45648494 0.85,9.26889187 0.85,9.06587744 L0.85,2.83412256 C0.85,2.63110813 0.958032685,2.44351506 1.13340319,2.34200785 L6.51659681,-0.773869589 C6.69196732,-0.875376804 6.90803268,-0.875376804 7.08340319,-0.773869589 Z" id="Combined-Shape-Copy-2" stroke="#85400B" fill="#4A020B" fill-rule="nonzero" transform="translate(6.800000, 5.950000) rotate(-270.000000) translate(-6.800000, -5.950000) "></path>
            <path d="M7.05943895,-0.205307087 L11.9874361,2.64709542 C12.1479774,2.7400193 12.246875,2.91174972 12.246875,3.09759749 L12.246875,8.80240251 C12.246875,8.98825028 12.1479774,9.1599807 11.9874361,9.25290458 L7.05943895,12.1053071 C6.89889757,12.198231 6.70110243,12.198231 6.54056105,12.1053071 L1.61256395,9.25290458 C1.45202257,9.1599807 1.353125,8.98825028 1.353125,8.80240251 L1.353125,3.09759749 C1.353125,2.91174972 1.45202257,2.7400193 1.61256395,2.64709542 L6.54056105,-0.205307087 C6.70110243,-0.298230971 6.89889757,-0.298230971 7.05943895,-0.205307087 Z" id="Combined-Shape-Copy-2" stroke="#070A18" stroke-width="0.5" fill="url(#radialGradient-1)" fill-rule="nonzero" transform="translate(6.800000, 5.950000) rotate(-270.000000) translate(-6.800000, -5.950000) "></path>
            <polygon id="Star-2" fill="url(#radialGradient-2)" points="6.8999939 7.5 5.13663814 8.42705098 5.47340912 6.46352549 4.04682435 5.07294902 6.01831602 4.78647451 6.8999939 3 7.78167177 4.78647451 9.75316345 5.07294902 8.32657867 6.46352549 8.66334965 8.42705098"></polygon>
        </g>
    </g>
</svg>
