<?xml version="1.0" encoding="UTF-8"?>
<svg width="211px" height="28px" viewBox="0 0 211 28" version="1.1" xmlns="http://www.w3.org/2000/svg" xmlns:xlink="http://www.w3.org/1999/xlink">
    <!-- Generator: Sketch 48.1 (47250) - http://www.bohemiancoding.com/sketch -->
    <title>waiting to</title>
    <desc>Created with Sketch.</desc>
    <defs>
        <path d="M0.838655824,1.296 L5.26665582,1.296 L4.99878465,21.312 L5.14278465,21.312 L15.6706558,1.296 L19.7746558,1.296 L19.7587847,21.312 L19.9027847,21.312 L30.1786558,1.296 L34.6066558,1.296 L20.420663,27 L16.244663,27 L16.2491252,7.164 L16.1051252,7.164 L5.66066299,27 L1.44866299,27 L0.838655824,1.296 Z M44.6866558,1.296 L49.1506558,1.296 L52.280663,27 L48.068663,27 L47.401311,20.376 L36.349311,20.376 L32.192663,27 L28.016663,27 L44.6866558,1.296 Z M38.3906714,17.136 L47.0666714,17.136 L45.8812873,5.508 L45.7372873,5.508 L38.3906714,17.136 Z M61.6426558,1.296 L65.5306558,1.296 L58.760663,27 L54.872663,27 L61.6426558,1.296 Z M68.6626558,1.296 L89.7226558,1.296 L88.84085,4.644 L80.27285,4.644 L74.384663,27 L70.496663,27 L76.38485,4.644 L67.78085,4.644 L68.6626558,1.296 Z M92.8906558,1.296 L96.7786558,1.296 L90.008663,27 L86.120663,27 L92.8906558,1.296 Z M101.890656,1.296 L105.850656,1.296 L113.955829,20.412 L114.099829,20.412 L119.134656,1.296 L123.058656,1.296 L116.288663,27 L112.472663,27 L104.28038,7.668 L104.13638,7.668 L99.044663,27 L95.120663,27 L101.890656,1.296 Z M139.391401,0.792 C142.667401,0.792 145.069765,1.512 146.57953,3.024 C148.036259,4.464 148.628834,6.588 148.338291,9.468 L144.378291,9.468 C144.473417,7.74 144.022761,6.444 143.026324,5.58 C142.039368,4.68 140.49715,4.248 138.48115,4.248 C135.99715,4.248 133.799069,5.076 131.867943,6.804 C129.809854,8.604 128.399611,11.088 127.565214,14.256 C126.749781,17.352 126.807983,19.728 127.811821,21.384 C128.849732,23.184 130.988687,24.084 134.192687,24.084 C135.452687,24.084 136.688096,23.904 137.879951,23.616 C139.035805,23.328 140.085586,22.896 141.091813,22.356 L142.561489,16.776 L135.469489,16.776 L136.351295,13.428 L147.367295,13.428 L144.52276,24.228 C142.915789,25.272 141.159189,26.064 139.243481,26.64 C137.219772,27.216 135.091918,27.504 132.859918,27.504 C128.755918,27.504 125.929262,26.208 124.343951,23.616 C122.85523,21.204 122.636145,18.072 123.641214,14.256 C124.655765,10.404 126.534162,7.236 129.312405,4.752 C132.246057,2.088 135.611401,0.792 139.391401,0.792 Z M165.286656,1.296 L186.346656,1.296 L185.46485,4.644 L176.89685,4.644 L171.008663,27 L167.120663,27 L173.00885,4.644 L164.40485,4.644 L165.286656,1.296 Z M200.951401,0.792 C204.839401,0.792 207.603538,2.052 209.198332,4.608 C210.723052,7.02 210.959174,10.224 209.916178,14.184 C208.882663,18.108 206.968266,21.276 204.163505,23.724 C201.23178,26.244 197.803918,27.504 193.915918,27.504 C189.991918,27.504 187.237262,26.208 185.668987,23.688 C184.153748,21.24 183.944145,18.072 184.968178,14.184 C186.001692,10.26 187.880089,7.092 190.68485,4.644 C193.599538,2.052 197.027401,0.792 200.951401,0.792 Z M200.04115,4.248 C197.30515,4.248 194.944105,5.148 192.939052,7.02 C191.034445,8.784 189.688647,11.16 188.892178,14.184 C188.10519,17.172 188.199392,19.548 189.174785,21.312 C190.212696,23.112 192.090169,24.048 194.826169,24.048 C197.562169,24.048 199.923214,23.148 201.863821,21.384 C203.758947,19.656 205.150226,17.244 205.956178,14.184 C206.771611,11.088 206.65089,8.676 205.675498,6.912 C204.673587,5.112 202.77715,4.248 200.04115,4.248 Z" id="path-1"></path>
    </defs>
    <g id="提示-等待下注" stroke="none" stroke-width="1" fill="none" fill-rule="evenodd" transform="translate(-78.000000, -298.000000)">
        <g id="Group-8-Copy" transform="translate(77.000000, 284.000000)">
            <g id="Group-7" transform="translate(0.000000, 14.000000)">
                <g id="waiting-to" transform="translate(1.000000, 0.000000)">
                    <mask id="mask-2" fill="white">
                        <use xlink:href="#path-1"></use>
                    </mask>
                    <use id="WAITING-TO" fill="#EC9603" xlink:href="#path-1"></use>
                    <rect id="Rectangle-6" fill="#FFC86A" mask="url(#mask-2)" x="-13" y="-23" width="232" height="37"></rect>
                </g>
            </g>
        </g>
    </g>
</svg>
