<?xml version="1.0" encoding="UTF-8"?>
<svg width="259px" height="75px" viewBox="0 0 259 75" version="1.1" xmlns="http://www.w3.org/2000/svg" xmlns:xlink="http://www.w3.org/1999/xlink">
    <!-- Generator: Sketch 48.1 (47250) - http://www.bohemiancoding.com/sketch -->
    <title>WAITING TO 发光</title>
    <desc>Created with Sketch.</desc>
    <defs>
        <filter x="-14.8%" y="-116.1%" width="129.5%" height="332.3%" filterUnits="objectBoundingBox" id="filter-1">
            <feGaussianBlur stdDeviation="10.3404018" in="SourceGraphic"></feGaussianBlur>
        </filter>
    </defs>
    <g id="提示-等待下注" stroke="none" stroke-width="1" fill="none" fill-rule="evenodd" transform="translate(-53.000000, -275.000000)">
        <g id="Group-8-Copy" transform="translate(77.000000, 284.000000)" fill="#EC9603">
            <g id="Group-7" transform="translate(0.000000, 14.000000)">
                <path d="M0.880372607,1.296 L5.30837261,1.296 L5.68479399,21.312 L5.82879399,21.312 L15.7123726,1.296 L19.8163726,1.296 L20.444794,21.312 L20.588794,21.312 L30.2203726,1.296 L34.6483726,1.296 L21.2897627,27 L17.1137627,27 L16.4797264,7.164 L16.3357264,7.164 L6.52976265,27 L2.31776265,27 L0.880372607,1.296 Z M44.7283726,1.296 L49.1923726,1.296 L53.1497627,27 L48.9377627,27 L48.0571915,20.376 L37.0051915,20.376 L33.0617627,27 L28.8857627,27 L44.7283726,1.296 Z M38.94226,17.136 L47.61826,17.136 L46.0585836,5.508 L45.9145836,5.508 L38.94226,17.136 Z M61.6843726,1.296 L65.5723726,1.296 L59.6297627,27 L55.7417627,27 L61.6843726,1.296 Z M68.7043726,1.296 L89.7643726,1.296 L88.9903352,4.644 L80.4223352,4.644 L75.2537627,27 L71.3657627,27 L76.5343352,4.644 L67.9303352,4.644 L68.7043726,1.296 Z M92.9323726,1.296 L96.8203726,1.296 L90.8777627,27 L86.9897627,27 L92.9323726,1.296 Z M101.932373,1.296 L105.892373,1.296 L114.612869,20.412 L114.756869,20.412 L119.176373,1.296 L123.100373,1.296 L117.157763,27 L113.341763,27 L104.527205,7.668 L104.383205,7.668 L99.9137627,27 L95.9897627,27 L101.932373,1.296 Z M139.416894,0.792 C142.692894,0.792 145.118435,1.512 146.676869,3.024 C148.17995,4.464 148.840894,6.588 148.643055,9.468 L144.683055,9.468 C144.722559,7.74 144.230186,6.444 143.205938,5.58 C142.190012,4.68 140.633888,4.248 138.617888,4.248 C136.133888,4.248 133.962459,5.076 132.086956,6.804 C130.086807,8.604 128.756521,11.088 128.024099,14.256 C127.308322,17.352 127.443005,19.728 128.500148,21.384 C129.595999,23.184 131.763924,24.084 134.967924,24.084 C136.227924,24.084 137.457539,23.904 138.640123,23.616 C139.786707,23.328 140.822583,22.896 141.811427,22.356 L143.10149,16.776 L136.00949,16.776 L136.783527,13.428 L147.799527,13.428 L145.302632,24.228 C143.729266,25.272 141.99816,26.064 140.100992,26.64 C138.095825,27.216 135.977241,27.504 133.745241,27.504 C129.641241,27.504 126.772868,26.208 125.104123,23.616 C123.537763,21.204 123.217862,18.072 124.100099,14.256 C124.990658,10.404 126.76708,7.236 129.465366,4.752 C132.313267,2.088 135.636894,0.792 139.416894,0.792 Z M165.328373,1.296 L186.388373,1.296 L185.614335,4.644 L177.046335,4.644 L171.877763,27 L167.989763,27 L173.158335,4.644 L164.554335,4.644 L165.328373,1.296 Z M200.976894,0.792 C204.864894,0.792 207.66959,2.052 209.346658,4.608 C210.949018,7.02 211.288273,10.224 210.372745,14.184 C209.465539,18.108 207.653117,21.276 204.927154,23.724 C202.076545,26.244 198.689241,27.504 194.801241,27.504 C190.877241,27.504 188.080868,26.208 186.431477,23.688 C184.83744,21.24 184.525862,18.072 185.424745,14.184 C186.33195,10.26 188.108372,7.092 190.834335,4.644 C193.66559,2.052 197.052894,0.792 200.976894,0.792 Z M200.177888,4.248 C197.441888,4.248 195.109813,5.148 193.165018,7.02 C191.317192,8.784 190.047875,11.16 189.348745,14.184 C188.657937,17.172 188.82862,19.548 189.860794,21.312 C190.956645,23.112 192.864247,24.048 195.600247,24.048 C198.336247,24.048 200.668322,23.148 202.552148,21.384 C204.391651,19.656 205.705291,17.244 206.412745,14.184 C207.128521,11.088 206.930161,8.676 205.897987,6.912 C204.838136,5.112 202.913888,4.248 200.177888,4.248 Z" id="WAITING-TO-发光" filter="url(#filter-1)"></path>
            </g>
        </g>
    </g>
</svg>
